<?xml version="1.0" standalone="no"?>
<!DOCTYPE svg PUBLIC "-//W3C//DTD SVG 1.1//EN" "http://www.w3.org/Graphics/SVG/1.1/DTD/svg11.dtd" >
<svg xmlns="http://www.w3.org/2000/svg">
<metadata></metadata>
<defs>
<font id="garamond_oldstyle_fsbold" horiz-adv-x="1024" >
<font-face units-per-em="2048" ascent="1516" descent="-532" />
<missing-glyph horiz-adv-x="512" />
<glyph unicode="&#xfb01;" horiz-adv-x="1132" d="M33 31q0 24 8.5 29.5t54.5 11.5q48 8 58 30q6 9 7.5 19.5t6.5 62.5l-2 97q0 3 3 46.5t3 49.5q-2 38 -4 75t-3 55t-1 19q0 9 3 41t3 37q0 150 -6 156q-2 5 -64 8q-5 0 -19.5 -2t-17.5 -2q-17 0 -23.5 11.5t-6.5 39.5q0 21 2.5 32.5t9 17t18.5 5.5q4 0 19 -2t18 -2 q60 0 64 4q3 0 4 5.5t2 37.5l-2 37q12 154 31 215.5t75 126.5q97 115 185 164q82 47 104 51q79 21 117 21q33 0 95.5 -15t98.5 -32q25 -12 64.5 -42.5t46.5 -43.5q37 -62 37 -86q0 -58 -40 -98t-97 -40q-65 0 -92 35q-12 12 -15.5 21.5t-7.5 48.5q-6 47 -59 82t-119 35 q-91 0 -141 -62q-25 -31 -37 -55.5t-17.5 -64.5t-5.5 -109v-189q0 -32 3.5 -37.5t25.5 -5.5q6 -2 53 -2q69 0 125 -2l143 -4q76 -2 148 25q45 17 82 31q12 4 14 4q3 0 7 -3t6.5 -7.5t2.5 -8.5q0 -2 -1 -5.5t-2 -6.5t-1 -6q0 -2 3.5 -16t3.5 -17q0 -5 -3.5 -26.5t-3.5 -26.5 l2 -195q1 -47 1 -84.5v-54.5v-30v-19.5t1 -14.5l-2 -100l2 -41q1 -16 2 -45q1 -32 1.5 -45t3 -32.5t3.5 -25.5t6 -16.5t8.5 -12t13.5 -5.5t17.5 -5t24.5 -3q27 -6 27 -41q0 -20 -10 -29.5t-33 -9.5q-12 0 -35.5 2.5t-46.5 3.5q-6 0 -24 1.5l-36 3t-26 1.5q-32 -1 -141 -6 q-19 0 -31 -2h-27l-10 -2q-19 0 -27 10t-8 35q0 12 3 19t9.5 11t18.5 5q51 5 64 17q19 19 21 105l1 107q0 8 1 29t2 39.5t1 19.5q0 10 -2 44.5t-2 39.5l2 125v40.5v28.5t-2.5 22t-3.5 14t-7.5 12t-9.5 9t-14 11q-7 5 -19.5 10.5t-27.5 10t-30.5 7.5t-26.5 3l-115 -2 q-2 0 -27.5 2t-29.5 2q-19 0 -25 -2h-8q-14 3 -20.5 1.5t-8.5 -9.5t-2 -33v-102l-2 -125q0 -11 3 -50.5t3 -41.5q0 -11 -3 -51.5t-3 -43.5l4 -75l-2 -52q-1 -52 15.5 -76t58.5 -30q45 -7 54.5 -10t15.5 -11q8 -16 8 -20l-8 -37q-2 -2 -11.5 -5t-15.5 -3q-12 0 -36 3t-46 3 q-36 4 -127 4q-15 0 -77.5 -4t-71.5 -4l-68 -2q-6 -2 -12 -2q-22 0 -31.5 9.5t-9.5 31.5z" />
<glyph unicode="&#xfb02;" horiz-adv-x="1132" d="M33 819q0 31 6 40t27 9h16q14 -2 29 -2q49 0 53 4q4 8 4 72q0 228 106 352q63 75 131 127.5t137.5 79.5t135.5 27q69 0 170 -37q4 -2 12 -2q4 0 37 10q63 29 84 29q18 0 18 -39l-2 -129q0 -19 2 -39v-43q0 -6 -1 -23.5t-1 -27.5q-4 -59 -4 -111l2 -63q0 -9 1 -28t1 -26 v-51q0 -20 -1 -39t-1 -30l2 -64l-4 -149q-1 -29 0.5 -58t1.5 -55l2 -51.5t2 -91.5v-25l-1 -13.5t-2 -37.5t-1 -49v-82q0 -67 18.5 -94.5t69.5 -38.5q19 -5 24 -11t5 -26q0 -25 -7 -32t-30 -7q-9 1 -19.5 1.5t-32.5 2.5t-40.5 3t-28.5 1q-5 0 -28 -1t-41 -1l-70 -2l-92 -4 q-32 -4 -41 -4q-31 0 -31 28t8 36.5t37 11.5q35 4 51.5 25t18.5 61q4 66 4 170l-2 129l2 120v310q0 6 -1 24t-1 31l-2 115v225q0 30 -24.5 57t-65 43.5t-84.5 16.5q-58 0 -95.5 -20.5t-66.5 -67.5q-24 -36 -33 -85t-8 -137l2 -172q0 -6 -2 -12v-6q-2 -18 11 -21.5t83 -3.5 h43q20 -2 37 -2q14 0 20.5 -1t11 -8t5 -16.5t0.5 -31.5q0 -20 -2.5 -28t-10 -11.5t-24.5 -3.5q-56 0 -76 2h-53q-8 -2 -18 -2q-10 1 -14 -1.5t-5.5 -11t-1.5 -28.5v-258q0 -14 1 -33.5t1 -30.5t-1 -39t-2 -51.5t-1 -25.5l2 -49v-48q0 -58 15.5 -81t58.5 -31q55 -9 66.5 -15 t11.5 -26q0 -26 -6.5 -34.5t-28.5 -8.5q-7 0 -98.5 3t-106.5 3q-45 0 -121 -4q-69 -6 -98 -6h-16q-20 0 -28.5 8.5t-8.5 30.5q0 26 8.5 31.5t54.5 11.5q41 5 57 30.5t13 85.5l-2 50q-1 18 2 96q2 14 2 41q0 3 -2 64.5t-2 80.5q0 12 1.5 34t2.5 50q3 145 -6 154q-5 8 -66 8 h-12q-8 -2 -18 -2q-23 0 -29 9t-6 46z" />
<glyph unicode="&#xfb03;" horiz-adv-x="1728" d="M33 819q0 31 6 40t27 9h16q14 -2 29 -2q49 0 53 4q4 8 4 72q0 228 106 352q95 113 199.5 173.5t204.5 60.5q33 0 95.5 -15t98.5 -32q14 -7 35.5 -21.5t41 -31t28.5 -27.5q44 37 78 55q82 47 104 51q79 21 117 21q33 0 95.5 -15t98.5 -32q25 -12 64.5 -42.5t46.5 -43.5 q37 -62 37 -86q0 -58 -40 -98t-97 -40q-65 0 -92 35q-12 12 -15.5 21.5t-7.5 48.5q-6 47 -59 82t-119 35q-91 0 -141 -62q-35 -42 -44.5 -83.5t-9.5 -145.5v-189q0 -32 3.5 -37.5t25.5 -5.5q6 -2 53 -2q63 0 119 -2l143 -4q76 -2 148 25q45 17 82 31q12 4 14 4 q5 0 10.5 -6.5t5.5 -12.5q0 -2 -2 -8.5t-2 -9.5q0 -1 3 -15.5t3 -17.5q0 -5 -3 -26.5t-3 -26.5l2 -195q1 -57 1 -100v-57.5v-25t1 -20.5l-2 -100l2 -41q1 -16 2 -45q1 -32 1.5 -45t3 -32.5t3.5 -25.5t6 -16.5t8.5 -12t13.5 -5.5t17.5 -5t24.5 -3q27 -6 27 -41 q0 -20 -10 -29.5t-33 -9.5q-10 0 -20 1t-26 2.5t-36 2.5q-7 0 -41.5 3t-44.5 3q-32 -1 -141 -6q-19 0 -31 -2h-27l-10 -2q-19 0 -27 10t-8 35q0 17 7 25.5t24 9.5q51 5 64 17q19 19 21 105q1 28 1 107q0 8 1 29t2 39.5t1 19.5q0 10 -2 44.5t-2 39.5l2 125q0 23 0.5 36 t-0.5 27.5t-1 20.5t-3 14.5t-4 11t-7.5 9t-9 8.5l-12.5 10q-14 11 -47.5 21t-56.5 10l-109 -2q-2 0 -27.5 2t-29.5 2q-19 0 -25 -2h-8q-14 3 -20.5 1.5t-8.5 -9.5t-2 -33v-102l-2 -125q0 -11 3 -50.5t3 -41.5q0 -11 -3 -51.5t-3 -43.5l4 -75l-2 -52q-1 -52 15.5 -76 t58.5 -30q45 -7 54.5 -10t15.5 -11q8 -16 8 -20l-8 -37q-1 -1 -6 -3t-11 -3.5t-10 -1.5q-12 0 -36 3t-46 3q-36 4 -127 4q-15 0 -77.5 -4t-71.5 -4l-68 -2q-6 -2 -12 -2q-22 0 -31.5 9.5t-9.5 31.5q0 24 8.5 29.5t54.5 11.5q20 3 37 11.5t21 18.5q6 9 7.5 19.5t6.5 62.5 l-2 97q0 3 3 46.5t3 49.5q-2 38 -4 75t-3 55t-1 19q0 9 3 41t3 37q0 150 -6 156q-2 5 -64 8q-7 0 -33 -2t-32 -2h-121q-2 0 -27.5 2t-29.5 2q-19 0 -25 -2h-8q-14 3 -20.5 1.5t-8.5 -9.5t-2 -33v-258q0 -14 1 -33.5t1 -30.5t-1 -39t-2 -51.5t-1 -25.5l2 -49v-48 q0 -58 15.5 -81t58.5 -31q55 -9 66.5 -15t11.5 -26q0 -26 -6.5 -34.5t-28.5 -8.5q-7 0 -98.5 3t-106.5 3q-45 0 -121 -4q-69 -6 -98 -6h-16q-20 0 -28.5 8.5t-8.5 30.5q0 26 8.5 31.5t54.5 11.5q41 5 57 30.5t13 85.5l-2 50q-1 18 2 96q2 14 2 41q0 3 -2 64.5t-2 80.5 q0 12 1.5 34t2.5 50q3 145 -6 154q-5 8 -66 8h-12q-8 -2 -18 -2q-23 0 -29 9t-6 46zM389 1083l2 -170q0 -32 3.5 -37.5t25.5 -5.5q6 -2 53 -2q2 0 9 0.5t23 0.5t44 -1h74q4 2 14 2q41 0 49 -2h70q8 0 10 2q3 0 4 5.5t2 37.5l-2 37q0 19 4 47l-2 54l-6 225q0 30 -24.5 57 t-65 43.5t-84.5 16.5q-58 0 -95.5 -20.5t-66.5 -67.5q-24 -36 -33 -85t-8 -137z" />
<glyph unicode="&#xfb04;" horiz-adv-x="1738" d="M33 819q0 31 6 40t27 9h16q14 -2 29 -2q49 0 53 4q4 8 4 72q0 228 106 352q95 113 199.5 173.5t204.5 60.5q32 0 94 -15t100 -32q47 -23 111 -82q151 129 301 129q69 0 170 -37q4 -2 12 -2q4 0 37 10q63 29 84 29q19 0 19 -39l-2 -129q0 -19 2 -39v-43q0 -6 -1 -23.5 t-1 -27.5q-5 -74 -5 -111l3 -63q0 -9 1 -28t1 -26v-51q0 -20 -1 -39t-1 -30l2 -64l-5 -149q-1 -30 0 -39.5t2 -29.5t1 -44l2 -51.5t2 -91.5v-25l-1 -13.5t-2 -37.5t-1 -49v-82q0 -67 18.5 -94.5t69.5 -38.5q10 -2 15 -4t8.5 -6.5t4 -10t0.5 -16.5q0 -25 -7 -32t-30 -7 q-91 8 -120 8q-5 0 -16.5 -0.5t-26 -1t-27.5 -0.5l-70 -2l-92 -4q-32 -4 -41 -4q-31 0 -31 28q0 19 3.5 28t13 13.5t29.5 6.5q35 4 51 25t18 61q4 66 4 170l-2 129l2 120v310q0 6 -1 24t-1 31l-2 115v225q0 46 -53 81.5t-121 35.5q-39 0 -68 -9t-51.5 -28t-42.5 -51 q-35 -52 -41 -152q2 -18 2 -37l-2 -33l2 -196q0 -7 1.5 -10t11 -5.5t27 -3t53.5 -0.5h43q20 -2 36 -2q26 0 31.5 -8.5t5.5 -48.5q0 -19 -3 -28t-10.5 -12t-23.5 -3q-55 0 -75 2h-27q-17 0 -27 -2h-18q-10 1 -14 -1.5t-5.5 -11t-1.5 -28.5v-258q0 -14 1.5 -33.5t1.5 -30.5 q0 -13 -2.5 -61t-2.5 -49l2 -55v-50q0 -57 15.5 -80.5t58.5 -29.5q39 -7 53 -10.5t19.5 -9.5t5.5 -19q0 -18 -3 -27.5t-10.5 -13.5t-21.5 -4h-31q-39 0 -100.5 3t-75.5 3q-40 0 -118 -4l-99 -6h-16q-14 0 -22 3.5t-11.5 12t-3.5 23.5q0 26 8.5 31.5t55.5 11.5q11 1 23 5.5 t21 10.5t13 12q4 10 5.5 21t6.5 65l-2 62q0 11 2 59.5t2 67.5q-4 118 -4 145q0 12 1.5 34t2.5 50q3 145 -6 154q-7 7 -68 10q-7 0 -33 -2t-32 -2h-121q-2 0 -27.5 2t-29.5 2q-19 0 -25 -2h-18q-14 0 -17.5 -6.5t-3.5 -34.5v-258q0 -14 1 -33.5t1 -30.5q0 -14 -2 -61.5 t-2 -48.5l2 -55v-50q0 -39 6.5 -61t22.5 -33.5t45 -15.5q55 -9 66.5 -14.5t11.5 -24.5q0 -18 -3 -27.5t-10.5 -13.5t-21.5 -4h-31q-39 0 -100.5 3t-75.5 3q-41 0 -119 -4l-98 -6h-16q-20 0 -28.5 8.5t-8.5 30.5q0 26 8.5 31.5t54.5 11.5q11 1 23 5.5t21.5 10.5t13.5 12 q4 10 5.5 21t6.5 65l-2 62q0 11 2 59.5t2 67.5q-4 118 -4 145q0 12 1.5 34t2.5 50q3 145 -6 154q-5 8 -66 8h-12q-8 -2 -18 -2q-23 0 -29 9t-6 46zM389 1083l2 -170q0 -32 3.5 -37.5t25.5 -5.5q6 -2 53 -2h76h74q4 2 14 2q41 0 49 -2h74q8 0 10 2q3 0 4 5.5t2 37.5l-2 35 q-2 13 2 70v33l-6 225q0 45 -55 81t-123 36q-58 0 -95.5 -20.5t-66.5 -67.5q-24 -36 -33 -85t-8 -137z" />
<glyph horiz-adv-x="2048" />
<glyph horiz-adv-x="2048" />
<glyph unicode="&#xd;" horiz-adv-x="2048" />
<glyph unicode=" "  horiz-adv-x="512" />
<glyph unicode="&#x09;" horiz-adv-x="512" />
<glyph unicode="&#xa0;" horiz-adv-x="512" />
<glyph unicode="!" horiz-adv-x="514" d="M96 135q0 76 44 122t116 46q71 0 117.5 -44.5t46.5 -111.5q0 -75 -43.5 -121t-114.5 -46q-72 0 -119 44t-47 111zM96 1237q0 68 44.5 108.5t117.5 40.5q75 0 118.5 -41.5t43.5 -113.5q0 -83 -39 -256l-14 -80q-3 -5 -15 -96q-23 -149 -51 -275l-14 -73q-5 -27 -11 -35 t-24 -8t-23.5 13t-13.5 73q-1 11 -3 23.5t-3.5 20.5t-1.5 9l-8 31l-21 120l-18 117l-21 103q-1 6 -2 11.5t-1.5 8.5t-0.5 4q-9 61 -16.5 114.5t-11 74.5t-3.5 22q0 9 -4 25q-4 50 -4 59z" />
<glyph unicode="&#x22;" horiz-adv-x="712" d="M68 1282q0 66 32.5 100.5t94.5 34.5q51 0 79.5 -31.5t28.5 -87.5q0 -47 -13.5 -107.5t-37.5 -141.5t-31 -107l-8 -27l-8 -47q-5 -18 -21 -18q-13 0 -16.5 8.5t-13.5 54.5q-4 18 -27 96.5t-41 154.5t-18 118zM410 1282q0 66 32.5 100.5t94.5 34.5q51 0 79.5 -31.5 t28.5 -87.5q0 -47 -13.5 -107.5t-37.5 -141.5t-31 -107l-8 -27l-8 -47q-5 -18 -21 -18q-12 0 -16 8t-12 44q-1 7 -2 11q-4 18 -27 96.5t-41 154.5t-18 118z" />
<glyph unicode="#" d="M70 391q0 15 4.5 40t9.5 36q6 15 16 21t33 6t43 2h72q9 86 45 264q-12 2 -29 2q-86 0 -104.5 6t-18.5 35q0 24 8 52.5t17 37.5q6 8 28.5 10t112.5 2h12l13 56q32 201 43 256q4 24 13 32t30 8q10 0 30 -2t35 -4l15 -2q10 -5 13 -9.5t3 -16.5q0 -8 -10 -62l-23 -141 q-5 -40 -8 -55q-4 -30 -10 -62h106q50 0 93 -2q10 56 10 60q20 111 39 229l4 27q6 25 14.5 32.5t30.5 7.5q10 0 30 -2t35 -4l15 -2q10 -5 13 -9.5t3 -16.5q0 -6 -10 -62q0 -9 -4 -34.5t-8.5 -48t-4.5 -23.5q-25 -151 -26 -152h35q16 0 31.5 1t17.5 1q42 0 55.5 -6t13.5 -25 q0 -13 -9 -50t-15 -46q-6 -12 -16.5 -14t-67.5 -2h-70q-32 -179 -47 -270q31 0 35 2h49q43 0 56.5 -6t13.5 -25q0 -12 -9.5 -49t-15.5 -47q-6 -11 -17 -13t-67 -2h-69q-11 -62 -20.5 -110.5t-20 -101l-17.5 -87.5q-3 -32 -18.5 -42.5t-61.5 -10.5q-35 0 -48 7t-13 26 q0 44 55 317h-198l-56 -297q-5 -32 -20.5 -42.5t-59.5 -10.5q-35 0 -48 7t-13 26q0 47 55 317q-14 2 -30 2q-31 2 -60 2l-24 -2q-20 -2 -29.5 7.5t-9.5 31.5zM389 494h14l29 -2l64 2q22 1 92 -2q12 98 47 268h-199q-14 -90 -26 -154l-13 -61z" />
<glyph unicode="$" horiz-adv-x="927" d="M53 268q0 14 9 19.5t34 5.5q24 0 31 -5.5t14 -29.5q23 -67 63.5 -113.5t100.5 -72t137 -25.5q85 0 166 62q34 25 54 70t20 97q0 145 -238 246q-73 32 -152 78t-118 80q-54 44 -83.5 110.5t-29.5 143.5q0 68 19.5 130.5t52.5 100.5q47 57 89 83.5t128 54.5q10 3 15.5 7 t7.5 11.5t2 21.5v173q0 22 26 22h64q26 0 33.5 -5t7.5 -20v-16q0 -53 2 -70v-45q0 -45 5 -55t28 -10q67 -3 172 -45q14 -6 40.5 -18.5t28.5 -14.5q8 -7 10.5 -11.5t2.5 -17.5v-47q0 -18 0.5 -35.5t1 -28t0.5 -12.5q0 -49 2 -55v-14q0 -17 -6.5 -22t-28.5 -5q-28 0 -33.5 3.5 t-9.5 23.5q-6 34 -28 77.5t-50 73.5q-66 72 -170 72q-67 0 -117.5 -25t-78 -71.5t-27.5 -108.5q0 -89 96 -164q23 -17 142.5 -78.5t156.5 -82.5q22 -13 23 -13q59 -32 90.5 -59.5t60.5 -69.5q55 -82 55 -200q0 -66 -31 -143t-75 -120q-42 -41 -61 -54.5t-64 -35.5 q-49 -23 -100 -30q-34 -3 -31 -31l2 -33l-2 -53l2 -25l-2 -51l2 -35q0 -12 -10 -19t-25 -7q-10 0 -20 2h-33q-32 0 -38.5 7t-6.5 44v84l-2 41v29q0 18 -3 23.5t-14 8.5q-12 0 -51 2q-99 17 -180 50q-42 17 -49 22q-10 5 -10 29q-1 3 -1.5 8t-1 13.5t-1.5 15.5q0 3 -1 11.5 t-2 23t-2 28.5l-6 55q-4 32 -4 39z" />
<glyph unicode="%" horiz-adv-x="1675" d="M43 969q0 148 94 243t240 95q150 0 245 -90.5t95 -233.5q0 -154 -96.5 -249t-255.5 -95q-64 0 -135 27.5t-103 64.5q-45 52 -64.5 108t-19.5 130zM240 977q0 -157 32 -211q38 -68 109 -68q63 0 100 73t37 196q0 278 -141 278q-137 0 -137 -268zM516 10q0 6 2 10l12 25 q1 2 62 152l39 94q6 17 65 149q28 65 60.5 145t40.5 97q10 35 30 76q3 8 19.5 46.5l25.5 59.5l52 117q35 86 47 123q35 75 59 139l8 23q4 13 8.5 16.5t16.5 5.5q37 2 51 2h25l6 2q12 0 12 -10q0 -7 -33 -84q-26 -62 -86 -207l-14 -35q-59 -139 -176 -417q-97 -238 -123 -303 l-12 -27q-17 -37 -41.5 -97.5t-28.5 -70.5q-9 -29 -14.5 -35t-20.5 -6h-67q-17 0 -20 1t-5 9zM956 315q0 148 94 243t240 95q151 0 245.5 -90t94.5 -233q0 -83 -33 -157t-90 -118q-87 -69 -229 -69q-64 0 -135 27.5t-103 64.5q-45 52 -64.5 107.5t-19.5 129.5zM1153 324 q0 -155 33 -211q38 -68 108 -68q63 0 100.5 72.5t37.5 195.5q0 279 -142 279q-137 0 -137 -268z" />
<glyph unicode="&#x26;" horiz-adv-x="1554" d="M53 324q0 64 25 134.5t65 123.5q25 31 80 75t109 76q20 11 25 14.5t10 10.5q0 1 -4 4t-5 6l-24 20q-36 30 -66 70t-46.5 81t-16.5 75q0 125 91 214t220 89q128 0 209.5 -59.5t81.5 -153.5q0 -51 -16 -88t-56 -80q-36 -29 -104 -82q-8 -2 -13 -8v-2l-2 -2l5 -4l6 -7 l24 -14q43 -25 88 -60t83 -71.5t65 -69.5q2 -3 31.5 -38t44.5 -54q3 -6 8 -6l2 -2q2 5 12 12q9 6 43 56.5t68 109.5q23 40 37 81.5t14 70.5q0 66 -107 78q-21 1 -27.5 9t-6.5 32q0 13 3 20t9 10.5t16 3.5q4 0 17.5 -2t19.5 -2h53q13 0 81.5 -4t84.5 -4q15 0 68 4t80 4 q12 2 30 2q30 0 39 -6.5t9 -27.5q0 -32 -37 -35q-121 -15 -183 -105l-41 -53q-49 -68 -114 -162q-80 -115 -88 -125q-15 -22 -19 -24q-8 -12 -8 -15q0 -1 6 -10l15 -28q10 -20 24 -41q7 -10 35 -58q52 -89 110.5 -126.5t143.5 -37.5q73 0 147 80q13 13 19 13q8 0 26.5 -13.5 t18.5 -19.5q0 -11 -35.5 -60t-58.5 -71q-46 -43 -115.5 -71t-130.5 -28q-53 0 -111.5 12t-91.5 31q-36 20 -48.5 34t-29.5 56l-26 66q-23 44 -23 47q-15 37 -22 37q-8 0 -86 -96q-153 -185 -365 -185q-85 0 -147.5 22t-122.5 73q-43 37 -74 112t-31 142zM270 469 q0 -42 12 -84t33.5 -78.5t49.5 -60.5q25 -22 61 -41t73 -30t66 -11q37 0 69 9.5t63 29.5t69 55q70 67 70 82q0 19 -65.5 95t-119.5 118q-85 70 -129 98l-43 31q-42 31 -47 31q-24 0 -100 -76q-62 -65 -62 -168zM377 1106q0 -28 12 -59.5t31 -51.5q16 -18 45 -43.5t54.5 -44 t31.5 -18.5q28 0 55 45.5t27 91.5q0 104 -37.5 161.5t-106.5 57.5q-51 0 -81.5 -38.5t-30.5 -100.5z" />
<glyph unicode="'" horiz-adv-x="372" d="M68 1282q0 66 32.5 100.5t94.5 34.5q51 0 79.5 -31.5t28.5 -87.5q0 -47 -13.5 -107.5t-37.5 -141.5t-31 -107l-8 -27l-8 -47q-5 -18 -21 -18q-13 0 -16.5 8.5t-13.5 54.5q-4 18 -27 96.5t-41 154.5t-18 118z" />
<glyph unicode="(" horiz-adv-x="626" d="M82 535q0 124 22 223q42 171 57 214t60 128q44 85 103.5 172t105.5 135q84 91 107 94q9 1 28 -18t19 -29q0 -5 -11 -20l-18 -27l-41 -51q-21 -27 -61.5 -94.5t-55.5 -100.5q-21 -44 -50.5 -130.5t-37.5 -123.5q-35 -171 -35 -321q0 -123 22 -260.5t54 -221.5 q104 -263 199 -360q39 -42 39 -51q0 -10 -15.5 -30.5t-23.5 -20.5q-25 0 -79.5 50.5t-123.5 139.5q-44 57 -107 173t-92 194q-65 177 -65 336z" />
<glyph unicode=")" horiz-adv-x="626" d="M41 1450q0 10 15 29.5t24 21.5q22 3 77.5 -48.5t125.5 -141.5q44 -56 106 -172t92 -195q66 -171 66 -336q0 -119 -23 -223q-43 -173 -57.5 -216t-58.5 -126q-43 -83 -102 -169t-107 -138q-87 -94 -107 -94q-9 0 -28 18.5t-19 28.5q0 7 10 20q10 15 60 78q21 27 61 94.5 t55 100.5q21 44 50.5 130.5t37.5 123.5q35 172 35 321q0 123 -21.5 260.5t-53.5 220.5q-105 264 -199 361q-39 39 -39 51z" />
<glyph unicode="*" horiz-adv-x="888" d="M82 815q0 71 141 119q1 0 8.5 2.5t21 7.5t23.5 8q57 23 78 23q11 -2 19 -10.5t8 -20.5t-16 -31l-19 -24l-14 -21q-6 -9 -39 -48.5t-41 -47.5q-42 -45 -80 -45q-34 0 -62 28t-28 60zM82 1176q0 37 25 64.5t57 27.5q26 0 58.5 -22.5t60.5 -59.5l51 -64q45 -61 45 -73 q0 -11 -9.5 -21t-19.5 -10q-7 0 -55 16q-122 39 -167.5 69.5t-45.5 72.5zM406 870q0 49 6 63.5t26 14.5q16 0 33 -26q20 -28 33 -45q90 -131 90 -172q0 -34 -28.5 -60.5t-65.5 -26.5q-90 0 -90 177q-2 16 -2 55q-2 10 -2 20zM414 1100q0 77 6 166q5 62 27 91t65 29 q38 0 63 -22t25 -57q0 -46 -53 -125l-37 -56q-28 -40 -41 -53.5t-25 -13.5q-30 0 -30 41zM469 1001q0 24 37 35q7 1 19 5l12 3l22 9q27 11 61 19t59 11.5t40 3.5q40 0 64 -24.5t24 -65.5q0 -25 -11 -44t-31 -29.5t-46 -10.5q-44 0 -111 21l-53 16q-36 9 -54 16.5t-25 15 t-7 19.5z" />
<glyph unicode="+" d="M109 522q0 42 9.5 55t41.5 13l6 0.5t16 1t21 0.5h47q16 0 70 -1t81 -1h41v145q0 39 -1 76.5t-1 40.5q0 18 1 29.5t3.5 20t7.5 12.5t12 6t17 2q17 0 47.5 -4t36.5 -7q3 -1 4.5 -2t4 -2t3 -3t2 -4.5t1.5 -7t1 -9.5t1 -14v-17.5v-22.5v-36q0 -25 1 -68t1 -61v-76h145 q40 0 77 1t40 1q42 0 55.5 -8t13.5 -33q0 -18 -3.5 -48t-6.5 -36q-5 -12 -15 -14t-69 -2h-37q-23 0 -65.5 -1.5t-61.5 -1.5h-73v-127q0 -20 -2 -70.5t-2 -62.5l2 -24q1 -26 -15 -36.5t-59 -10.5q-42 0 -55 9.5t-13 41.5v6q-1 6 -1.5 16t-0.5 21v47l2 152v38h-127 q-21 0 -70.5 2.5t-64.5 2.5l-22 -2q-26 -3 -36.5 13.5t-10.5 59.5z" />
<glyph unicode="," horiz-adv-x="479" d="M61 137q0 58 42.5 97.5t105.5 39.5q97 0 153 -70.5t56 -191.5q0 -70 -30 -135t-85 -110q-51 -45 -107.5 -71t-101.5 -26q-12 0 -22.5 13t-10.5 28q0 8 8.5 12.5t45.5 16.5q75 25 116 68.5t41 97.5q0 37 -29.5 68.5t-76.5 43.5q-57 15 -81 41.5t-24 77.5z" />
<glyph unicode="-" horiz-adv-x="532" d="M35 389v119q0 26 9.5 30.5t64.5 4.5q14 0 55 -4h20l105 2h82q20 0 38 1t21 1h8q14 -2 25 -2l22 2q10 1 12 -8q3 -13 3 -107q0 -48 -5.5 -58.5t-29.5 -9.5l-21 -2h-12q-17 0 -31 2h-127l-12 -2q-168 -2 -197.5 2t-29.5 29z" />
<glyph unicode="." horiz-adv-x="436" d="M61 133q0 69 44.5 116.5t109.5 47.5q72 0 118 -43.5t46 -112.5q0 -38 -16.5 -73t-43.5 -56q-26 -20 -47 -26t-59 -6q-68 0 -110 42t-42 111z" />
<glyph unicode="/" horiz-adv-x="942" d="M-137 -348q0 6 8 18q2 0 18 37q36 74 82 164.5t90 187.5q48 101 97 191l14 26q31 57 72.5 147t50.5 107q24 43 47 95q12 30 65.5 131.5t55.5 107.5l10 23q3 8 86 168q48 95 70 149q10 27 12 29q50 95 115 231q10 20 13.5 24t16.5 7q63 4 74 4q18 2 33 2q20 0 20 -14 q0 -4 -16 -35q-15 -31 -92.5 -190t-118.5 -244l-231 -463q-59 -118 -68 -139l-137 -279q-10 -20 -34.5 -73.5t-39.5 -81.5q-5 -12 -10 -21.5t-8.5 -15.5l-3.5 -6q-81 -165 -119 -240q-15 -40 -22 -47.5t-29 -7.5l-101 -2q-20 0 -20 10z" />
<glyph unicode="0" horiz-adv-x="927" d="M61 532q0 159 4.5 233t16.5 140q22 108 53 179t78 120q111 117 260 117q75 0 130 -22t102 -72q78 -79 120.5 -202.5t42.5 -266.5q0 -153 -10 -318q-6 -87 -35.5 -181t-64.5 -140q-62 -78 -133.5 -114t-169.5 -36q-51 0 -110 18.5t-103 47.5q-80 56 -144 235 q-11 33 -24 124.5t-13 137.5zM154 651q0 -98 18.5 -185t50.5 -136q32 -52 97.5 -81.5t150.5 -29.5q75 0 125 26.5t104 94.5q32 38 55 120.5t23 157.5q0 168 -27.5 254.5t-107.5 147.5q-35 26 -87 42.5t-97 16.5q-144 0 -224.5 -113t-80.5 -315z" />
<glyph unicode="1" horiz-adv-x="927" d="M119 1034q0 2 3.5 5.5t14 11.5t23.5 17t38.5 28t51.5 39q24 18 40.5 30.5t31.5 26.5t19.5 18t21.5 21l20 20q42 41 61 53.5t39 12.5q62 0 80.5 -5t18.5 -24v-14l-2 -19l2 -110q-4 -50 -4 -74q0 -11 3 -61.5t3 -53.5l-2 -88v-370q-2 -10 -2 -52q0 -36 4 -81l-4 -103 q-1 -49 6 -98.5t16 -65.5q12 -20 36.5 -29t78.5 -12q17 -1 22.5 -7t5.5 -21q0 -22 -17 -27.5t-83 -5.5q-13 0 -56 3t-57 3q-252 -14 -276 -14q-4 -2 -10 -2q-11 0 -20.5 8.5t-6.5 15.5l8 41q3 3 29 6q91 10 106 52.5t9 265.5q-2 78 -2 112l2 142l-2 33l2 116l-2 232l2 55 q2 43 -13 49q-26 -14 -28 -16q-51 -38 -156 -103q-8 -8 -16 -8q-5 0 -22 20t-17 27z" />
<glyph unicode="2" horiz-adv-x="927" d="M33 47q0 40 35 66q70 55 169.5 158.5t190.5 217.5q92 117 111.5 145.5t42.5 80.5q24 55 32.5 93.5t8.5 92.5q0 97 -64.5 164.5t-157.5 67.5q-70 0 -118.5 -29.5t-104.5 -106.5q-13 -16 -18 -16q-11 0 -30 16t-19 25q0 15 43 76.5t77 95.5q130 127 291 127q154 0 234 -74 q104 -96 104 -246q0 -106 -33.5 -190t-117.5 -188q-54 -66 -140.5 -152.5t-154.5 -142.5q-34 -26 -68.5 -59.5t-34.5 -39.5q0 -10 35 -10h53q14 -2 72 -2h147l87 -2h16q20 0 38 1t29 2t13 1q69 0 69 -20q0 -2 -20 -41l-21 -39q-11 -26 -53 -90q-19 -27 -47 -27l-55 2 q-16 1 -33 2t-26 1.5t-11 0.5h-86q-6 0 -18 1t-31 1h-137q-56 0 -189 -8q-31 -2 -63 -2q-28 0 -37.5 9.5t-9.5 37.5z" />
<glyph unicode="3" horiz-adv-x="927" d="M68 102q0 40 27.5 64t74.5 24q37 0 60.5 -10t60.5 -41q47 -41 106 -41q113 0 166 78t53 207q0 106 -86 195q-46 46 -73 57.5t-88 11.5q-34 0 -46 6.5t-12 26.5q0 19 5.5 25t25.5 12q23 8 64.5 33.5t76.5 54.5q99 83 99 164q0 69 -72 123q-66 47 -121 47 q-28 0 -50.5 -11.5t-53.5 -40.5q-16 -12 -19 -12q-10 0 -22.5 12t-12.5 21q0 13 27 52t57 69q51 50 99.5 71t109.5 21q104 0 185 -72q73 -67 73 -139q0 -42 -18.5 -95t-44.5 -83q-38 -47 -56.5 -66t-46.5 -39q-10 -10 -10 -12q0 -6 39 -22q53 -20 90 -56.5t74 -103.5 q56 -101 53 -166q-6 -104 -13.5 -131t-47.5 -86q-44 -63 -107 -118.5t-129 -90.5q-138 -72 -262 -72q-108 0 -171.5 36t-63.5 97z" />
<glyph unicode="4" horiz-adv-x="927" d="M51 508q0 13 19.5 44t85.5 122l200 276q11 10 60 82l96 135q14 25 68 99l20 28q11 19 24.5 26t39.5 7q57 0 57 -18l-2 -37q4 -16 4 -39q0 -8 -3 -52t-3 -57q0 -14 3 -65t3 -62t-3 -63.5t-3 -67.5q0 -12 2 -54t2 -50q0 -12 -2 -51t-2 -52q0 -8 3 -25t3 -20l-4 -34 q5 -12 9 -16.5t13 -4.5q5 0 13 2q92 0 107.5 -7.5t15.5 -51.5q0 -12 -2.5 -29t-2.5 -24l2 -43q0 -6 -6.5 -13t-13.5 -8q-8 -2 -43 -2q-32 0 -61 -2q-22 0 -27 -12.5t-4 -69.5q0 -16 2 -58t2 -61l2 -145q0 -35 -37 -35h-26q-10 2 -19 2q-46 -4 -106 -4q-22 0 -27.5 11 t-5.5 54q0 3 1 16t1 25l2 93q0 37 -4 65l2 47q1 52 -4 65t-27 13h-104q-16 -4 -170 -4l-29 2l-51 -2q-50 -3 -58 8q-10 10 -10 41l2 33zM195 584q0 -5 3 -10.5t7.5 -9.5t9.5 -5q20 -3 105.5 -2.5t117.5 2.5l33 4q7 -1 14 -4q10 0 16.5 7.5t6.5 19.5q0 21 1 79.5t1 96.5v20 q2 16 2 31q0 19 -2 39v90q0 17 -2 19l-2 24l2 27q-3 10 -4 12t-5.5 2t-21.5 -25q-15 -22 -123 -174q-16 -22 -30.5 -42.5t-27 -38.5t-15.5 -23l-33 -49q-53 -79 -53 -90z" />
<glyph unicode="5" horiz-adv-x="927" d="M43 86q0 43 31.5 73.5t75.5 30.5q27 0 48 -7t40.5 -23.5t42.5 -46.5q25 -33 46 -44.5t56 -11.5q116 0 188 93q39 52 54.5 98.5t15.5 113.5q0 131 -74.5 212t-199.5 81q-79 0 -156 -47q-13 -8 -21 -8q-6 0 -18 6l-16 8q-10 5 -15.5 9.5t-7.5 11t-2 16.5q0 24 19 135 q10 65 15.5 103.5t13.5 102t16 122.5q8 65 13.5 100t7 41t7.5 25l3 6t5.5 3t9.5 1h19h180q27 0 54 1t32 1l101 -2l30 2l78 -2h39q13 0 22 -4t9 -10q0 -9 -8 -23.5t-11 -23.5q-10 -25 -28 -60q-3 -8 -7 -15.5t-6.5 -12t-4 -8.5t-1.5 -5q-14 -29 -25 -37t-42 -8q-9 0 -99 1 t-157.5 0.5t-89.5 -3.5q-12 -2 -18.5 -5t-11 -9t-7.5 -18q0 -3 -10 -64q0 -6 -8.5 -58.5t-8.5 -56.5q0 -16 17 -16q10 0 39.5 2.5t54.5 5t26 2.5q203 0 344 -108q32 -26 55.5 -58.5t49.5 -87.5q23 -50 30 -83.5t7 -86.5q0 -106 -18 -157.5t-76 -114.5q-52 -56 -127 -104.5 t-146 -71.5q-142 -45 -229 -45q-113 0 -179.5 37.5t-66.5 101.5z" />
<glyph unicode="6" horiz-adv-x="927" d="M63 479q0 163 80 335t209 286q103 90 209 149q81 46 101.5 57t29.5 11q12 0 25.5 -15t13.5 -28q0 -6 -11 -15t-46 -32q-31 -20 -66.5 -49t-67 -60t-51.5 -57q-57 -73 -85.5 -131.5t-57.5 -155.5q-37 -136 -37 -178q0 -10 6 -10q5 0 9 3t22 21q108 105 219 105 q71 0 132 -30t104 -87q28 -37 45.5 -102.5t17.5 -130.5q0 -79 -23.5 -150t-66.5 -121q-27 -30 -68 -57.5t-102 -47.5t-123 -20q-208 0 -334 154q-46 58 -65 139.5t-19 216.5zM307 412q-3 -169 4 -213q9 -69 51 -113.5t99 -44.5q67 0 102.5 64t54.5 196q1 8 2 17.5t2 15 t1 8.5q0 51 -15.5 106.5t-40.5 90.5q-15 23 -47.5 41t-58.5 18q-67 0 -137 -94q-10 -14 -13 -29t-4 -63z" />
<glyph unicode="7" horiz-adv-x="927" d="M41 1087q0 12 8 23q12 24 19 51q28 78 32 90q6 25 16.5 33.5t33.5 7.5l118 -4h357q35 0 56 2t28 2l151 -4q13 0 21 -7.5t8 -18.5q0 -13 -22.5 -56.5t-53.5 -89.5q-18 -26 -70.5 -124.5t-74.5 -133.5q-39 -62 -58 -102q-37 -68 -109.5 -205t-129 -240t-111.5 -196 q-39 -67 -72 -129q-21 -43 -34 -43q-10 0 -23 8q-2 2 -35 12q-18 7 -31.5 20.5t-13.5 22.5q0 7 6 19l11 20q0 4 26 47q2 3 6.5 11.5t9.5 18t13.5 24.5t17.5 30l13 21q11 19 22.5 38.5t20.5 37l18 35t17 32.5t15 28.5t14 26t13 21.5q1 2 10 17.5t25 45t33 62.5l18 30 q20 31 65 114.5t50 90.5q24 41 90 156l25 51q3 8 11.5 25t8.5 24q3 30 -53 33h-3q-4 0 -9.5 -0.5t-12.5 -1t-17.5 -0.5h-20.5h-31q-56 0 -60 -2h-32q-12 0 -59.5 2t-59.5 2l-111 -4q-58 -1 -79 4.5t-21 21.5z" />
<glyph unicode="8" horiz-adv-x="927" d="M49 281q0 189 227 305q31 15 31 20q0 2 -33.5 32.5t-44.5 39.5q-65 51 -104 132.5t-39 164.5q0 139 125 258q100 90 272 90q65 0 131.5 -27.5t104.5 -70.5q94 -105 94 -211q0 -13 -7.5 -49t-12.5 -47q-32 -67 -69 -103.5t-101 -66.5q-29 -14 -29 -21q0 -5 37 -34 q5 -4 8.5 -7t10 -8t12.5 -10q75 -62 124.5 -159.5t49.5 -186.5q0 -139 -113 -252q-43 -43 -122 -72t-152 -29q-87 0 -152 20.5t-135 69.5q-49 35 -81 97.5t-32 124.5zM233 291q0 -47 11 -81.5t43 -86.5q22 -35 62 -55.5t89 -20.5q37 0 75.5 17.5t64.5 46.5q40 46 40 139 q0 103 -92 205q-26 29 -79 69.5t-64 40.5q-19 0 -58.5 -38t-56.5 -72q-12 -27 -23.5 -78.5t-11.5 -85.5zM289 1069q0 -55 47.5 -125.5t118.5 -120.5l32 -22q34 -23 39 -23q15 0 40 26t40 58q35 69 35 135q0 101 -48.5 174.5t-135.5 73.5q-79 0 -123 -53q-19 -25 -32 -60.5 t-13 -62.5z" />
<glyph unicode="9" horiz-adv-x="927" d="M57 926q0 151 119 282q52 55 126 85t159 30q93 0 182 -46t133 -118q35 -55 50.5 -90t23.5 -74q20 -110 20 -176q0 -2 -2 -23t-2 -28q-13 -128 -30.5 -193t-59.5 -153q-47 -100 -157 -216.5t-236 -193.5l-21 -10l-40 -27q-2 -1 -8.5 -4.5t-8.5 -5.5l-33 -18q-9 -6 -14 -6 q-9 0 -24 21t-15 32q0 8 7.5 15t33.5 24q24 14 76 57t72 66q55 58 78 89t55 93q71 134 86 317q0 3 -2 7t-4 4q-4 -3 -11 -11q-3 0 -16 -16q-37 -38 -97 -62t-120 -24q-62 0 -124.5 27t-105.5 73q-90 99 -90 273zM297 963q-3 -40 7.5 -96.5t27.5 -88.5q15 -29 26 -40.5 t37 -26.5q42 -23 76 -23q75 0 137 86q6 11 8 20.5t5 49.5q2 23 2 39v2t0.5 4.5t0.5 7t0.5 9.5t0.5 12v14q1 147 -45 227t-131 80q-40 0 -72 -24.5t-49 -67.5q-17 -44 -21 -67t-10 -117z" />
<glyph unicode=":" horiz-adv-x="436" d="M61 133q0 69 44.5 116.5t109.5 47.5q72 0 118 -43.5t46 -112.5q0 -38 -16.5 -73t-43.5 -56q-26 -20 -47 -26t-59 -6q-68 0 -110 42t-42 111zM61 725q0 69 44.5 116.5t109.5 47.5q72 0 118 -43.5t46 -112.5q0 -38 -16.5 -73t-43.5 -56q-26 -20 -47.5 -26.5t-58.5 -6.5 q-68 0 -110 42.5t-42 111.5z" />
<glyph unicode=";" horiz-adv-x="479" d="M61 137q0 58 42.5 97.5t105.5 39.5q97 0 153 -70.5t56 -191.5q0 -70 -30 -135t-85 -110q-51 -45 -107.5 -71t-101.5 -26q-12 0 -22.5 13t-10.5 28q0 8 8.5 12.5t45.5 16.5q75 25 116 68.5t41 97.5q0 37 -29.5 68.5t-76.5 43.5q-57 15 -81 41.5t-24 77.5zM84 725 q0 69 44.5 116.5t109.5 47.5q72 0 117.5 -43.5t45.5 -112.5q0 -38 -16.5 -73.5t-42.5 -55.5t-47.5 -26.5t-58.5 -6.5q-68 0 -110 42.5t-42 111.5z" />
<glyph unicode="&#x3c;" d="M82 725v16l858 543v-113l-557 -356l557 -377v-295z" />
<glyph unicode="=" d="M109 385q0 42 9.5 55t41.5 13l6 1q6 0 16 0.5t21 0.5h47l209 -4l49 2l108 -2l230 2q42 0 55.5 -8t13.5 -33q0 -18 -3.5 -48t-6.5 -36q-3 -9 -8 -12t-19.5 -4t-56.5 -1h-508l-135 2l-22 -2q-26 -3 -36.5 14t-10.5 60zM109 659q0 42 9.5 55t41.5 13l6 0.5t16 1t21 0.5h47 l209 -4l49 2l108 -2l230 2q29 0 43.5 -3.5t20 -12t5.5 -25.5q0 -18 -3.5 -48t-6.5 -36q-4 -12 -14.5 -14t-69.5 -2h-141q-63 0 -175.5 -1t-162.5 -1h-29q-23 0 -71.5 2t-63.5 2l-22 -2q-26 -3 -36.5 13.5t-10.5 59.5z" />
<glyph unicode="&#x3e;" d="M84 143v111l557 358l-557 375v297l858 -584v-14z" />
<glyph unicode="?" horiz-adv-x="755" d="M106 1253q0 62 44.5 99t119.5 37q41 0 87.5 -17t78.5 -43q48 -38 98.5 -100t79.5 -117q25 -47 42.5 -115.5t17.5 -115.5q0 -90 -18.5 -142.5t-59.5 -81.5q-42 -31 -79 -46t-99 -29q-48 -11 -62 -25q-6 -6 -12 -20.5t-6 -20.5l2 -53q-6 -41 -11.5 -49t-25.5 -8 q-25 0 -30 9t-13 58l-4 27l-12 149q0 5 -3 54t-3 57q2 14 22 24t78 23q100 25 145 57q80 55 80 127q0 64 -59 112t-137 48q-15 0 -70 -8t-70 -8q-46 0 -83.5 36.5t-37.5 81.5zM164 135q0 76 44 122t116 46q71 0 117 -44.5t46 -111.5q0 -75 -43 -121t-114 -46q-72 0 -119 44 t-47 111z" />
<glyph unicode="@" horiz-adv-x="1558" d="M51 283q0 430 326 682q255 198 608 198q232 0 375 -127.5t143 -333.5q0 -113 -43.5 -225t-118.5 -196q-51 -58 -126 -126t-113 -92q-12 -7 -24.5 -14t-18 -10.5t-6.5 -3.5q-29 -23 -69.5 -44.5t-63.5 -21.5q-40 0 -67.5 34t-27.5 83q0 68 15 111q18 74 18 75q0 2 -2 4 q-1 0 -2.5 -2t-5 -7t-6.5 -9q-6 -10 -54.5 -65.5t-68.5 -75.5q-65 -65 -139.5 -105.5t-128.5 -40.5q-58 0 -93.5 39.5t-35.5 104.5q0 56 13 103.5t52 133.5q15 34 68.5 108.5t93.5 117.5q244 253 485 253q8 0 10 -2h5q5 0 10 11q24 55 80 55q25 0 42 -9.5t17 -23.5 q0 -5 -38.5 -113.5t-57.5 -158.5q-7 -17 -15 -46t-18 -57l-12 -34q-23 -64 -42.5 -146t-19.5 -114q0 -13 7 -22t16 -9q22 0 70.5 30t95.5 72q172 155 172 434q0 167 -114.5 268t-303.5 101q-70 0 -131.5 -14t-169.5 -54q-94 -35 -181.5 -113t-140.5 -173l-51 -92 q-53 -95 -53 -279q0 -309 139 -436q120 -107 316 -107q79 0 162 17t245 67q24 8 35 8q18 0 29.5 -9t11.5 -23q0 -34 -90 -60l-94 -28q-66 -21 -84 -25l-41 -14q-34 -11 -104 -23t-99 -12q-43 0 -116.5 9t-104.5 18q-173 50 -269 196t-96 363zM498 207q0 -30 13 -47t36 -17 q49 0 149 90q41 38 103 116t80 112q3 6 13 29.5t28 58.5q44 86 47 121q0 10 -16 17t-40 7q-60 0 -134 -49t-142 -133q-43 -54 -55.5 -75.5t-44.5 -96.5q-37 -84 -37 -133z" />
<glyph unicode="A" horiz-adv-x="1411" d="M-16 33q0 28 9.5 34.5t49.5 6.5q66 0 107 64t112 272l41 114q50 129 62 174l34 99q62 162 68 188q2 8 4 15.5t3 11t1 4.5l29 71q13 45 49 160q2 6 4.5 16l4 16t1.5 7q4 23 22.5 40.5t80.5 62.5q1 1 5.5 3.5t11 7.5t11.5 9q33 23 37 23q7 0 12.5 -11t20.5 -49l338 -833 q14 -31 49 -119l68 -174q43 -112 73 -143t101 -37q17 -1 23.5 -7.5t6.5 -21.5q0 -25 -6.5 -35t-23.5 -10l-217 6q-82 2 -220 -4q-49 -4 -73 -4q-39 0 -49.5 6.5t-10.5 30.5q0 31 9 36.5t63 8.5q37 3 59.5 24.5t22.5 53.5q0 23 -32 108t-68 158q-11 23 -15 37 q-10 29 -17.5 38t-21.5 9h-14q-10 -2 -25 -2h-108q-16 -2 -33 -2q-76 4 -94 4q-2 0 -34 1t-60 1h-35q-12 0 -16.5 -5.5t-10.5 -25.5q-4 -8 -51 -145q-45 -134 -45 -172q0 -43 25 -59.5t112 -26.5q19 -3 26 -10.5t7 -26.5q0 -24 -9 -33t-30 -8q-13 1 -71.5 3.5t-103 4.5 t-48.5 2q-29 0 -98.5 -4t-92.5 -4q-19 0 -24.5 8t-5.5 33zM442 602q0 -3 2.5 -5t11 -3t23.5 -1.5t41 -0.5q18 0 154 -4q20 0 32 -1t15 -1q76 0 76 14q0 1 -11 23q-4 12 -10 26q-3 16 -8 21l-27 63q-13 31 -63 168l-10 29l-17 33l-26 69q-14 31 -19 31q-9 0 -20 -33 q0 -6 -11 -35q-17 -45 -24 -73q-6 -15 -6 -23l-21 -49q-82 -229 -82 -248z" />
<glyph unicode="B" horiz-adv-x="1247" d="M55 1329q0 25 12 31t60 6q2 0 7 -0.5t22.5 -1t48.5 -0.5h82l90 -2h20q24 0 136.5 3t132.5 3q215 0 331.5 -81t116.5 -230q0 -44 -21.5 -97.5t-50.5 -82.5q-29 -30 -98.5 -60t-144.5 -45l-21 -4v-8q139 -24 199 -44t113 -59q118 -86 118 -270q0 -129 -61 -213 q-64 -83 -164 -135q-91 -48 -252 -45l-162 2q-28 0 -80.5 2t-76.5 2h-68q-20 0 -107.5 -7t-123.5 -7q-31 0 -41.5 8t-10.5 31t8 30.5t33 10.5q28 3 41 4.5t30 8.5t23 10.5t14.5 20.5t10 29.5t4 45.5t2.5 59.5v81.5v59l-2 266q0 4 1 37.5t1 56.5v64v20.5t-0.5 17.5t-1 12.5 t-0.5 8.5v4l2 35l-2 76q0 5 1 28.5t1 45.5v26q0 69 -3.5 104t-18.5 58.5t-38.5 30.5t-70.5 10q-26 2 -33.5 9.5t-7.5 33.5zM475 586l4 -74q0 -11 -2 -25v-63q0 -64 2 -76v-18l-2 -60q-1 -22 11.5 -69t21.5 -58q20 -26 67.5 -45.5t90.5 -19.5q111 0 167.5 39t79.5 123 q7 22 14.5 65t6.5 53q-9 120 -14 131q-68 231 -336 222l-54 -2l-36 2q-21 0 -21 -29q0 -5 2 -25t2 -28q0 -19 -4 -43zM477 913q0 -4 2 -33.5t2 -37.5v-29q0 -31 19 -31q116 0 163.5 11t106.5 51q28 19 38.5 35.5t27.5 70.5q12 35 12 103q0 118 -60 178q-29 29 -75 47t-90 18 q-37 0 -74.5 -15t-52.5 -36q-14 -20 -18.5 -47.5t-0.5 -95.5l2 -31z" />
<glyph unicode="C" horiz-adv-x="1488" d="M61 682q0 152 57 282.5t165 227.5q136 124 295 172q118 37 292 37q123 0 246.5 -25.5t206.5 -68.5q22 -12 28 -21.5t9 -34.5q4 -50 16 -129q10 -97 10 -104q0 -27 -49 -27q-20 0 -37 43q-58 136 -169 207.5t-265 71.5q-44 0 -102 -14t-100 -35q-80 -40 -144.5 -113.5 t-101.5 -165.5q-34 -90 -48 -149.5t-14 -124.5q0 -27 6 -80q0 -8 5 -33q27 -249 198 -414q28 -26 94 -60t113 -46q79 -21 164 -21q63 0 119 15.5t131 54.5q33 17 55.5 48t99.5 161q11 18 23 18q20 0 41.5 -10.5t21.5 -19.5q0 -5 -4 -17l-12 -37l-8 -30q-35 -123 -37 -125 l-8 -39q-4 -21 -17 -29.5t-63 -23.5q-197 -58 -414 -58q-73 0 -169.5 14.5t-149.5 34.5q-138 48 -211 111q-63 52 -113.5 111.5t-75.5 109.5q-84 178 -84 336z" />
<glyph unicode="D" horiz-adv-x="1607" d="M53 16q0 13 8 33q3 11 9.5 14.5t29.5 4.5q45 3 77.5 24.5t41.5 54.5q12 37 12 228v375l-2 108l4 193q1 55 -6.5 117t-17.5 85q-6 15 -25.5 24.5t-42.5 8.5q-45 -2 -51 -2q-17 0 -22 6.5t-5 30.5q0 26 6.5 32.5t34.5 8.5q18 0 48 6q185 28 323 35l82 4l139 4 q165 4 321 -43.5t259 -130.5q60 -46 111.5 -107t80.5 -116q45 -85 64 -187q16 -104 16 -127q-12 -138 -12 -139q-19 -103 -58 -179.5t-108 -145.5q-104 -107 -293 -187q-57 -25 -155 -42t-181 -17q-185 10 -235 10q-274 0 -379 -10q-16 -2 -39 -2q-35 0 -35 28zM477 344 q0 -149 49 -192q35 -34 106 -55t148 -21q109 0 208 60.5t181 176.5q13 18 31 55t32 75t17 59q8 51 10.5 66t5.5 40t3 39.5v48.5q0 53 -14 143t-29 128q-27 73 -78.5 143.5t-106.5 112.5q-139 104 -321 104q-77 0 -121 -6.5t-71.5 -26.5t-36.5 -50.5t-9 -84.5v-106 q0 -27 1 -98.5t1 -108.5v-25q0 -12 -2 -73q0 -2 0.5 -15.5t1 -35.5t0.5 -44v-30l-4 -115l2 -68q0 -3 -2 -44t-2 -52z" />
<glyph unicode="E" horiz-adv-x="1239" d="M53 25q0 19 5 27t20.5 13t54.5 11q59 11 78 24.5t25 49.5q3 9 12 147q0 12 -2 47t-2 47l4 178q0 15 -2 53.5t-2 49.5l6 119q5 99 -8 387q-2 56 -9 73q-17 36 -81 39q-47 3 -63.5 11t-16.5 28l10 35q1 3 13.5 6.5t21.5 3.5q3 0 20.5 -2t30.5 -2l317 -4h35q20 2 37 2 l297 -6l59 2l52 -2l63 2q30 1 39 -4.5t12 -26.5v-149l2 -56q-5 -45 -10 -53t-29 -8q-28 0 -33.5 8t-11.5 55q-12 115 -92 136q-47 14 -233 14q-43 0 -70 -2t-48 -9t-31.5 -16.5t-17 -30t-8 -43t-1.5 -61.5q0 -12 -4 -78q-1 -14 2.5 -106.5t3.5 -118.5v-16q-2 -6 -2 -13 q0 -24 9 -29t58 -5q40 -3 74 -0.5t59.5 1.5t47 4.5t36.5 8.5t27 12.5t20.5 17.5t15.5 24t12 31t11 38q9 29 25 29q49 0 49 -41q0 -18 -5 -89.5t-5 -93.5l6 -176q0 -15 -8.5 -24t-22.5 -9l-35 7q-12 2 -12 47q1 44 -17.5 76.5t-49.5 41.5q-54 13 -181 13q-102 0 -108 -6 q-2 -2 -8 -103l2 -35l-4 -125l1 -6q1 -6 2 -16t1 -21l2 -88q3 -103 32.5 -142t106.5 -38l51 -4q20 -2 41 -2q20 0 63.5 3t98.5 3l46.5 1.5t36.5 9t31 16.5t32.5 35t39.5 51t53 78q14 22 21 22q5 0 14.5 -3.5t18.5 -4.5q39 -6 39 -25l-4 -12q0 -4 -7 -22q-16 -60 -36 -115 l-17 -53q-15 -49 -23.5 -61.5t-27.5 -12.5q-15 0 -25 2q-32 4 -616 4q-236 0 -328 -10q-16 -2 -41 -2q-45 0 -45 37z" />
<glyph unicode="F" horiz-adv-x="1234" d="M55 16q0 12 0.5 16.5t8.5 9.5t20 7.5t41 7.5q23 4 36.5 7t27.5 9.5t21 12.5t14 19.5t9.5 26.5t5 38t3 50t0.5 65v49l2 88q2 51 2 88l-4 203l2 98l-2 70q-1 27 0.5 52.5t1.5 47.5v29q0 5 -2 56.5t-2 68.5v36q0 69 -29.5 93.5t-116.5 29.5q-24 1 -32.5 7.5t-6.5 21.5 q3 31 8 38t25 7h51q9 0 80 -2t133 -2h56l206 2q5 0 33 -1t58 -1.5t83 0.5t109 4l41 2h119q20 2 39 2t26 -6t9.5 -23.5t1.5 -60.5l-3 -55q0 -7 2.5 -48t2.5 -55q0 -21 -0.5 -29.5t-5 -15t-11.5 -7.5t-22 -1q-24 0 -29.5 6t-11.5 39q-17 87 -43.5 119t-89.5 41q-92 12 -222 12 q-71 0 -108 -5.5t-55.5 -18.5t-30.5 -41q-4 -11 -6 -25.5t-2.5 -25.5t-1.5 -52q0 -24 -3.5 -65.5t-3.5 -63.5v-16q0 -181 5 -211q3 -9 17.5 -10.5t98.5 -1.5q1 0 24.5 -1t41.5 -1h59q39 0 64.5 1.5t49 4t37.5 9.5t26 15.5t20.5 23.5t15 32.5t13.5 44.5q5 24 28 24 q24 0 33 -7t8 -24l-2 -36q0 -7 -4 -61t-4 -60q0 -27 4 -91.5t4 -103.5q0 -12 -1 -17t-4.5 -8.5t-9 -4t-18.5 -0.5q-23 0 -28.5 7.5t-12.5 53.5q-4 19 -8 34t-9.5 26.5t-12 19.5t-15.5 14.5t-20 10t-25 6.5q-17 3 -70.5 6.5t-80.5 3.5l-72 -2q-8 0 -43.5 2t-42.5 2 q-49 -1 -57 -4.5t-6 -22.5l2 -35v-30q0 -12 -1 -27t-1 -27l2 -96l-2 -86q-3 -76 -0.5 -121.5t5 -59t9.5 -32.5q23 -59 104 -65q46 -3 59.5 -9.5t12.5 -25.5q-2 -24 -10 -32.5t-29 -8.5q-33 0 -117.5 3t-117.5 3q-84 0 -123 -2.5t-156 -15.5q-40 -5 -43 -5q-19 0 -25 7.5 t-6 31.5z" />
<glyph unicode="G" horiz-adv-x="1599" d="M61 686q0 124 91 307q20 41 77.5 115.5t92.5 105.5q46 39 123.5 81.5t150.5 68.5q101 37 240 37q149 0 281.5 -25.5t217.5 -77.5q25 -14 31 -23.5t6 -35.5q1 -15 4 -35.5t5.5 -59.5t2.5 -108v-6q0 -15 -10 -19.5t-43 -4.5q-12 0 -18 8t-19 45q-45 124 -149 182 q-126 72 -268 72q-63 0 -125 -16t-103 -42q-84 -52 -106.5 -72.5t-83.5 -95.5q-25 -33 -43 -69t-45 -111q-25 -74 -25 -176q0 -151 26 -250t91 -196q47 -71 88 -107.5t113 -71.5q59 -30 102.5 -40.5t105.5 -10.5q67 0 129.5 20t100.5 54q69 58 69 184t-37 165.5t-155 39.5 h-16q-31 0 -39.5 6.5t-8.5 32.5q0 23 13.5 30t58.5 7q4 0 18 -1t50.5 -2t95.5 -1h68q5 0 84 3t170 3h22q25 0 34 -7.5t9 -27.5q0 -27 -7.5 -33.5t-43.5 -9.5q-26 -2 -41 -7.5t-26.5 -17t-16 -38t-6.5 -60.5t-2 -94q0 -13 2 -55.5t2 -63.5q0 -12 1 -24l1 -13l2 -22v-14 q0 -17 -14 -28t-56 -26q-9 -3 -73 -28q-65 -26 -171 -44t-198 -18q-204 0 -307 35q-176 57 -262 129q-92 78 -124 116.5t-71 121.5q-66 141 -66 319z" />
<glyph unicode="H" horiz-adv-x="1742" d="M53 33q0 11 1.5 18t6.5 11.5t12.5 6t20.5 1.5q25 0 60.5 9t44.5 17q13 12 21.5 42.5t10.5 66.5q2 89 4 200.5t3.5 179.5t1.5 109q0 19 -2 61t-2 50l4 209q1 81 -6.5 147t-18.5 86q-23 45 -127 51q-20 2 -27.5 9t-7.5 26q0 27 10 37q16 8 101 8q1 0 6 -0.5t15.5 -1.5 t21.5 -2q80 -8 170 -8q111 6 166 6h45q68 0 82 -3.5t14 -22.5q0 -23 -6.5 -38.5t-15.5 -15.5l-31 2q-54 -3 -65.5 -5t-24.5 -11q-23 -13 -31 -37.5t-10 -75.5l-4 -202l2 -101q0 -11 -2 -25t-2 -20q0 -18 5.5 -21t35.5 -5q6 0 12 -0.5t24 -1t47 -1.5q8 0 115 -1t164 -1 q17 0 33 0.5t25.5 1t11.5 0.5q9 0 51 -3t59 -3q19 0 49.5 3t38.5 3l58 -2q15 2 22 9q4 4 10 141l-2 47q-2 12 -2 154q1 36 -0.5 57t-7 39.5t-14 27.5t-26.5 16.5t-39.5 10.5t-57.5 6q-12 1 -20.5 5t-12 10t-2.5 14l6 41q7 11 90 8l291 -8q33 -1 67 1t56.5 4.5t24.5 2.5 q56 0 70 -6t14 -31q0 -29 -10 -35t-58 -6q-64 -2 -88 -27t-25 -96l-6 -305v-137l-4 -156v-35v-26t1 -19.5t1.5 -13.5t1 -8.5t1 -5.5t1 -3.5t0.5 -2.5l-4 -168q1 -36 -0.5 -57t1 -41.5t2.5 -29t4 -19.5t4.5 -13.5t5.5 -10t6 -9.5q13 -20 34 -27t95 -16q35 -3 35 -31 q0 -22 -10 -34.5t-27 -12.5q-43 2 -66 2q-2 0 -21.5 1t-57.5 3t-72 4l-25 -2q-75 -6 -130 -7.5t-83 -0.5t-35 0q-50 -4 -57 -4q-22 0 -30.5 8.5t-8.5 30.5q0 25 10 33.5t39 7.5q22 -1 51.5 5t42.5 15q15 9 28.5 41t12.5 59l-4 129q0 12 5 63t5 62q0 14 -4 61t-4 54l2 88 q-3 21 -4.5 25.5t-5.5 5.5q-12 4 -104 4l-19 -2t-20 -2l-111 6l-76 -2l-22 2l-117 -2l-76 2q-12 0 -44 -2t-56 -2q-15 0 -39 2t-33 2q-21 0 -24 -12l-2 -160l2 -86q0 -3 -3 -50t-3 -61q0 -9 1.5 -34.5t3 -50t1.5 -31.5q-2 -45 12 -70.5t47 -37.5t92 -13q31 -3 31 -21 q0 -12 -4.5 -31t-7.5 -22q-20 -8 -72 -8q-24 0 -53 2q-16 1 -89 4.5t-94 3.5q-14 0 -116 -4t-111 -4q-10 -1 -19.5 -2t-14.5 -1.5t-7 -0.5q-17 0 -28 12t-11 31z" />
<glyph unicode="I" horiz-adv-x="735" d="M55 27q0 34 19 43q8 2 57 4q46 2 69.5 15.5t30.5 43.5q1 4 3.5 12t3.5 12t3 15.5t3 23t1.5 32t0.5 46t-1 63t-3 83.5l-2 53l2 162l-2 43l4 203l-2 106v94q0 17 1 37l1 21q0 48 -5 74.5t-22.5 44t-45 24t-77.5 8.5q-19 2 -26 10t-7 29q0 23 10 32t35 9q33 0 125.5 -5 t128.5 -5q13 0 79.5 6t164.5 6h25q31 0 42 -6.5t11 -26.5q0 -3 -4 -19.5t-6 -19.5q-2 -4 -33 -8q-58 -1 -88.5 -17.5t-42.5 -51.5q-12 -43 -12 -222q0 -48 2 -175.5t2 -137.5l-2 -242v-167q-2 -23 -2 -43q0 -90 24 -123.5t94 -40.5q45 -5 54.5 -9.5t9.5 -23.5q0 -28 -8 -40 t-27 -11l-35 2q-54 3 -123.5 3t-177.5 -1.5t-186 -1.5h-17q-29 0 -39 7.5t-10 29.5z" />
<glyph unicode="J" horiz-adv-x="747" d="M-111 -313q0 46 34 78t81 32q35 0 64.5 -27t48.5 -77q18 -53 61 -53q33 0 52 37.5t20 107.5q2 66 3.5 152.5t2.5 107.5l4 186q0 22 -3 93t-3 84q0 38 6 106l-2 244q2 17 2 37q4 78 4 90l-2 133q0 31 2 63t2 47q0 91 -28.5 125.5t-106.5 40.5q-41 3 -49.5 7.5t-15.5 27.5 q4 8 4 19q6 26 57 26q8 0 18 -2l230 -14q4 0 11.5 0.5l22.5 1.5t27 2l56 4q31 2 57 2q12 1 23 2t16 1.5t6 0.5q75 -6 87.5 -11.5t12.5 -31.5q0 -19 -8 -30t-20 -9l-56 4q-6 0 -33.5 -12t-33.5 -18q-25 -28 -25 -138q0 -65 -2 -104q-1 -4 -1 -22.5v-60.5t-1 -83l-4 -389 l2 -31l-4 -219l2 -94q1 -76 -19 -176t-47 -160q-52 -115 -155.5 -187.5t-214.5 -72.5q-73 0 -129 48.5t-56 111.5z" />
<glyph unicode="K" horiz-adv-x="1437" d="M53 25q0 26 9 37t32 12t45 6t39 13t27 18q12 14 20 45t8 67q0 10 -2 41t-2 39q0 34 2 76t2 147q0 6 2.5 52.5t2.5 87.5v249l2 172q-4 53 -4 101q3 116 -109 119q-21 0 -33 1t-20 5t-10.5 10t-2.5 16q0 3 5.5 20.5t7.5 18.5q3 4 14 7.5t21 3.5q23 0 108.5 -7.5t112.5 -7.5 q20 0 74 2t75 2q40 0 86 3t68 3q6 0 17.5 -3t11.5 -5q3 -12 5.5 -23.5t3.5 -16t1 -5.5q0 -19 -11 -24.5t-55 -6.5q-69 -3 -88 -34q-6 -9 -15.5 -52.5t-8.5 -58.5l4 -53l-2 -64l2 -96q0 -6 -2 -28.5t-2 -26.5q0 -8 2 -35.5t2 -36.5q0 -4 -2 -18.5t-2 -16.5q0 -6 1 -7.5 t7 -6.5q2 0 2 2q4 2 10 6q4 0 16 12l23 21q66 56 154.5 141t136.5 139q53 57 83.5 103t30.5 67q0 18 -21 27t-71 14q-43 3 -54 8.5t-11 24.5q0 47 35 47q36 0 176 -8q35 2 80.5 4.5t73.5 4t30 1.5q17 0 37 -2h41q39 0 39 -30q0 -4 -3 -19t-5 -18q-6 -8 -19.5 -10.5 t-77.5 -6.5q-43 -3 -60 -10.5t-50 -40.5l-21 -20q-102 -101 -172 -181l-63 -65q-51 -51 -51 -57q10 -21 45 -76l79 -127q24 -43 82 -128t80 -122q2 -4 5.5 -9t5.5 -8t2 -4q22 -31 58 -87.5t50 -77.5q91 -139 127 -171t107 -36q21 -2 28.5 -10t7.5 -31q0 -22 -8 -31.5 t-28 -9.5q-2 0 -7.5 0.5t-16 1.5t-19.5 2h-56q-11 0 -85.5 3t-92.5 3q-12 0 -98.5 -4t-118.5 -4q-25 0 -49.5 -3t-38.5 -3t-23.5 12.5t-9.5 32.5q0 13 2 22t7 14.5t13 8t21 2.5q46 -1 75.5 7.5t29.5 23.5q0 9 -18 43.5t-40 66.5q-27 43 -92 158q-18 32 -56 89.5t-42 63.5 q-35 66 -72 117q-3 4 -11 17.5t-12.5 21t-11.5 17t-12 14t-8 4.5q-5 0 -49 -36.5t-47 -43.5q-5 -8 -6 -44t-1 -181v-25l-2 -53q0 -1 1 -8.5t2 -19.5t1 -25l3 -94q2 -63 30 -87.5t103 -25.5q25 0 33 -8t8 -31q0 -25 -9.5 -36t-31.5 -11q-8 0 -36.5 2t-49.5 2q-19 0 -82.5 2 t-87.5 2q-26 0 -153.5 -8t-133.5 -8q-29 0 -29 39z" />
<glyph unicode="L" horiz-adv-x="1163" d="M55 1346q0 26 12.5 30t90.5 4q19 0 101 -4t108 -4q154 8 229 8q58 0 70 -5.5t12 -33.5q0 -27 -9 -33t-51 -8q-71 -2 -97 -37t-23 -124q0 -11 -2.5 -42t-1.5 -71l4 -178q2 -74 -2 -146q-2 -16 -2 -28l4 -146q2 -65 -2 -133q0 -12 -1 -25l-1 -12q6 -144 10 -165 q12 -45 40.5 -69t86.5 -34q48 -10 125 -10q74 0 138.5 12t86.5 31q19 15 61.5 68.5t49.5 72.5q15 32 22.5 41.5t18.5 9.5q20 0 39.5 -9.5t19.5 -18.5q0 -3 -23 -97l-22 -96q-15 -71 -23.5 -86.5t-31.5 -15.5q-29 0 -94.5 4t-149.5 4h-92q-155 0 -459 -12q-87 -4 -88 -4 l-76 -2q-16 -2 -33 -2q-24 3 -31.5 7t-7.5 13v14q-3 22 7.5 33t37.5 12q90 3 111 52q21 57 21 116l4 228q3 83 -2 233q0 8 -1 75.5t-1 127.5q0 3 0.5 22.5t1 51.5t0.5 65v29q0 44 -8 109.5t-15 82.5q-10 26 -37.5 37.5t-89.5 16.5q-26 2 -30.5 7t-4.5 34z" />
<glyph unicode="M" horiz-adv-x="1808" d="M33 16q0 7 2 13v10q0 27 5.5 33.5t31.5 7.5q33 2 52.5 5.5t37 13.5t26 23t16 40.5t11 60t6.5 86.5q2 36 5.5 117.5t4.5 108.5q0 9 1.5 34t3.5 71t4 93l2 45l2 142q2 14 2 30l6 78l4 86q0 9 0.5 17.5t1 14.5t0.5 7q0 33 -13.5 66.5t-33.5 48.5q-12 9 -26.5 15.5t-37 11 t-57.5 8.5q-22 2 -30.5 10.5t-8.5 29.5q0 22 10.5 33t30.5 10l88 -4l62 -4q14 0 30 2l66 2q11 0 30 1t46 1q49 1 66.5 -1.5t24.5 -9.5t15 -30l27 -55q21 -49 39 -92q16 -37 35 -83.5t35.5 -84.5t39.5 -80l15 -26q5 -13 14.5 -38t15.5 -40.5t15 -37t18 -38.5l17 -33l40 -100 q0 -7 52 -117q13 -32 22 -53l4 -6q2 0 4 -2q0 1 2 2t3 2q18 27 30 57q157 372 166 393q49 106 66 154q26 61 47 102q47 104 69 172q8 24 15.5 30.5t27.5 6.5l189 -4q6 0 32.5 2t30.5 2t31.5 -2t32.5 -2l80 2q20 0 27 -9t7 -34q0 -21 -7 -28.5t-31 -8.5q-32 -2 -46 -2.5 t-33.5 -6.5t-25.5 -9.5t-16 -19.5t-11.5 -28t-4.5 -43.5t-3 -58v-79.5q0 -6 0.5 -19t1 -28.5t1 -33t1 -34t1 -29.5t0.5 -21l1 -8v-485l-4 -88q-1 -17 7 -77t14 -83q15 -61 129 -73q35 -3 35 -19q0 -2 -4 -18l4 -27q1 -6 -7.5 -11t-19.5 -5q-10 0 -18 2q-23 0 -56 2 q-8 0 -77 5t-89 5q-37 0 -162.5 -7t-154.5 -7q-35 0 -35 22q3 42 7.5 49t27.5 7q103 0 133 38q31 31 31 183q0 12 -2 49t-2 43l2 59l-4 258v244q0 14 0.5 26.5t1 20t0.5 8.5t-0.5 10l-1.5 27t-2 37l-2 43q-3 45 -13 45q-3 0 -20 -39l-17 -33q-328 -747 -421 -1067 q-6 -22 -17 -35.5t-22 -11.5q-26 5 -32 8.5t-15 22.5q-1 2 -2 6t-5.5 21t-13.5 47q-18 62 -34.5 107t-67.5 171q-48 122 -72 174.5t-55 133.5q-30 81 -58 139l-86 196q-33 80 -43 80q-4 0 -10 -141l-12 -266q-4 -88 -8 -287q0 -1 -1 -4.5t-2 -10.5l-2 -14q-4 -78 -5 -84 q0 -85 11.5 -122t41.5 -52t100 -20q19 -2 22.5 -5t6.5 -22l4 -24q0 -15 -11 -24t-30 -9q-16 0 -52.5 4t-62.5 4q-37 2 -68 2q-16 2 -32 2q-6 0 -125 -6q-37 -6 -51 -6q-13 0 -24 7.5t-11 16.5z" />
<glyph unicode="N" horiz-adv-x="1736" d="M53 1331q0 21 8.5 34t22.5 13q12 0 20 -2l175 -6l43 -2q33 0 43 -2h20q20 0 60.5 2t58.5 2q26 0 40.5 -11.5t57.5 -64.5q42 -51 66 -75l116 -142q16 -16 99 -116q24 -28 42.5 -49t41 -45.5t39.5 -43.5q45 -49 111 -127.5t77 -91.5l117 -133l45 -59q19 -27 28 -27 q4 0 7.5 4.5t5.5 11.5t2 15q0 31 -2 49l-2 315l4 322q1 104 -29 147t-104 43q-29 0 -42.5 8t-13.5 27t11.5 30.5t29.5 10.5l244 -10q26 -1 46 -1t31 0.5t19.5 1.5t11 1.5t5.5 2t4 1.5l16 2q33 -2 46 -5.5t18.5 -10.5t5.5 -23q0 -25 -11.5 -32.5t-58.5 -10.5 q-48 -4 -71 -17.5t-33.5 -46t-12.5 -98.5l-2 -84l-2 -30q-1 -10 -1 -20.5v-24v-54t-1 -94.5l-2 -207l4 -178q0 -4 -1.5 -36t-3 -68.5t-1.5 -51.5q0 -12 10 -231l-2 -37q0 -6 2 -15.5t2 -13.5q0 -14 -11 -18t-46 -4q-31 3 -38 6.5t-21 22.5q-4 8 -39 43q-60 60 -103 110 q-77 88 -94 105l-88 104q-33 42 -172 199l-90 106q-100 126 -145 174l-183 201l-26 33q-24 28 -31 28q-6 0 -10 -8t-4 -20q0 -13 2 -47t2 -45v-5q-1 -6 -1.5 -16t-0.5 -20l-4 -154q0 -1 1 -31t2 -65t1 -47q0 -83 -4 -215t-4 -160q0 -36 2 -59.5t8.5 -43t16.5 -30.5t29 -19.5 t42.5 -12.5t60.5 -7q25 -3 33 -11.5t8 -31.5q0 -28 -10 -39.5t-35 -11.5q-12 0 -70 6t-77 6l-262 -6q-58 0 -58 47q0 25 12 34t41 7q50 -2 87.5 18t44.5 52q4 15 9 63.5t5 75.5q2 113 2 127q2 12 2 164q0 19 1 36t1 33q2 336 -8 477q-3 56 -18.5 84.5t-51.5 47.5 q-56 30 -123 30q-25 0 -35 9t-10 32z" />
<glyph unicode="O" horiz-adv-x="1656" d="M59 666q0 201 107 381q21 36 84 104t100 96q206 152 469 152q95 0 197 -21t168 -53q89 -44 171 -117t128 -149q114 -191 114 -357q0 -190 -108 -358q-46 -72 -154 -174q-94 -90 -245.5 -146.5t-298.5 -56.5q-146 0 -291.5 65t-247.5 173q-63 70 -94 117.5t-62 130.5 q-37 95 -37 213zM338 766q0 -86 7 -142.5t30 -142.5q43 -169 162 -288q134 -134 313 -134q111 0 194 50q94 54 139.5 102.5t90.5 146.5q20 40 32.5 109.5t12.5 132.5q0 136 -31 274q-14 64 -42 126.5t-71 119t-95.5 99.5t-120 68.5t-140.5 25.5q-103 0 -196.5 -41 t-159.5 -115q-80 -90 -105 -225q-20 -120 -20 -166z" />
<glyph unicode="P" horiz-adv-x="1163" d="M55 23q0 24 8.5 31t36.5 7q46 -2 81 18.5t42 53.5q10 44 10 232v45q0 19 -0.5 37t-1 29.5t-0.5 12.5q5 107 5 228q0 16 -3.5 90.5t-3.5 99.5q0 14 2 67.5t2 65.5q0 151 -18 203q-9 23 -31 29t-98 6q-17 0 -23 6t-6 23q0 31 8 39t37 8q5 1 30 5t48 7.5t63 7.5t81 6l163 9 q52 2 92.5 2t63.5 -0.5t52.5 -5.5t40 -7.5t46.5 -11.5q133 -33 189 -76q69 -52 94 -81.5t47 -82.5q21 -49 27 -78t6 -73q0 -58 -16.5 -117.5t-43.5 -95.5q-36 -46 -100 -91.5t-119 -62.5q-83 -24 -196 -24q-53 0 -65.5 5.5t-12.5 28.5q0 34 7.5 43t35.5 9q54 -1 105.5 21.5 t76.5 58.5q20 31 32.5 90.5t12.5 126.5t-23 148t-51 112q-75 78 -172 78q-76 0 -106 -41q-23 -29 -23 -138v-118l-2 -99q0 -20 2 -66t2 -61l-2 -112l2 -299v-77t2.5 -61t3 -49.5t6 -35.5t8.5 -28t14.5 -18t18.5 -13.5t25.5 -6.5t31.5 -6t40 -4q23 -1 29 -7.5t6 -27.5 q0 -29 -7 -38t-30 -9q-15 0 -55 4q-94 6 -152 6q-175 0 -334 -18h-14q-15 0 -21 8.5t-6 32.5z" />
<glyph unicode="Q" horiz-adv-x="1656" d="M59 666q0 198 107 381q21 36 83 103t101 97q106 78 219 115t250 37q199 0 355 -74.5t258 -196.5q74 -90 118.5 -207t44.5 -219q0 -104 -38 -215.5t-101 -187.5q-42 -53 -100.5 -108t-100.5 -82q-39 -26 -105.5 -58.5t-92.5 -38.5q-23 -4 -31 -9.5t-8 -16.5 q0 -37 50.5 -119.5t96.5 -120.5q29 -25 74 -48t82 -32q21 -5 133 -22q19 -3 19 -17v-18q0 -25 -15 -30t-84 -5q-162 0 -298.5 51t-215.5 146q-15 17 -45 64t-41 69q-22 42 -31.5 51.5t-42.5 17.5l-79 15q-72 12 -158.5 57t-161.5 109q-105 86 -173.5 223t-68.5 289zM338 764 q0 -179 52 -329t147 -245q133 -133 311 -133q111 0 196 49q94 55 139 104t89 146q20 42 32.5 110.5t12.5 131.5q0 136 -31 274q-22 102 -78.5 194.5t-134.5 154.5q-119 92 -256 92q-101 0 -193.5 -41t-160.5 -115q-80 -90 -105 -225q-20 -120 -20 -168z" />
<glyph unicode="R" horiz-adv-x="1449" d="M55 16q0 26 7 33.5t30 7.5q42 -1 80.5 15t50.5 39q19 36 19 174q0 25 -4 77l4 213q0 35 2 73.5t2 64.5q0 15 -4 74t-4 73q0 6 1 24t2 37t2 39t1 29q0 175 -15 244q-4 19 -12 30.5t-24.5 18.5t-40.5 9.5t-64 2.5q-13 0 -20 2.5t-10 8.5t-3 16q0 14 5.5 32t9.5 19 q19 6 63 4l258 -8q22 0 129 5t142 5q80 0 140 -7.5t106.5 -24t82.5 -43.5q74 -54 113 -119.5t39 -134.5q0 -64 -20.5 -107t-73.5 -90q-28 -25 -70 -45.5t-119 -46.5q-12 -4 -12 -8q0 -2 2 -2q0 -1 6 -7q1 -2 4.5 -4.5t9.5 -7.5t11 -10q45 -41 98.5 -116t136.5 -214 q43 -71 71 -115.5t56 -82.5t47 -58t43 -35t45 -21.5t52 -10.5q22 -3 28 -8.5t6 -22.5q0 -9 -1 -15.5t-3.5 -11.5t-6 -8t-9.5 -5t-14 -2.5t-19 -0.5h-18q-1 0 -13.5 0.5t-28 1.5t-32 1.5t-25.5 0.5l-61 2h-19q-25 0 -118 -8q-28 0 -75.5 62.5t-133.5 213.5q0 1 -41 76 q-51 98 -76 139.5t-88 134.5q-47 72 -123 72q-60 0 -63 -8v-9q-1 -9 -2 -29.5t-2 -43.5q0 -7 2 -37t2 -41q0 -8 -2 -41.5t-2 -46.5l2 -86l-2 -57q-1 -27 -0.5 -36.5t1.5 -16.5t1 -11q0 -101 25.5 -130.5t117.5 -33.5q21 -2 27 -8.5t6 -27.5q0 -22 -7.5 -29.5t-27.5 -7.5 q-93 0 -201 10q-14 2 -31 2q-22 0 -258 -18q-54 -4 -57 -4q-19 0 -26 7.5t-7 28.5zM489 889q0 -6 3 -43l2 -41q2 -20 4 -27.5t8 -7.5l39 2h4q4 -1 8.5 -2t9 -1.5t6.5 -0.5q50 0 112.5 16t92.5 37q40 28 68 89.5t28 121.5q0 49 -21 107t-50 92q-16 17 -46.5 33t-65 26 t-62.5 10q-27 0 -63.5 -10t-49.5 -22q-11 -9 -18 -36t-6 -52l2 -43l-2 -123l2 -76q0 -3 -2.5 -25t-2.5 -24z" />
<glyph unicode="S" horiz-adv-x="1089" d="M109 283q0 15 9.5 20.5t35.5 5.5q24 0 32 -6t17 -31q35 -109 116 -167t203 -58q85 0 174 66q78 59 78 178q0 155 -252 262q-18 7 -89.5 43.5t-84.5 44.5q-75 47 -109.5 76t-62.5 69q-59 85 -59 203q0 133 57 221q57 89 165 140t243 51q104 0 225 -51q58 -25 73 -36.5 t15 -31.5v-37q0 -30 4 -166q0 -19 -6 -23.5t-31 -4.5q-30 0 -36 3.5t-9 24.5q-6 36 -30 82t-54 78q-69 78 -180 78q-106 0 -172 -60t-66 -157q0 -96 103 -176q41 -33 231 -125q7 -2 86 -45q8 -7 25 -15q65 -37 99 -65.5t63 -71.5q57 -86 57 -215q0 -108 -70 -223 q-13 -23 -47.5 -59t-58.5 -54q-27 -20 -79 -41.5t-89 -29.5q-87 -15 -189 -15q-108 0 -225 43q-65 25 -79 35t-15 33q-2 21 -2 39l-6 67q-4 51 -6 58q-4 36 -4 43z" />
<glyph unicode="T" horiz-adv-x="1280" d="M18 1114q5 26 14 73.5t11 59.5l12 84l13 99q3 22 8 29t20 7q14 0 39 -6q10 -2 15 -5.5t14 -16.5q26 -37 57.5 -51t89.5 -13l74 2l162 -4q2 0 50 2t58 2l185 -6h37q14 2 86 2q62 0 109.5 9t78 26t41.5 41q9 18 14.5 22.5t18.5 4.5q57 0 57 -21q0 -8 -2 -14 q-6 -50 -22 -158t-21 -135q0 -26 -8 -37.5t-25 -11.5q-25 0 -40 8.5t-15 23.5l2 62q0 19 -13 37.5t-28 23.5q-20 7 -67.5 14t-79.5 7h-105q-63 0 -65 -2q-4 -1 -7.5 -13t-3.5 -26q0 -7 3 -26t3 -25l-4 -260l2 -48l-4 -266q-2 -18 -2 -39q0 -13 2 -56.5t2 -59.5q0 -31 -2 -54 v-32q0 -52 1 -87t3 -57t3 -30.5t5 -22t5 -16.5q8 -30 20 -44t39 -24q50 -18 80 -18q11 0 18 -1.5t11.5 -6t6 -12t1.5 -19.5q0 -23 -9 -32t-32 -9q-28 0 -119.5 7t-120.5 7q-32 0 -88 -6l-110 -8q-68 -6 -82 -6q-10 -2 -23 -2q-57 0 -57 26q0 17 3.5 33.5t8.5 19.5t68 9 q60 6 82 34t24 95q0 31 6 223.5t6 206.5l-2 112l2 115l-2 31l5 147q0 3 -3.5 57.5t-3.5 69.5q0 21 3.5 48.5t3.5 39.5q0 17 -7 22t-30 5q-214 0 -256 -10q-29 -7 -63.5 -45.5t-67.5 -98.5q-18 -37 -37 -37q-6 0 -27 7t-24 10q-5 5 -5 14z" />
<glyph unicode="U" horiz-adv-x="1611" d="M41 1329q0 22 7.5 30.5t27.5 8.5q29 0 126.5 -4t131.5 -4h2q38 10 227 10h21q30 0 42.5 -0.5t21.5 -4.5t10 -9t1 -17q0 -27 -7 -34t-34 -9q-35 -2 -56.5 -6t-39 -15.5t-26 -26.5t-14.5 -45.5t-7.5 -65.5t-1.5 -93v-30l-2 -105v-43q0 -12 1 -42t1 -50v-31q0 -69 4 -327 q1 -95 20 -145t70 -97q44 -40 121.5 -66t151.5 -26q82 0 160 20t124 52q31 22 51 37.5t40 38.5t31 45t21.5 57.5t14.5 74.5t7 98t2.5 126.5t-3.5 161.5l-2 69q-1 50 -1.5 91t-0.5 56t-1 31.5t-3 36.5q-1 11 -1.5 22.5t-1 18.5t-1 13.5t-0.5 9.5q-1 35 -3 55t-7.5 38.5 t-13.5 27.5t-24.5 16.5t-35.5 11t-51 6.5q-29 3 -37.5 8.5t-7.5 22.5q2 29 6.5 35t27.5 6q126 -8 168 -8q20 0 117 6t121 6q20 0 27.5 -7.5t7.5 -27.5q0 -14 -2 -22t-7 -13t-14 -7t-24 -3q-33 -2 -53 -5t-37 -11.5t-24.5 -19.5t-13 -33.5t-7 -48.5t-1.5 -70q0 -3 -1 -20 t-2 -44.5t-1 -58.5v-31q0 -13 2.5 -66.5t1.5 -56.5l-2 -118v-29q0 -42 1.5 -81.5t0.5 -41.5q0 -82 -5 -142t-16 -105.5t-30 -80.5q-48 -93 -98 -136.5t-166 -90.5q-130 -55 -274 -55q-88 0 -152.5 11.5t-154.5 43.5q-88 32 -137.5 70.5t-90.5 107.5q-26 46 -36.5 98 t-10.5 140q0 40 2 100.5t2 124.5q0 21 1 61.5t1 59.5v100l2 76v70l2 100q3 124 -34 156q-22 20 -119 30q-20 2 -26.5 8t-6.5 25z" />
<glyph unicode="V" horiz-adv-x="1439" d="M-6 1327q0 45 24 45q17 0 27 -2q31 -3 114.5 -6.5t125.5 -3.5q109 0 258 10q12 2 32 2q36 0 48 -6.5t12 -26.5q0 -19 -3 -28t-11.5 -12t-26.5 -3q-57 1 -92 -15t-35 -44q0 -20 41 -128t88 -212q12 -26 24.5 -59t24.5 -62q9 -22 37 -87.5t43 -104.5l82 -209q9 -35 24 -35 q11 0 23 25l20 51l21 47q62 151 76 201q5 5 49 112q6 14 17.5 45.5t27.5 78t29 79.5q75 194 75 238q0 32 -30.5 48.5t-98.5 22.5q-24 1 -33.5 9.5t-9.5 27.5q0 25 7.5 34t27.5 9q6 0 93 -4t118 -4q7 0 70.5 4t95.5 4q16 0 23.5 -3t10.5 -11.5t3 -26.5q0 -24 -6.5 -30.5 t-32.5 -6.5q-35 -2 -66.5 -28.5t-44.5 -67.5l-28 -64q-124 -301 -183 -454l-20 -53q-10 -24 -39.5 -93t-46.5 -112q-10 -23 -30 -73t-34.5 -85.5t-29.5 -66.5l-8 -27q-10 -34 -22.5 -67t-25.5 -64.5t-18 -44.5q-6 -24 -15.5 -32t-29.5 -7l-41 2q-17 1 -24 8t-13 29 q-3 11 -6 19.5t-6.5 15.5t-11.5 25.5t-17 41.5q-9 24 -39 92l-57 142q-27 71 -66 157q-32 72 -60.5 151t-51.5 130q-15 32 -39 92l-10 29q0 10 -37 82l-31 73q-68 165 -100.5 205.5t-104.5 44.5q-35 2 -46 8.5t-11 28.5z" />
<glyph unicode="W" horiz-adv-x="1900" d="M-6 1323q0 25 8.5 35t28.5 10q1 0 9.5 -0.5t23.5 -1.5t35 -2t49 -1.5t61 -0.5h47q8 0 69.5 4t106.5 4h10q20 0 28.5 -8t8.5 -27q0 -29 -28 -35q-35 -9 -43.5 -15.5t-8.5 -24.5q0 -20 86 -213q107 -240 127 -281l80 -178q64 -137 76 -160l53 -119q6 -12 8 -12t4 1.5t5 5.5 t6 10.5t9 18.5t12 26.5t16 37.5q80 186 80 189q0 8 -132 327q-109 260 -139 308q-26 42 -40.5 51t-71.5 20q-17 3 -23 8.5t-6 16.5q0 16 1.5 25.5t6 15.5t11.5 8t20 2h10q9 -1 25 -1.5t36 -1.5t43 -2t45 -1.5t43.5 -1t36.5 -0.5q44 0 148 8q10 2 31 2q36 0 46.5 -7t10.5 -30 q0 -22 -7 -30t-28 -9q-30 -3 -45.5 -7.5t-23 -11.5t-7.5 -20q0 -23 20.5 -83.5t51.5 -127.5q34 -80 41 -100q26 -70 37 -70q9 0 24 33q5 18 26.5 66.5t43.5 96t39.5 96t17.5 69.5q0 19 -6.5 31t-21 19t-39.5 11q-15 3 -22 9t-7 18q0 24 8 34.5t25 10.5h4q4 -1 10.5 -1 t15.5 -1t19.5 -1.5t21.5 -1t22.5 -1.5t22 -1t20.5 -0.5t17 -0.5q11 0 35 2t52 2h22q29 0 38 -7.5t9 -31.5q0 -13 -3 -19.5t-9.5 -10t-20.5 -5.5q-18 -2 -29.5 -5.5t-23 -8t-20.5 -15t-18.5 -22.5t-20.5 -35t-22.5 -47.5t-28.5 -64.5q-7 -16 -46 -98.5t-43 -94.5 q-35 -80 -59 -127q-8 -13 -8 -22t72 -175q49 -117 73 -188q12 -35 21 -35q3 0 6 10q21 58 76 168l12 25q35 71 100 240q14 38 117 286q55 130 55 168q0 17 -10.5 25t-48.5 20q-17 4 -22 9t-5 16q0 32 8.5 39.5t45.5 7.5q116 -8 129 -8h3q3 1 8.5 1.5t12 1t15.5 1t18 0.5h22 q34 0 43 -6.5t9 -32.5q0 -17 -4.5 -21.5t-24.5 -9.5q-33 -3 -60.5 -36.5t-66.5 -120.5q-203 -467 -293 -682q-22 -51 -40 -96.5t-29 -73.5t-27 -73t-21 -60t-24.5 -71.5t-24.5 -72.5q-6 -29 -13.5 -38t-25.5 -9q-34 0 -43 5.5t-18 31.5q-19 47 -55 154q-29 86 -75 194.5 t-54 108.5q-9 0 -23 -33q-4 -13 -55 -127q-94 -221 -123 -293q-11 -29 -19.5 -36t-35.5 -7t-36 6.5t-18 32.5q-10 33 -51 117q-31 63 -61.5 134t-36.5 83q-58 130 -153 334.5t-128 279.5q-59 139 -153 293q-17 26 -34.5 36.5t-53.5 16.5q-33 5 -33 33z" />
<glyph unicode="X" horiz-adv-x="1406" d="M-6 18q0 29 8 39.5t31 10.5q59 0 106.5 24.5t96.5 81.5q50 58 137 177.5t121 162.5q21 22 54.5 68t33.5 51t-7 12l-20 33q-30 46 -59 84q-13 18 -34.5 47.5t-42 58t-38.5 54.5q-1 1 -5 8t-9 15t-14.5 22.5t-20.5 29.5l-31 45l-33 43l-14 21q-26 38 -38 54.5t-30 41 t-25.5 33t-21.5 21.5t-22 17t-22 10t-26.5 8t-31.5 5q-26 5 -33.5 11.5t-7.5 27.5q0 26 7 36.5t26 10.5h22q1 0 72 -4q12 0 90 -3t96 -3q14 0 95.5 3t101.5 3q113 0 119 -4q8 -5 8 -31t-6 -33t-29 -7q-56 -2 -89.5 -14t-33.5 -32q0 -15 39 -78t92 -130q24 -30 80 -115 q33 -50 44.5 -66t17.5 -16q8 0 26 27q7 11 59 80t56 77l16 23q9 14 27 37t24 32q6 10 13 22t12.5 21t13.5 21.5t13 21.5q10 17 10 35q0 23 -30 38.5t-77 15.5q-22 0 -29.5 7t-7.5 27q0 11 1.5 18.5t5.5 12t9 6.5t13 2h17q6 -2 45 -2q3 0 76 -3t92 -3q2 0 13 1t46.5 2t97.5 1 h21q41 0 51 -6t10 -29q0 -31 -8.5 -36.5t-61.5 -7.5q-2 -1 -3 -1h-3h-4q-25 -1 -43.5 -5t-41.5 -18.5t-41.5 -32.5t-52 -57.5t-65.5 -82t-87 -117.5l-127 -172q-29 -39 -29 -45q0 -9 91.5 -139t162.5 -224q22 -31 63 -90t49 -71q14 -16 19 -27q51 -75 93.5 -105.5 t102.5 -33.5q17 0 23 -5.5t6 -19.5q0 -29 -7.5 -39t-29.5 -10q-10 0 -104 3t-125 3q-49 0 -186.5 -5t-161.5 -5q-23 0 -30 6.5t-7 28.5q0 26 7.5 33t33.5 6q115 -3 115 53q0 24 -15.5 53t-60.5 88q-4 5 -62 88l-47 64l-12 22q-15 29 -33 54.5t-30.5 39t-16.5 13.5 q-3 0 -8 -5.5t-31 -39.5q-22 -27 -47.5 -61t-43 -59t-46 -65t-43.5 -61q-68 -99 -68 -135q0 -41 99 -47q28 -1 33.5 -6t5.5 -25q0 -26 -5 -35.5t-20 -9.5h-16q-8 2 -54 2l-77 2q-13 0 -29 1t-21 1q-41 0 -190 -10q-14 -2 -35 -2q-37 0 -45 4.5t-8 25.5z" />
<glyph unicode="Y" horiz-adv-x="1337" d="M-6 1321q0 46 10 49q6 4 86 4q13 0 114.5 -4t133.5 -4q10 0 110 5t113 5q34 0 43.5 -5.5t9.5 -27.5v-17.5t-3 -11t-5 -8t-13 -3.5t-19.5 -2t-30.5 -1q-84 0 -84 -34q0 -5 3.5 -11.5t15.5 -24.5t28.5 -42t50 -76.5t72.5 -116.5l16 -26q14 -25 57 -86l56 -78q17 -29 24 -29 q8 0 32 35.5t81 128.5l47 76q72 106 101.5 158.5t29.5 76.5q0 25 -22.5 34t-85.5 11q-25 0 -31 6.5t-6 32.5q0 24 5 30.5t23 6.5h15q14 0 88.5 -2t87.5 -2q4 0 25 1.5t57 3t76 1.5h10q19 0 25 -9.5t6 -37.5q0 -15 -6.5 -21.5t-24.5 -7.5q-51 -6 -79.5 -27.5t-72.5 -92.5 q-14 -23 -43 -64t-35 -49l-14 -21q-145 -210 -223 -346q-25 -44 -29 -56t-4 -40v-35q0 -13 1 -33.5t1 -37.5q0 -203 6 -318q3 -58 33.5 -79.5t120.5 -30.5q19 -1 25 -9t6 -30q0 -33 -33 -33q-27 0 -80.5 2t-89.5 2q-151 0 -295 -8q-74 -4 -94 -4t-26.5 7t-6.5 30 q0 25 5.5 30.5t29.5 7.5q30 1 47.5 2.5t36 7.5t27 11.5t17.5 22.5t12 32t5.5 48t3 63t0.5 84q0 8 -2 28t-2 48v69q0 163 -6 166q-15 18 -78 117l-4 5q-4 5 -16 22t-33 49q-69 108 -143 217q-93 134 -142 192q-17 22 -40 31.5t-74 15.5q-24 3 -28.5 6.5t-4.5 20.5z" />
<glyph unicode="Z" horiz-adv-x="1236" d="M20 29q2 22 12.5 40.5t67.5 94.5q82 114 82 115l105 145q32 45 73 108q28 46 45.5 72t32.5 47t23 33q24 34 53.5 79.5t50.5 76.5q7 7 74 108l98 144l15 20q84 120 84 141q0 19 -72 19l-166 2q-143 1 -209.5 -4t-101.5 -19q-28 -10 -61 -48.5t-83 -117.5q-14 -20 -22 -20 q-5 0 -17 4q-3 3 -18 6q-33 12 -33 25q0 8 6 20q30 61 80 299q4 25 14 33t33 8q26 0 36 -3.5t20 -16.5q31 -40 56 -54t77 -18q1 0 46.5 -2t90.5 -2h172q13 0 105.5 -2t156.5 -2h35q37 4 94 4q114 0 125 -6q6 -4 6 -17q0 -11 -10.5 -28.5t-48.5 -67.5q-37 -52 -77 -114.5 t-91 -131.5q-48 -68 -188 -286q-81 -130 -109 -162l-90 -129q-67 -95 -134 -197.5t-67 -109.5q0 -21 152 -21h94q223 0 262 8q82 18 148 93q23 26 75 106q14 21 29 21q21 0 44.5 -12t23.5 -23q0 -7 -7 -21q-24 -71 -63 -223q-8 -29 -16 -37t-33 -8h-39q-4 2 -55 2h-261 q-41 0 -81 -1l-41 -1l-379 2l-164 -2q-37 0 -49 6t-11 25z" />
<glyph unicode="[" horiz-adv-x="696" d="M176 238l4 331v31l2 492v63q0 20 -1 46t-1 42q0 1 0.5 10.5t1 24t0.5 29.5v135q0 41 10 50t56 9h219q137 0 161 -0.5t31 -5.5q11 -5 11 -45q0 -37 -10.5 -44.5t-65.5 -6.5l-98 2q-86 1 -113 -18.5t-27 -82.5v-151l-4 -285q0 -24 1 -78t1 -114v-150v-47.5t0.5 -41t1 -31 t0.5 -21.5v-8l-2 -29l2 -74l-2 -88l2 -116q0 -14 -1 -41.5t-1 -67.5v-35q0 -70 2.5 -98.5t7.5 -37.5t21 -19q35 -25 133 -25h80q51 0 62.5 -7.5t11.5 -39.5q0 -35 -13 -45q-9 -6 -149 -6q-5 0 -25.5 1t-38.5 1h-53q-40 0 -67 -2q-10 0 -27 -1t-39 -1h-37q-34 0 -40.5 16 t-6.5 96q0 2 0.5 6.5t1 15.5t0.5 31v54q0 19 2 66t2 93v123l-4 25q-2 12 -2 70z" />
<glyph unicode="\" horiz-adv-x="942" d="M29 1487q0 14 20 14q15 0 31 -2q17 0 31 -2q41 -1 51 -4t16 -14q4 -9 33 -66q11 -22 33.5 -69t34.5 -70l22 -41q0 -1 1.5 -4.5l4.5 -10.5l6 -14q12 -30 53.5 -115t77.5 -155l35 -70q3 -8 68 -131q14 -26 31.5 -66.5t31.5 -68.5q17 -34 49 -96t39 -76l72 -150l14 -26 q49 -90 97 -191l63 -135l23 -39q12 -20 71 -149l33 -66q8 -16 8 -18q0 -10 -20 -10l-107 2q-17 0 -23 7.5t-24 47.5q-1 3 -117 240q-3 3 -11 21t-28 60t-40 82l-162 328q-115 239 -119 246q-94 184 -172 342q-16 33 -54 108t-65 131.5t-51 110.5q-36 73 -43 84 q-14 29 -14 35z" />
<glyph unicode="]" horiz-adv-x="696" d="M25 1452q0 36 12 45q9 6 149 6q3 0 24 -1t40 -1h121q18 2 102 2q15 0 22.5 -2t13.5 -6.5t7.5 -19t2.5 -31.5t1 -53q0 -2 -0.5 -6.5t-1 -16t-0.5 -31.5v-53q0 -19 -2 -66.5t-2 -93.5v-123l4 -24q5 -19 2 -70l-6 -182l2 -150v-30l-2 -127l2 -160q0 -4 -0.5 -22t-1 -49 t-0.5 -66v-131q0 -20 1 -46t1 -42q0 -2 -0.5 -11t-1 -23.5t-0.5 -29.5v-137q0 -41 -9.5 -50t-55.5 -9h-220q-137 0 -161 0.5t-31 5.5q-10 5 -10 45q0 38 10 43q9 6 32 7t132 1q87 0 113 18.5t26 81.5v928l2 29l-2 73l2 89l-2 118q0 13 1 40t1 69v33q0 70 -2.5 98.5 t-7.5 37.5t-21 19q-34 27 -133 27h-12l-68 -2q-50 -1 -61.5 7t-11.5 42z" />
<glyph unicode="^" d="M-57 575l581 859h17l542 -859h-112l-357 558l-376 -558h-295z" />
<glyph unicode="_" d="M0 -186h1024v-129h-1024v129z" />
<glyph unicode="`" d="M182 1311q0 28 24 46.5t58 18.5q33 0 66 -25t108 -104l45 -47q44 -44 56 -59q14 -17 16 -17q52 -56 57 -63q11 -7 11 -10q1 -6 -5 -9.5t-14 -3.5h-24q-18 0 -68.5 26t-105.5 64l-87 48q-76 43 -106.5 73t-30.5 62z" />
<glyph unicode="a" horiz-adv-x="931" d="M80 215q0 43 63 88.5t183 89.5q60 23 125 47l26 6l45 19q19 7 26.5 11t10.5 8.5t4 11.5q4 8 4 90q0 62 -8 89t-31 46q-15 12 -39 21.5t-52.5 14.5t-57.5 5q-22 0 -44.5 -6.5t-40 -16.5t-28 -23.5t-10.5 -27.5q0 -7 8 -26t8 -23q0 -9 -10.5 -16.5t-42.5 -20.5l-63 -35 q-11 -8 -21 -8q-12 0 -21.5 25.5t-9.5 56.5q0 34 26 71.5t69 63.5l53 37l149 86q54 32 76 29q88 -10 133 -20t73.5 -24t57.5 -42q33 -31 42.5 -97t9.5 -262q0 -5 -1.5 -25t-3.5 -38t-2 -19l2 -106q0 -7 -3 -38.5t-3 -37.5q0 -74 41 -74q18 0 33 15q2 2 8.5 7.5t10.5 9 t9.5 6.5t8.5 3q6 0 16.5 -9t10.5 -15q0 -1 -1 -2.5t-2 -4.5t-2 -5q-1 -1 -2 -4t-3.5 -9t-4.5 -12q-25 -68 -75 -110t-107 -42q-135 0 -156 131q-2 16 -8 25l-2 -2q0 -1 -4 -4t-9.5 -8t-8.5 -9q-46 -54 -125 -92.5t-144 -38.5q-24 0 -62.5 15t-56.5 30q-21 20 -44 87.5 t-23 107.5zM303 256q0 -22 21 -78q14 -37 28.5 -49t48.5 -12q19 0 41 7.5t42.5 20.5t35.5 29l21 23q17 17 20.5 24.5t3.5 26.5l-2 55l2 21q0 88 -6 88q-1 0 -22 -6q-20 -6 -82 -33t-78 -37q-41 -23 -57.5 -41t-16.5 -39z" />
<glyph unicode="b" horiz-adv-x="1046" d="M33 1393q0 30 39 41q87 27 250 92q18 6 20 6q7 0 12.5 -8t5.5 -19q0 -10 -2 -18q-4 -132 -4 -207q-1 -57 -1 -137.5t-1 -106.5q0 -6 1 -81t1 -142v-8q0 -8 2 -8t4 -2q1 4 15 14q4 0 20 16q38 35 107 58.5t135 23.5q53 0 120.5 -32.5t119.5 -83.5q26 -25 47.5 -61.5 t36.5 -78t23.5 -88t8.5 -92.5q0 -106 -32.5 -188.5t-110.5 -171.5q-54 -60 -142.5 -98t-177.5 -38q-62 0 -105 10.5t-136 47.5q-19 8 -37 8q-22 -3 -43 -33q-17 -23 -24 -27t-29 -4q-34 0 -31 41l2 48q0 5 4 79q0 14 -3 42t-3 49q0 18 4 88.5t4 87.5q0 13 -4 79.5t-4 79.5 l6 146l-2 143l4 144l-4 94q4 61 4 102q0 88 -12 116t-55 40q-33 8 -33 37zM352 399q-3 -144 21 -227q13 -49 58 -81t99 -32q68 0 119.5 50.5t76 124.5t24.5 157q0 51 -11 111t-26 98q-7 17 -18.5 35t-25 34.5t-27.5 30.5t-28.5 25t-27.5 16q-42 19 -111 19q-51 0 -94 -27 q-15 -8 -20.5 -12.5t-6.5 -13.5q0 -1 -0.5 -3.5t-1 -12t-0.5 -25.5l2 -76z" />
<glyph unicode="c" horiz-adv-x="841" d="M55 393q0 97 13 154t53 135q56 111 164.5 174.5t244.5 63.5q101 0 167.5 -46.5t66.5 -117.5q0 -43 -26 -73t-64 -30q-43 0 -71 19t-54 65q-29 50 -53 70t-54 20q-40 0 -81.5 -27t-69.5 -71q-20 -32 -32.5 -85.5t-12.5 -106.5q0 -160 96 -273q40 -46 102.5 -77t114.5 -31 q89 0 182 84q8 8 15 8q9 0 28 -16.5t19 -22.5q0 -7 -6 -16q-15 -18 -25 -39q-29 -43 -67.5 -82t-69.5 -56q-74 -43 -180 -43q-173 0 -286.5 118.5t-113.5 301.5z" />
<glyph unicode="d" horiz-adv-x="1038" d="M53 399q0 50 12 115t29 109q26 69 81 133t124 106q104 62 231 62q37 0 67 -5t87 -22l10 -2q6 0 6 25q0 7 2.5 20t2.5 33q2 73 -5 155q2 13 2 31q3 12 3 19q0 81 -10.5 109t-47.5 48q-25 12 -35 24.5t-10 31.5q0 9 5.5 16t17 13.5t32.5 13.5l39 14q30 13 87.5 35t78.5 30 q11 3 25.5 10t23.5 7q14 0 18 -12q6 -23 -1 -195l2 -23q2 -16 2 -45q0 -19 -5 -79t-5 -66l6 -152q-4 -68 -4 -94q0 -1 0.5 -7.5t1 -17.5t0.5 -22v-57q0 -11 -1.5 -30.5t-0.5 -43.5l4 -164q0 -6 -2 -40.5t-2 -41.5q0 -9 2 -42t2 -38l-4 -153q-1 -38 13.5 -59t39.5 -19 q5 0 18.5 3t18.5 3q20 0 20 -31q0 -32 -18 -41q-1 -1 -121 -34q-2 -1 -7.5 -2.5t-13 -3.5t-14.5 -5l-82 -26q-32 -6 -45 -12q-2 -1 -5.5 -2t-5.5 -2t-3 -1q-19 0 -19 50q0 7 -4 30l2 37q0 1 -6 10q-4 -6 -8 -8q-2 0 -18 -16q-37 -35 -111.5 -68t-118.5 -33 q-61 0 -126.5 19.5t-100.5 48.5q-32 26 -70 82.5t-57 105.5q-11 31 -20 82.5t-9 83.5zM295 500q0 -22 3.5 -57t8.5 -69.5t10 -54.5q5 -21 21.5 -52t36.5 -59.5t35 -41.5q32 -28 63 -39.5t72 -11.5q61 0 127 39q30 16 30 49q0 1 -1 18.5t-1 32.5v22q0 10 2 54l3 43l-5 71 q0 1 1 20.5t1 37.5v53q0 64 -2.5 101.5t-8 60t-15.5 41.5q-17 29 -43.5 52t-56 35.5t-56.5 12.5q-97 0 -161 -102t-64 -256z" />
<glyph unicode="e" horiz-adv-x="854" d="M55 403q6 117 10 144t21 71q56 140 159 221t226 81q157 0 254 -97q76 -73 76 -221q0 -40 -8 -47.5t-48 -7.5l-213 -2h-155q-15 0 -28 0.5t-21 1t-9 0.5h-26q-8 -2 -21 -2q-11 0 -14.5 -3.5t-3.5 -13.5q0 -140 78 -245q37 -49 101.5 -82t123.5 -33q44 0 91.5 17t80.5 46 q16 13 23 13q9 0 22.5 -12.5t13.5 -18.5q0 -8 -19 -39.5t-34 -48.5q-132 -152 -307 -152q-84 0 -160.5 38t-122.5 102q-31 41 -42 63.5t-25 69.5q-11 36 -17.5 83t-5.5 74zM266 631q0 -15 25 -15h16q16 0 34 1t21 1l35 -2q15 0 31 2l33 3q72 5 95.5 18.5t23.5 52.5 q0 66 -37 110t-94 44q-90 0 -144 -98q-14 -25 -26.5 -62.5t-12.5 -54.5z" />
<glyph unicode="f" horiz-adv-x="653" d="M33 817q0 22 2.5 32.5t8.5 14.5t19 4h19q14 -2 27 -2l55 2q3 2 3.5 7.5t2.5 39.5l-2 33q-2 34 8.5 116.5t20.5 117.5q43 148 145 247t211 99q58 0 95.5 -31.5t37.5 -81.5q0 -46 -27.5 -76t-68.5 -30q-17 0 -30.5 4.5t-27 15t-32.5 29.5q-23 23 -33 29t-25 6 q-23 0 -35 -13t-17 -44.5t-5 -92.5q0 -18 3 -68.5t3 -58.5l-2 -33l2 -196q0 -7 1 -10t10.5 -5.5t27 -3t53.5 -0.5h43q20 -2 37 -2q14 0 20.5 -1t11 -8t5 -16.5t0.5 -31.5q0 -19 -3 -28t-10.5 -12t-23.5 -3q-56 0 -76 2h-26q-17 0 -27 -2h-18q-10 1 -14 -1.5t-5.5 -11 t-1.5 -28.5v-258q0 -14 1 -33.5t1 -30.5q0 -14 -2 -61.5t-2 -48.5l2 -55v-50q0 -39 6.5 -61t22.5 -33.5t45 -15.5q55 -9 66.5 -14.5t11.5 -24.5q0 -18 -3 -27.5t-10.5 -13.5t-21.5 -4h-31q-39 0 -100.5 3t-75.5 3q-41 0 -119 -4l-98 -6h-16q-20 0 -28.5 8.5t-8.5 30.5 q0 26 8.5 31.5t54.5 11.5q11 1 23 5.5t21.5 10.5t13.5 12q4 10 5.5 21t6.5 65l-2 62q0 11 2 59.5t2 67.5q-4 118 -4 145q0 12 1.5 34t2.5 50q3 145 -6 154q-5 8 -64 8h-14q-8 -2 -20 -2q-22 0 -27.5 9.5t-5.5 43.5z" />
<glyph unicode="g" horiz-adv-x="1003" d="M53 -250q0 39 14 57t62 43q97 49 111 54q10 7 10 10q-2 4 -7 6.5t-36 11.5q-15 4 -43 23t-39 31q-28 31 -39.5 62.5t-11.5 74.5q0 50 28 72q36 27 117 81q19 19 39 33l16 13q9 3 9 6q0 2 2 2q-6 6 -11 6q-31 8 -72.5 36.5t-64.5 59.5q-57 75 -57 166q0 61 40 130.5 t97 107.5q130 84 254 84q83 0 137 -15t156 -67q21 -11 30 -13.5t37 -3.5q108 0 156 -6q19 -1 26 -9.5t7 -27.5q0 -51 -8.5 -66.5t-34.5 -15.5h-47q-48 0 -56 -2t-8 -12q0 -3 3 -15.5t3 -21.5q0 -168 -110 -248q-84 -62 -156 -75q-109 -19 -133 -19q-69 6 -82 10l-10 2 l-7.5 1.5t-4.5 0.5q-23 0 -58 -39.5t-35 -66.5q0 -23 16 -40t43.5 -25.5t56.5 -12.5t61 -4q1 0 51 4l57 4q12 0 32 1.5t50 2.5q119 3 217 -61q36 -23 53 -42.5t39 -64.5q31 -60 31 -118q0 -31 -4 -46t-29 -77q-34 -86 -112 -144q-78 -59 -185 -84q-44 -11 -66.5 -16 t-31.5 -5.5t-31 -0.5q-103 0 -200.5 21t-151.5 55q-46 28 -88 80q-10 10 -20.5 47.5t-10.5 64.5zM242 -236q0 -85 78 -139.5t198 -54.5q108 0 187 49q32 22 55.5 61.5t23.5 73.5q0 69 -48.5 111.5t-127.5 42.5h-22q-21 0 -44.5 -1.5t-41.5 -0.5l-49 2l-54 -2l-28 2 q-19 1 -31.5 -5t-46.5 -32q-49 -35 -49 -107zM311 655q0 -132 47.5 -210t128.5 -78q74 0 116 56.5t42 154.5q0 120 -50 195t-130 75q-154 0 -154 -193z" />
<glyph unicode="h" horiz-adv-x="1142" d="M33 39q0 20 8 26t47 13q36 7 51.5 24t21 53.5t5.5 118.5q0 26 -2 72.5t-2 65.5v348l2 45q4 62 4 96q0 21 -2 65t-2 56l4 88q2 38 0.5 70.5t-4.5 54t-6 27.5q-5 14 -14 21.5t-58 39.5q-29 23 -29 35q0 8 4 26q3 10 13.5 17t31.5 15.5t31 13.5q6 4 76 32q21 7 25 11l67 30 q4 2 19 9t24.5 10.5t16.5 3.5q8 4 10 4q7 0 11.5 -10.5t4.5 -26.5q0 -8 -2 -16l-2 -105q-1 -38 0.5 -75.5t3 -68t0.5 -52.5l-4 -93q0 -5 2 -46.5t2 -53.5q0 -10 -2 -48.5t-2 -47.5t2 -34t2 -34q0 -16 -4 -28q0 -25 8 -25q2 0 2 2q1 0 4.5 2.5t6.5 3.5l34 27q70 55 147.5 86 t141.5 31q128 0 215 -97q49 -57 49 -282q0 -34 -3 -123t-3 -109q0 -159 10 -192q6 -20 24 -28.5t67 -12.5q28 0 28 -35q0 -24 -12.5 -33t-44.5 -8l-139 4q-19 0 -75 -3t-59 -3l-86 -2q-6 -2 -14 -2q-20 0 -32.5 8.5t-12.5 22.5q0 28 10 36t45 11q40 3 51 19t11 71 q0 7 2 33.5t2 29.5v27q-2 20 -2 37l2 65l-2 99l2 34q8 131 -23 195q-17 35 -54 56.5t-81 21.5q-92 0 -145 -31q-74 -44 -74 -61q0 -7 2 -11l2 -73l-2 -66l2 -92l-4 -86q0 -5 3 -29.5t3 -32.5l-4 -102q12 -71 25 -84.5t75 -17.5q29 -3 29 -35q0 -26 -13 -35.5t-50 -9.5 q-16 0 -79.5 5t-80.5 5q-41 0 -120.5 -3.5t-90.5 -6.5q-8 -2 -16 -2q-35 0 -35 49z" />
<glyph unicode="i" horiz-adv-x="526" d="M45 37q0 17 7 25.5t24 9.5q31 3 43 7.5t24.5 12t15 38t4 63t1.5 108.5v27q0 14 1 35.5t1 27.5q0 29 -4 82l2 111q0 9 1 33t1 40q1 27 -15 42.5t-63 33.5q-27 9 -27 39q0 19 28 34t118 46l49 22q40 19 68 29q31 10 38 15q12 4 15 4q6 0 11 -6.5t5 -14.5l-1 -3 q-1 -4 -2 -7.5t-1 -5.5q0 -1 3 -15.5t3 -17.5q0 -6 -3 -28.5t-3 -24.5l4 -70v-328l2 -256q0 -39 16 -54t64 -21q25 -3 25 -39q0 -41 -43 -41q-9 0 -32.5 3t-49.5 3q-12 0 -44 3t-42 3q-27 -2 -51 -2q-93 -6 -148 -6l-10 -2q-35 0 -35 45zM129 1300q0 63 47 109.5t111 46.5 q56 0 98.5 -44.5t42.5 -102.5q0 -33 -11 -61.5t-31.5 -48.5t-49.5 -31t-64 -11q-61 0 -102 40.5t-41 102.5z" />
<glyph unicode="j" horiz-adv-x="557" d="M18 -455q0 7 4.5 10.5t27.5 18.5q8 5 13 8q44 27 71 69.5t30 94.5l14 244q0 22 -2 45v20l4 340v236q0 45 -11.5 60.5t-64.5 43.5q-15 7 -19.5 15t-2.5 22q3 21 6.5 25t22.5 12l196 76q51 20 72 30q14 7 18 7q5 -1 9.5 -5.5t7 -11t2.5 -14.5l-2 -41q-1 -21 -3.5 -55 t-2.5 -74v-21q0 -26 -0.5 -52t-1 -42t-0.5 -18q-3 -40 -3 -51v-48q3 -27 3 -32l-5 -121l5 -88q0 -4 -4.5 -49.5t-4.5 -51.5l2 -94q-12 -179 -16.5 -215.5t-17.5 -77.5q-42 -119 -168 -198q-40 -25 -88 -48.5t-60 -23.5q-4 0 -11 4.5t-9 7.5zM150 1300q0 63 46.5 109.5 t110.5 46.5q56 0 99 -44.5t43 -102.5q0 -33 -11 -61.5t-31.5 -48.5t-49.5 -31t-64 -11q-61 0 -102 41t-41 102z" />
<glyph unicode="k" horiz-adv-x="1044" d="M33 45q0 7 4.5 12t16 9t32.5 8q50 9 66.5 32.5t15.5 81.5l-2 93l4 256l-4 30v6t0.5 16.5t1 24t0.5 33v39.5v37q-2 16 -2 31q0 8 3 43.5t3 36.5l-4 86l4 120q1 20 0.5 47t-1.5 49t-2 40t-1 20q2 16 2 31q0 29 -16.5 52t-53.5 46q-20 14 -27 23t-7 22q0 19 7 27.5t31 17.5 q1 0 6.5 2.5t17.5 8t24 10.5q4 3 37.5 17t39.5 17q54 21 56 21q34 17 65 29q12 6 21 6q7 0 13.5 -8t6.5 -15l-2 -26l2 -43l-4 -68q0 -6 3 -40t3 -40q-4 -48 -2.5 -106t0.5 -82l-6 -307q4 -55 4 -68v-84l-2 -74v-33q-2 -6 -2 -14q0 -6 3.5 -11t6.5 -5q6 0 17 8q48 33 79.5 57 t64 52.5t85.5 78.5q20 18 37.5 43.5t17.5 34.5q0 20 -21.5 29t-76.5 14q-9 1 -17 9t-8 14q3 36 7 42.5t24 6.5h12q3 0 13.5 -1t23.5 -1.5t28.5 -1t29.5 -1t25.5 -1t17.5 -0.5q42 0 153 6q63 -3 73.5 -7.5t10.5 -27.5q0 -25 -9 -31t-54 -12q-23 -3 -35.5 -5t-26.5 -8 t-26 -15.5t-29 -26.5l-39 -39q-45 -44 -67 -62q-54 -48 -54 -55q0 -4 6 -10l27 -43q37 -62 57.5 -92.5t49.5 -79.5l10 -19q15 -28 28 -49.5t20 -33.5t12.5 -19.5t8 -12t4.5 -7.5q55 -95 80.5 -123t63.5 -37q28 -6 35.5 -13.5t7.5 -29.5t-6 -28.5t-29 -12.5q-4 0 -20.5 3 t-32.5 1q-10 0 -70 3t-72 3q-11 0 -65 -4t-57 -4l-30 -2l-22.5 -1.5t-9.5 -0.5q-6 -2 -14 -2q-20 0 -28.5 9.5t-8.5 31.5t5.5 27.5t31.5 11.5q41 8 41 30q0 15 -38 86.5t-91 155.5l-19 37q-21 40 -28 47q-3 4 -6 8.5t-5 6.5t-2 3q-5 11 -10 11q-7 0 -47 -27l-22 -14 q-17 -7 -17 -23l-4 -63q2 -25 2 -41q0 -9 1 -45.5t1 -65.5q2 -56 18.5 -76.5t69.5 -29.5q12 -3 21.5 -12t7.5 -17q-2 -4 -8 -39q-4 -8 -31 -8q-29 0 -99.5 5t-99.5 5q-5 0 -59 -4q-8 -1 -84 -4l-41 -2q-21 0 -39 6q-3 1 -7.5 20t-4.5 27z" />
<glyph unicode="l" horiz-adv-x="528" d="M35 18q0 28 7.5 36.5t35.5 11.5q35 4 51 25t18 61q5 127 5 167l-2 132l2 120l-2 25l2 90l-2 117q0 17 2 37v41q0 25 -2.5 94t-2.5 76l3 77q2 129 -7 154q-10 26 -61 51q-18 10 -23.5 17.5t-5.5 21.5q0 25 11.5 35t58.5 29q31 13 75 30t56 23q15 3 25 8q69 29 83 29 q19 -3 19 -39l-2 -129q0 -19 2 -39v-94q0 -26 -1 -51t-2 -40t-1 -18q0 -1 1 -22.5t1 -42.5v-105q0 -21 -1 -40.5t-1 -26.5l2 -66l-2 -149l2 -111q0 -19 1 -67t1 -78v-23l-4 -182q-1 -67 18 -95.5t70 -39.5q19 -5 24 -10t5 -25q0 -25 -6.5 -32t-28.5 -7h-1q-91 8 -116 8 q-7 0 -32 -1t-42 -1l-69 -2l-93 -4q-32 -4 -40 -4q-31 0 -31 28z" />
<glyph unicode="m" horiz-adv-x="1699" d="M45 31q0 2 10 41q4 8 33 8q20 -1 32 1.5t22 13.5t15 26t8 46.5t4 68t1 98.5l2 98q0 18 2 37t2 20l-2 37q-2 12 -2 29l2 86q1 63 -9 78t-63 32q-2 1 -4 1q-9 3 -17.5 13t-6.5 15l6 21q3 11 9 15t26 9q9 2 58.5 20t80.5 32l65 30l52 21l12 4q6 0 13 -10t7 -19l-4 -63 q4 -22 4 -27q0 -6 -3 -19.5t-3 -15.5q0 -3 4 -8.5t7 -5.5q2 2 4 2q0 3 8 6q10 11 26 23q4 4 52.5 34t66.5 39q88 45 178 45q98 0 144 -32q30 -20 52 -50t28 -57q5 -19 7.5 -24t8.5 -5q5 0 74 60q57 47 127 78q63 26 151 26q101 0 185 -84q22 -22 36.5 -70t14.5 -96 q-2 -151 -4 -313q0 -39 -1 -65t-1 -39q-2 -117 6 -142q14 -31 65 -34q37 0 37 -35q0 -17 -9.5 -29t-21.5 -12q-16 0 -53 6q-6 0 -129 6q-8 0 -71 -3.5t-74 -2.5q-49 0 -49 -4q-8 -2 -15 -2q-12 0 -20 9t-8 21q0 26 7.5 37t26.5 11q65 0 68 55l4 84q2 20 2 53l6 203l-2 84 l2 45q1 30 -13.5 66t-35.5 57q-35 35 -119 35q-37 0 -82.5 -17t-80.5 -45q-13 -9 -17 -15.5t-6 -19.5v-30l-2 -97q0 -7 2 -38t2 -35q0 -7 -3 -52.5t-3 -58.5l2 -86l-2 -80q0 -62 18 -84q7 -9 15.5 -11.5t50.5 -8.5q13 -1 25.5 -12t9.5 -17l-8 -33q-2 -5 -9.5 -9.5 t-13.5 -4.5q-9 0 -30.5 3t-43.5 3h-55q-16 2 -31 2q-19 0 -37 -2h-65q-25 0 -69.5 -5t-57.5 -5q-19 0 -30 8.5t-11 22.5q0 1 8 32q4 15 39 15q48 0 57 26q4 8 13 170l-2 39l4 217q3 121 -29 172q-15 26 -61.5 45t-92.5 19q-29 0 -79.5 -18.5t-73.5 -37.5q-16 -13 -22 -37 t-3 -87l2 -58l-2 -102l2 -109q0 -9 -2 -51.5t-2 -46.5q0 -84 15 -109.5t69 -29.5q35 -3 35 -29q0 -49 -35 -49l-55 2q-26 1 -88 3.5t-88 2.5h-113q-11 0 -21.5 -1t-16.5 -2t-7 -1q-20 0 -31.5 9.5t-11.5 23.5z" />
<glyph unicode="n" horiz-adv-x="1159" d="M45 31q0 22 8 31t31 10q54 4 69.5 16.5t18.5 50.5q0 9 1.5 26.5t3 34t1.5 23.5l-2 53l4 121q-4 45 -2 119q0 40 -4 166q0 26 -80 61q-20 10 -20 27q0 9 2 16.5t6.5 12.5t9.5 9t13 7t14.5 5t16 5.5t16.5 5.5q33 14 55 21l24 8q5 2 76 33q8 2 34.5 13.5t35.5 17.5t14 6 q4 0 8.5 -4t7.5 -9.5t3 -9.5l-4 -53q0 -22 -4 -72q0 -6 2 -9.5t5 -6.5t9 -6l8 8q4 9 20 18l48 35q67 52 125.5 75.5t121.5 23.5q58 0 118.5 -26t94.5 -63q29 -34 46 -95.5t14 -139.5l-2 -61q0 -7 -1 -33t-1 -43v-33l-4 -90v-33q0 -146 4 -182q5 -23 27 -37.5t57 -15.5 q21 -1 30 -8t9 -21q0 -49 -29 -49q-13 0 -19 2l-59 2q-12 0 -47 4t-47 4q-36 -4 -72 -4l-82 -4q-47 -4 -82 -4q-39 0 -39 39q0 20 11 28.5t37 10.5q41 1 56 21t15 73q2 104 2 117v69l4 103q-1 4 -4 141q0 48 -8 72t-33 49q-22 22 -55 36t-53 11q-85 -12 -111 -21.5 t-78 -46.5q-12 -8 -14 -8q-16 -10 -18 -22v-103l-2 -24q-3 -12 -4 -82v-80l4 -109l-4 -55l10 -98q12 -36 67 -39q34 -3 41.5 -8.5t7.5 -28.5q0 -19 -9.5 -32t-24.5 -13q-12 0 -35.5 3t-48.5 3l-70 6q-18 2 -35 2l-67 -4q-34 -1 -91.5 -5.5t-70.5 -4.5q-17 0 -24 9.5t-7 31.5 z" />
<glyph unicode="o" horiz-adv-x="1050" d="M55 414q0 231 166 387q57 54 140 86.5t163 32.5q214 0 361 -156q20 -20 47.5 -68t38.5 -80q26 -85 26 -155t-18.5 -139t-50.5 -113q-49 -70 -82.5 -105t-87.5 -69q-44 -29 -107.5 -45.5t-126.5 -16.5q-88 0 -175 33t-144 88q-49 45 -69.5 73.5t-45.5 84.5q-35 83 -35 162 zM303 530q0 -146 51 -301q25 -75 78.5 -120.5t116.5 -45.5q43 0 85.5 21.5t61.5 52.5q21 35 35 89.5t14 99.5q0 124 -9.5 195.5t-35.5 144.5q-10 30 -35.5 68.5t-46.5 56.5q-19 15 -51.5 25.5t-58.5 10.5q-57 0 -94.5 -23.5t-69.5 -80.5q-17 -29 -29 -85.5t-12 -107.5z" />
<glyph unicode="p" horiz-adv-x="1064" d="M35 -485q0 23 8 32.5t31 10.5q15 1 23.5 2t18 5.5t13.5 9.5t9 17.5t6.5 26t2.5 38.5t1 52t-1 68l-4 172l0.5 5t1 14.5t0.5 19.5l2 270l5 197l-2 34l2 134q1 53 -11 74t-53 42q-12 7 -16 14t-4 19q0 17 6.5 22t46.5 23q25 11 58 25.5t64 27.5t58.5 24.5t45 18.5t18.5 7 q7 0 9.5 -5.5t2.5 -19.5q0 -15 -2 -25v-28q-2 -20 -2 -39q-2 -8 -2 -15q0 -6 3.5 -11t6.5 -5q6 0 18 8l29 19q33 20 43 30l16 13l43 28q12 6 27.5 15.5t24 14t26 8t43.5 3.5q74 0 146 -35.5t118 -95.5q51 -66 74 -138.5t23 -166.5q0 -90 -20.5 -159.5t-65.5 -129.5 q-43 -57 -84 -93t-94 -62q-17 -8 -43.5 -17t-51 -16t-35.5 -8q-19 -1 -58 -2t-54 -2l-100 2q-22 0 -27.5 -9.5t-5.5 -44.5v-104q-2 -20 -2 -49q0 -16 8 -148q1 -28 9 -40t30 -21q32 -16 65 -16q18 0 27 -3t12.5 -10t3.5 -22q0 -23 -10 -32t-35 -9q-10 0 -90.5 3t-99.5 3 q-110 0 -170 -6q-61 -4 -73.5 1t-12.5 34zM371 219q-1 -29 30 -62.5t77.5 -56t86.5 -22.5q59 0 98 26t70 84q14 26 24.5 62t15.5 76t5 80q0 93 -44.5 188.5t-104.5 128.5q-15 7 -47.5 14.5t-51.5 7.5q-12 0 -29.5 -2t-33 -5.5t-23.5 -6.5q-23 -11 -35 -17.5t-20.5 -12.5 t-11 -11.5t-2.5 -13.5v-45q-2 -20 -2 -51v-35q2 -23 2 -39t-2 -68.5t-2 -70.5q0 -38 2 -58v-28z" />
<glyph unicode="q" horiz-adv-x="1052" d="M55 389q0 109 44.5 208t127.5 175q55 50 135 94q15 7 41 15.5t54 15t56.5 10.5t47.5 4q22 0 58 -5t75.5 -13.5t73.5 -18.5q20 -4 25 -4q14 0 23.5 7.5t31.5 35.5q11 11 16 11t23.5 -6t19.5 -9q11 -7 11 -24l-3 -29l3 -63q0 -12 -3 -33v-27q3 -15 3 -33v-30 q0 -27 -1 -51.5t-2.5 -39t-1.5 -18.5l2 -65l-2 -113l2 -82q0 -8 -2 -56t-2 -59l2 -77q1 -20 3 -44.5t2 -33.5l-5 -125q-2 -55 -3 -94.5t-0.5 -75.5t0.5 -59.5t3.5 -44t5.5 -32.5t9.5 -22t11.5 -14t16 -8t19.5 -4.5t23.5 -2.5q37 -3 37 -30q0 -19 -8 -33t-20 -14q-9 0 -15 2 q-7 0 -39 4l-59 2l-28 2t-22 2t-14.5 1.5t-7.5 0.5q-205 -14 -223 -14q-26 0 -37.5 9.5t-11.5 31.5q0 23 9 30.5t36 7.5q16 0 32.5 4.5t29 12t18.5 16.5q16 21 16 113v90q0 16 1 31.5t1 17.5q0 4 -2 29.5t-2 28.5l2 69l-2 70l2 26q0 9 -8 13q-2 0 -2 -2q-4 -5 -8 -7l-25 -18 q-47 -47 -100 -63q-13 -4 -62 -10.5t-65 -6.5q-37 0 -90.5 16t-91.5 39q-33 20 -71 60.5t-56 73.5q-25 50 -41.5 116t-16.5 119zM291 492q0 -33 7.5 -90t16.5 -87q28 -98 92.5 -157.5t143.5 -59.5q33 0 57.5 7.5t59.5 29.5q19 10 24.5 26t3.5 56l-2 59l2 66q1 22 -0.5 36 t-1.5 17q0 34 2 54v30q0 3 -1 12t-1 23l-2 76q-1 63 -11.5 97t-37.5 67q-56 65 -133 65q-101 0 -160 -88t-59 -239z" />
<glyph unicode="r" horiz-adv-x="817" d="M45 23q0 1 8 40q0 5 35 9q79 6 90 55q0 2 1 16t3 44.5t4 64.5q0 5 -2 32t-2 33q0 8 4 42t4 36l-4 58l4 184q1 39 -20.5 65t-63.5 35q-21 4 -27.5 9t-6.5 16q0 12 5 25t11 16l64 22l45 17q45 20 194 78q4 4 10 4t9.5 -4t4.5 -12.5t0.5 -16t-1 -21.5t-0.5 -22v-129 q-2 -4 -2 -8q0 -7 10 -15q5 0 27 33q31 48 112 129q58 55 119 55q59 0 99 -36t40 -97q0 -47 -35.5 -79.5t-87.5 -32.5q-41 0 -102 34q-23 13 -33 13q-47 0 -90 -49q-43 -51 -50 -62t-7 -26l-4 -152l2 -104q0 -18 -4 -46l-2 -18q4 -97 6.5 -115t11.5 -30q15 -19 37 -27.5 t63 -11.5q17 -1 26 -7t7 -14q-5 -43 -10 -51t-29 -8q-17 0 -69.5 4t-69.5 4q-188 0 -250 -8q-8 -2 -16 -2q-32 0 -50 8.5t-18 22.5z" />
<glyph unicode="s" horiz-adv-x="722" d="M68 221v12q0 13 18 21t37 8q9 0 14.5 -7.5t20.5 -41.5q38 -84 85.5 -123t112.5 -39q47 0 82 33.5t35 79.5q0 89 -115 158q-42 33 -77 51l-35 20q-87 52 -127.5 109t-40.5 131q0 63 21.5 112.5t70.5 100.5q29 31 88.5 51.5t116.5 20.5t93.5 -6.5t94.5 -28.5 q35 -12 44 -18.5t11 -18.5l3 -90q1 -67 -3.5 -79.5t-29.5 -12.5t-32.5 4t-14.5 22q-31 70 -75 109t-93 39q-52 0 -83.5 -26t-31.5 -69q0 -44 33.5 -79.5t128.5 -90.5q137 -80 185 -144.5t48 -168.5q0 -124 -96 -205q-59 -48 -110 -65t-138 -17q-41 0 -68 6t-96 31 q-61 23 -67 58q-4 36 -4 79q0 20 -6 74z" />
<glyph unicode="t" horiz-adv-x="722" d="M35 782q0 20 4.5 29.5t23.5 26.5l39 36q23 26 29 29l16 15l33 38l13 15l38 39q25 25 41 42.5t21.5 24t14 18.5t11.5 17q5 7 13 13.5t17 10t16.5 -0.5t9.5 -17v-65q0 -27 2 -37l-2 -68q-1 -57 2.5 -70.5t19.5 -13.5h166q43 0 49 -2h11l24 2q19 2 26 -7.5t7 -37.5 q0 -32 -1 -38t-5 -9q-8 -4 -131 -4q-14 0 -49 -2q-6 0 -21.5 -1t-38.5 -1q-51 -2 -55 -7q-2 -3 -2 -12l2 -127l-2 -110l2 -96v-64q-2 -14 -2 -29q0 -100 38 -147t120 -47q67 0 116 49q12 12 21 12q5 0 14.5 -10t9.5 -16q0 -12 -29 -54t-53 -63q-43 -38 -90 -54t-116 -16 q-90 0 -153.5 31t-80.5 84q-7 26 -8.5 44t-3.5 91q-4 122 -4 164v39l-2 209q-1 31 -1.5 47t-4.5 31.5t-8.5 21t-17 11t-25 7t-36.5 3.5q-20 1 -24 5t-4 21z" />
<glyph unicode="u" horiz-adv-x="1095" d="M33 836q0 9 2 15.5t6 11t10.5 7.5t15 4.5t19.5 2.5q20 2 242 26q18 6 24 6q9 0 16 -7t7 -13l-2 -37q0 -4 2 -17.5t2 -17.5q0 -3 -2 -24.5t-2 -24.5l4 -86l-4 -72q4 -44 4 -67q0 -15 -3 -68t-3 -61l6 -113q2 -50 11.5 -77t35.5 -48q50 -41 123 -41q28 0 51.5 6.5 t49.5 21.5t63 42q30 23 34.5 31t6.5 36l2 39q0 6 0.5 12.5t0.5 10t1 6.5v4q0 5 -2 32.5t-2 31.5q0 35 0.5 67.5t1 53.5t0.5 47.5t-1 61.5t-3 83q-2 45 -11.5 57t-58.5 25l-41 -4q-7 0 -14 11.5t-7 23.5q0 21 11.5 29.5t36.5 8.5l151 21q6 1 12.5 1.5t11 1t8.5 1t6 0.5h3 q69 7 72 8q16 4 18 4q15 0 21 -15.5t6 -59.5v-17q-2 -16 -2 -43v-47q0 -11 0.5 -22t1 -20.5t0.5 -16.5q0 -13 -2 -59.5t-2 -51.5q0 -9 2 -53.5t2 -54.5q0 -12 -2 -48.5t-2 -40.5l2 -55l-2 -86q-3 -69 28 -69q16 0 35 8q16 8 21 8q12 0 18 6q4 0 9 -12t5 -19 q-3 -26 -5.5 -31.5t-16.5 -11.5q-1 0 -37 -18q-5 -3 -45 -19.5t-45 -19.5q-14 -6 -66 -29t-81 -35q-17 -10 -23 -10q-11 0 -14 15t0 28q0 2 -2 20t-2 21t2 12t2 11q0 4 -2 18.5t-2 36.5q0 23 -9 23l-4 -2q-2 -2 -28 -27q-55 -55 -127 -100q-75 -48 -164 -48q-68 0 -128.5 25 t-92.5 66q-48 59 -45 221l4 245q0 53 -4 119q0 7 2 31.5t2 30.5q0 46 -18 65.5t-64 20.5q-22 2 -31.5 10t-9.5 27z" />
<glyph unicode="v" horiz-adv-x="950" d="M-57 860q0 43 37 43q11 0 104.5 -6t126.5 -6q19 0 35 2h49q14 0 28 0.5t22.5 1t10.5 0.5q13 0 25.5 1t17.5 1q17 0 26.5 -3.5t14 -12t4.5 -23.5q0 -25 -9 -34t-34 -11q-71 -3 -71 -33q0 -11 6 -26q5 -10 35 -82l26 -62q28 -71 29 -73q12 -24 12 -29q18 -41 80 -186 q10 -13 10 -21q4 -12 7 -12l2 2l4 8q7 15 33 71t40 86.5t35 83.5t37 101l10 31q5 16 13.5 37t9.5 26q8 24 8 39t-12 26.5t-33 14.5q-36 4 -48.5 12t-12.5 25q0 6 5.5 21t8.5 16q18 6 49 6q8 0 16 -2q53 -2 103 -4q11 0 22 -1l11 -1l59 2q37 1 46 -6t9 -35q0 -19 -5 -25.5 t-25 -9.5q-47 -9 -64.5 -21t-34.5 -49q-12 -28 -42.5 -107t-55.5 -136q-10 -27 -14 -31q-8 -17 -68 -156l-10 -22q-2 -5 -15 -33t-24 -59q-10 -25 -17 -39q-38 -92 -59 -156q-6 -21 -11 -27.5t-18 -9.5q-28 -4 -30 -4q-42 0 -56 39q-15 46 -49 127q0 1 -7.5 14.5t-19.5 39.5 t-24 57l-18 49q-40 108 -58 140t-45 103q-10 25 -37 80l-22 56q-38 97 -59.5 119.5t-84.5 31.5q-34 6 -34 41z" />
<glyph unicode="w" horiz-adv-x="1400" d="M-57 866q0 37 39 37q25 0 43 -2h63l86 -2q30 -1 225.5 -3.5t235.5 -2.5l205 4q13 0 30 1t19 1q20 0 33.5 -8t11.5 -19l-6 -30q-4 -11 -39 -11q-32 0 -53 -13.5t-21 -33.5q0 -9 6 -24l156 -412q1 -4 4 -10q5 -16 7.5 -20.5t6.5 -4.5q3 0 10 9.5t11 21.5q128 320 149 383 l13 37q6 15 6 24q0 6 -2.5 11.5t-8 10t-13 8t-18 6t-22.5 3.5q-19 2 -26 9t-7 26q0 35 37 35l199 -6q11 0 22 -0.5t17.5 -0.5h12.5t9.5 -0.5t6 -1t4.5 -1.5q1 -1 2 -3.5t2.5 -6t2.5 -7t1 -4.5q-6 -31 -10.5 -36t-24.5 -5q-51 -6 -78 -40.5t-61 -133.5q-6 -21 -29 -78 q-5 -15 -37 -88l-33 -75q-11 -30 -33.5 -86t-25.5 -64l-51 -129q-8 -20 -8 -22l-43 -103q-8 -30 -16 -36t-46 -7q-15 -1 -25 9t-16 32q-10 39 -47 125q-4 8 -14 34t-21.5 59t-22.5 64t-20 56.5t-10 28.5q-31 76 -37 100q-11 33 -16 33q-2 -2 -2 -4q-2 -2 -4 -6 q-42 -114 -115 -291l-49 -127q-25 -63 -27 -72q-8 -25 -18.5 -33t-36.5 -8q-25 0 -34.5 7.5t-14.5 29.5l-19 45q-28 67 -53 145l-37 89q-13 32 -31.5 88t-37.5 98l-39 92q-1 1 -4 10.5t-10.5 29.5t-16.5 42l-14 37q-12 21 -27 63q-19 50 -40 70.5t-56 21.5q-28 2 -38.5 9 t-10.5 26zM313 799q0 -9 2 -15q2 0 7 -13.5t11.5 -34.5t10.5 -31q5 -12 37 -91q27 -67 70 -178l8 -24q3 -8 35 -86q6 -12 6 -17l6 -12q2 2 4 2q14 27 28.5 62t23.5 59.5t26 72.5t26 72l17 43q6 12 6 17q0 6 -6 18q0 5 -6 23q-14 47 -34.5 90.5t-31.5 52.5q-13 13 -34 15.5 t-128 2.5q-84 0 -84 -28z" />
<glyph unicode="x" horiz-adv-x="993" d="M14 23q0 24 5 29t30 7q76 6 150 86q16 22 33.5 45t41.5 53t35 44q90 110 90 119q0 5 -6 14q-51 72 -86 127l-47 65q-19 25 -56.5 82.5t-53.5 81.5q-13 19 -23 28t-23 12.5t-38 4.5q-28 0 -33.5 5.5t-5.5 33.5q0 22 4.5 28.5t21.5 6.5h13q32 0 74 -1.5t89 -2.5q31 0 72 2 l70 2l57 2h23q40 0 51 -6t10 -27t-3 -30t-6.5 -12t-15.5 -3q-10 0 -18 2h-14q-17 0 -30 -8.5t-13 -19.5q0 -9 29.5 -56t70.5 -104l31 -43q10 -17 16 -17q10 0 74 84q0 1 8 13q72 89 72 121q0 15 -13.5 22t-46.5 10q-10 1 -16 2.5t-10 4.5t-5 7.5t-1 12.5q0 26 6.5 36.5 t23.5 10.5q136 -8 156 -8q1 0 6 1t22.5 2t49.5 1h28q26 0 36.5 -2.5t14 -9t3.5 -23.5q0 -23 -6.5 -29.5t-32.5 -7.5q-54 -1 -85.5 -22.5t-78.5 -89.5q-22 -31 -68 -88q-86 -107 -86 -119q0 -6 22 -38.5t163 -234.5l14 -20q19 -29 33 -49.5t27.5 -37t24 -27.5t21 -18 t20.5 -10t21 -4q13 -1 20 -2.5t11 -5.5t5 -9.5t1 -16.5q0 -21 -5 -27t-23 -6q-21 0 -79.5 3t-76.5 3h-68q-48 0 -71 2h-37q-50 0 -96 -4h-13q-14 0 -19 7.5t-5 27.5t7 26.5t30 6.5q33 -1 53 9t20 27q0 15 -53 89q-44 60 -49 67l-37 49q-1 1 -2.5 4.5t-3 5.5t-3.5 5t-4.5 4.5 t-4.5 1.5q-3 0 -37 -37q-46 -53 -89.5 -115.5t-43.5 -75.5q0 -14 21 -25t56 -14q16 -2 21.5 -6t5.5 -16q0 -20 -3.5 -30t-12 -13.5t-25.5 -3.5q-8 0 -59 3t-76 3q-3 0 -63.5 -5t-92.5 -5q-28 0 -34.5 5.5t-6.5 27.5z" />
<glyph unicode="y" horiz-adv-x="931" d="M-49 854q0 7 5.5 23t8.5 18q12 4 98 4q6 0 56.5 -4t64.5 -4q9 0 70 3t80 3q76 0 95.5 -7t19.5 -34q0 -15 -6 -23t-19 -11.5t-37 -4.5q-26 0 -41.5 -11t-15.5 -26q0 -22 40.5 -119t94.5 -206l57 -121q2 -8 8 -12q4 0 9 10q15 31 64.5 149.5t66.5 155.5q47 106 47 139 q0 38 -55 47q-22 1 -29.5 6.5t-7.5 18.5q2 32 6.5 40.5t21.5 8.5q13 0 30 -3t73 -3h35l16 -2q23 2 47 2q5 1 13 1.5t21.5 1t24.5 1.5q37 0 37 -35q0 -19 -6.5 -27.5t-23.5 -11.5q-25 -4 -39 -7t-29.5 -12.5t-24.5 -19.5t-22 -34t-24 -50t-29 -73l-39 -101q-35 -75 -86 -207 l-43 -112q-1 -1 -58 -146q-23 -60 -61 -147l-53 -131q-59 -146 -132.5 -222.5t-156.5 -76.5q-58 0 -97.5 35t-39.5 88q0 49 36.5 81.5t92.5 32.5q29 0 94 -18q24 -4 33 -4q26 0 43.5 23.5t50.5 107.5q9 18 24 53t23 51l8 25l15 39l4 16q0 9 -11 31l-41 90q-30 79 -67 152 q-49 106 -53 116q-23 56 -54 123.5t-53 124.5q-38 99 -65.5 134t-73.5 42q-41 3 -41 29z" />
<glyph unicode="z" horiz-adv-x="882" d="M25 23q0 2 2 4q5 9 41 71l43 72q2 6 59 94q7 11 22.5 34t35 52.5t36.5 59.5l15 26q34 62 84 141.5t85 130.5t41 56l11 14q1 2 2 4.5t1.5 3.5t0.5 2l2 3q-6 9 -18 10.5t-76 1.5q-9 0 -39.5 2t-34.5 2q-79 -4 -96.5 -7t-36.5 -14q-26 -16 -41.5 -32t-42.5 -56 q-13 -22 -29 -22q-17 0 -33 10t-16 21q0 5 6 20q38 145 47 182q2 10 5 17.5t5 11.5t7.5 7t7 4t10.5 3.5t12 3.5q22 0 37 -30q11 -20 28.5 -27.5t55.5 -7.5q14 0 60 -1t79 -1l121 -1l60 -3l127 3q37 1 59 -2t30.5 -9t8.5 -15q0 -7 -12 -30t-33.5 -57.5t-48.5 -72.5 q-5 -8 -29 -49t-45 -75q-21 -35 -162 -246q-34 -49 -59 -90q-4 -4 -21 -35q-9 -18 -43 -72q-14 -17 -14 -22q-4 -12 -4 -13l-2 -2q0 -2 8 -10h18h8q9 -1 28.5 -2t41.5 -2q3 0 20.5 2t22.5 2t30 -2t30 -2q72 0 109 9.5t62 33t56 78.5q16 31 39 31q13 0 31 -10.5t16 -16.5 q0 -1 -13 -46.5t-14 -47.5q-17 -49 -26 -86q-5 -21 -13 -28t-28 -7q-15 0 -69 4t-77 4q-6 0 -52 -2t-52 -2l-137 2q-19 0 -79.5 -2t-74.5 -2l-127 2l-31 -2q-13 -1 -25.5 7.5t-12.5 19.5z" />
<glyph unicode="{" horiz-adv-x="696" d="M96 571q0 14 8 24.5t41 37.5q14 12 24.5 41t10.5 59l-2 117q0 24 2 93.5t2 94.5q0 21 -2 65t-2 87v35q0 103 13 156t47 87q22 22 50.5 28.5t98.5 6.5q137 0 160.5 -6t23.5 -43q0 -28 -14.5 -38.5t-54.5 -10.5q-41 1 -61 0.5t-40.5 -5t-27.5 -10t-13.5 -22t-7 -33.5 t-0.5 -51v-31q0 -20 1 -44t1 -52v-213q0 -18 -2 -116t-2 -119q-1 -52 -10.5 -75t-42.5 -56l-4 -5q35 -27 49.5 -60.5t11.5 -90.5l-2 -47l2 -62l-2 -75l2 -70q1 -20 -0.5 -41.5t-1.5 -42.5v-207q0 -39 0.5 -57.5t7 -38t12.5 -25.5t27 -12t41 -6.5t62 -1.5q43 -2 57 -10.5 t14 -34.5q0 -41 -38 -47h-170q-100 0 -140 51q-20 24 -34.5 71t-14.5 84v33q2 23 2 84q0 75 -0.5 142.5t-1 109t-0.5 51.5v45q0 19 2 39v49q0 56 -8.5 74t-52.5 58q-21 21 -21 36z" />
<glyph unicode="|" d="M426 -342v1708h170v-1708h-170z" />
<glyph unicode="}" horiz-adv-x="696" d="M123 1454q0 41 39 47h170q53 0 85 -11.5t54 -39.5q20 -24 34.5 -71.5t14.5 -84.5v-32q-2 -23 -2 -84q0 -74 0.5 -142t1 -110t0.5 -52v-83q-2 -20 -2 -50q0 -55 8.5 -73t53.5 -58q20 -20 20 -37q0 -10 -3 -16.5t-13 -16t-33 -28.5q-14 -12 -24.5 -41t-10.5 -59l2 -117 q0 -24 -2 -94t-2 -95q0 -21 2 -64.5t2 -86.5v-35q0 -104 -13 -157.5t-46 -86.5q-21 -21 -50 -27.5t-100 -6.5q-145 0 -166 8q-17 6 -18 30v11q0 14 3.5 23t12 15t21.5 8.5t33 2.5q108 -2 128.5 15t20.5 106v30q0 20 -1 44.5t-1 52.5v213q0 16 1 67l2 102t1 66 q2 53 11.5 76.5t41.5 52.5l4 6q-35 25 -49.5 60t-11.5 92l2 47l-2 61l2 76l-2 70q0 16 1 37.5t1 46.5v207q0 39 -0.5 57.5t-6.5 38t-12.5 25.5t-27 12t-40.5 6.5t-62 1.5q-43 2 -57.5 10.5t-14.5 34.5z" />
<glyph unicode="~" horiz-adv-x="1366" d="M270 1268q123 217 275 217q52 0 174 -41q110 -39 160 -39q97 0 176 98l41 -24q-52 -101 -126 -159t-151 -58q-49 0 -166 41q-77 26 -108.5 33t-67.5 7q-43 0 -72 -16.5t-77 -64.5l-19 -19z" />
<glyph unicode="&#xa1;" horiz-adv-x="514" d="M96 -360q0 32 11 107.5t28 150.5l15 79q5 11 8 43l6 52q7 60 31 174.5t34 175.5q3 26 10 34.5t25 8.5t23.5 -13t13.5 -73q1 -11 3 -23.5t3.5 -20.5t1.5 -9l8 -31l21 -121q16 -96 16 -106l23 -113q1 -6 2 -12.5t1.5 -10t0.5 -4.5l16.5 -115.5t11 -73.5t3.5 -22l4 -24 q4 -25 4 -60q0 -68 -44.5 -108.5t-117.5 -40.5q-75 0 -118.5 42t-43.5 114zM96 725q0 75 43.5 121.5t114.5 46.5q47 0 85 -20t59.5 -56t21.5 -80q0 -76 -44 -122t-116 -46q-71 0 -117.5 44.5t-46.5 111.5z" />
<glyph unicode="&#xa2;" horiz-adv-x="927" d="M113 594q0 96 13 152t54 135q61 119 221 184q17 8 21 18.5t4 53.5q0 33 -2 53v18q0 76 5.5 89.5t35.5 13.5q66 1 78 -4t12 -35v-15q-2 -4 -2 -24v-70q0 -64 8 -69q8 -3 41 -7q83 -7 130.5 -48t47.5 -103q0 -41 -24.5 -68.5t-59.5 -27.5q-40 0 -66.5 18t-51.5 62 q-49 86 -101 86q-41 0 -86.5 -35t-68.5 -86q-29 -60 -29 -170q0 -133 90.5 -238.5t204.5 -105.5q83 0 172 80q8 8 12 8q10 0 27.5 -14.5t17.5 -22.5q0 -10 -28 -50.5t-54 -68.5q-37 -39 -68.5 -59t-78.5 -33q-38 -12 -35 -35l2 -26l-2 -31l2 -113q0 -30 -6 -40.5t-21 -8.5 h-36q-44 0 -55 4.5t-11 22.5v84l-2 69q-2 58 -4 60q-5 5 -47 18q-118 35 -189 139t-71 240z" />
<glyph unicode="&#xa3;" horiz-adv-x="927" d="M37 47q0 26 16.5 53.5t42.5 46.5q14 11 29 18.5t82 37.5q50 23 71.5 39t43.5 45q32 48 32 108q0 32 -16 64.5t-68 105.5l-14 21q-32 44 -41.5 51.5t-38.5 7.5h-94q-26 0 -31.5 6.5t-5.5 38.5q0 37 10 43t70 6q20 0 20 11q0 2 -4 14q-29 56 -41 99t-12 95q0 157 118.5 260 t299.5 103q160 0 276 -78q40 -28 73.5 -65t33.5 -54q0 -10 -37 -83q-13 -25 -21 -40q-27 -48 -40 -79q-15 -31 -29 -31q-19 0 -47.5 18.5t-28.5 30.5q0 8 2 14q23 58 23 111q0 58 -59.5 109t-125.5 51q-83 0 -131.5 -53t-48.5 -144q0 -46 21.5 -96t74.5 -127q5 -7 15.5 -25 t19 -26.5t19.5 -10.5h49q5 0 28 -1t41 -1h125q23 0 23 -20v-55q0 -19 -23 -19q-12 0 -24 -2h-31l-111 2q-20 0 -20 -10q0 -4 4 -12q29 -50 29 -103q0 -60 -53 -131t-132 -117q-30 -18 -30 -28q0 -13 32 -13q75 -5 158 -22q93 -18 127 -18q39 0 74 24t47 59q5 14 9 18.5 t11 4.5q58 0 58 -20l-2 -15q-34 -129 -49 -192q-11 -42 -11 -49q-1 -17 -5 -21.5t-19 -9.5q-63 -23 -117 -23q-149 0 -272 111q-68 65 -113 65q-26 0 -40.5 -12.5t-31.5 -52.5q-23 -57 -47.5 -82t-56.5 -25q-40 0 -63 20t-23 54z" />
<glyph unicode="&#xa4;" horiz-adv-x="1202" d="M98 1116q0 9 13.5 25.5t27.5 27.5q25 25 39 25q16 0 39 -23l45 -47q46 -43 49 -47q10 -14 19 -14q3 0 14 8q51 32 122 53t132 21q130 0 266 -86q10 0 119 112q22 25 39 25q14 0 39 -25l16 -16q25 -25 25 -39q0 -16 -23 -39l-49 -49l-51 -51q-14 -14 -14 -19q0 -4 2 -4 q77 -131 77 -256q0 -128 -69 -243q-12 -18 -12 -21q0 -6 14 -20l100 -99q23 -23 23 -39q0 -12 -23 -38l-18 -17q-21 -24 -39 -24t-39 24q-17 19 -51.5 49.5t-44.5 46.5q-15 15 -21 15q-8 -4 -16 -10q-121 -74 -252 -74q-127 0 -258 80l-4 2l-115 -109q-27 -24 -39 -24 q-15 0 -39 24l-18 17q-23 26 -23 38q0 17 25 39q41 41 45 47q44 44 49 48q14 10 14 18q0 3 -8 14q-42 68 -60 124.5t-18 121.5q0 61 22.5 135.5t59.5 134.5q2 2 2 5q0 9 -108 112q-25 22 -25 41zM285 694q0 -129 90.5 -222t216.5 -93q129 0 222 90.5t93 216.5 q0 141 -89.5 235.5t-221.5 94.5q-126 0 -218.5 -96t-92.5 -226z" />
<glyph unicode="&#xa5;" horiz-adv-x="1255" d="M-6 1237q2 32 3 39t7 10q6 4 86 4q1 0 16 -1t41.5 -2t55.5 -1l135 -2q16 0 113 4t110 4q34 0 43.5 -5.5t9.5 -26.5q0 -31 -8.5 -36.5t-62.5 -6.5q-84 0 -84 -35q0 -14 28 -58.5t142 -210.5l16 -26q40 -71 57 -88l21 -29q10 -20 18 -20t72 108q26 45 47 74 q131 192 131 235q0 25 -22.5 34t-85.5 11q-25 0 -31 6.5t-6 32.5q0 24 5 30.5t23 6.5h15q14 0 88 -2t86 -2q3 0 24 2t58 4t78 2h10q19 0 25 -9.5t6 -37.5q0 -15 -6 -21t-25 -7q-60 -7 -90.5 -39t-153.5 -215q-27 -46 -57 -86l-64 -95h107q107 0 125 -2.5t18 -17.5v-55 q0 -19 -24 -19q-13 0 -23 -2h-51q-17 0 -58.5 1t-48.5 1q-51 0 -104 -2q-22 -31 -28.5 -48t-6.5 -42q0 -6 2 -59h246q60 0 71 -3t11 -18v-55q0 -19 -23 -19q-12 0 -24 -2h-78q-19 0 -43 1t-29 1q-49 0 -131 -2l2 -133q1 -42 1 -60.5t2.5 -47t3 -38.5t7 -28t9 -22t15 -14 t19 -11.5t26.5 -6.5t33 -6.5t42 -4.5q19 -1 25 -9t6 -30q0 -33 -35 -33q-24 0 -80.5 2t-89.5 2q-176 0 -293 -8q-70 -4 -92 -4t-28.5 7t-6.5 30q0 25 5 30.5t28 7.5q32 1 48.5 2t35.5 7.5t27 11.5t17.5 23t12 32.5t5.5 50t3 66v88.5q0 4 -1 21.5t-1 44.5v30h-43q-14 0 -41 1 t-39 1q-17 0 -47.5 -1t-44.5 -1h-31q-60 0 -69.5 5.5t-9.5 39.5q0 35 4.5 42.5t27.5 7.5l234 -7q1 0 59 7v40q0 21 -4 33q0 4 -7.5 17.5t-19 32t-16.5 28.5q-49 2 -86 2q-15 0 -46 -1t-50 -1h-78q-23 0 -28 7t-5 38q0 34 5 41.5t28 7.5l123 -2l76 -2q-30 43 -35 53l-184 269 q-50 70 -75.5 87.5t-92.5 24.5q-23 3 -28 7.5t-5 19.5z" />
<glyph unicode="&#xa6;" d="M426 313h170v-655h-170v655zM426 655v711h170v-711h-170z" />
<glyph unicode="&#xa7;" horiz-adv-x="929" d="M55 850q0 120 35 210t115 175q45 48 77.5 71.5t82.5 43.5q88 36 174 36q50 0 91 -7t77 -22t56.5 -43.5t20.5 -68.5q0 -46 -31 -74t-83 -28q-40 0 -63 13t-60 56q-36 41 -60 56.5t-53 15.5q-48 0 -78 -35t-30 -92q0 -72 49 -145l67 -109q18 -32 74 -102q170 -215 244 -352 q44 -77 84 -197q33 -97 33 -205q0 -80 -21 -149.5t-70 -155.5q-33 -59 -102 -120t-127 -83q-54 -20 -97.5 -26.5t-113.5 -6.5q-126 0 -184 39q-66 45 -66 111q0 51 35.5 83t93.5 32q54 0 105 -68q68 -98 137 -98q44 0 77.5 36t33.5 83q0 62 -49.5 166t-129.5 212 q-48 64 -122.5 178.5t-112.5 182.5q-50 87 -79.5 192t-29.5 195zM168 893q-3 -66 33.5 -170.5t85.5 -177.5q68 -114 219 -330l10 -20q5 -10 21 -33.5t24 -36.5q62 -89 86.5 -156t24.5 -139q0 -53 -19 -106v-5q0 -8 6 -8q9 0 27 27t33 63q30 66 38.5 100.5t8.5 88.5 q0 141 -82 293q-62 117 -188 288q-44 59 -66 97l-57 82q-71 100 -103 185t-32 175v18q2 10 2 23q0 8 -7 8q-8 0 -38 -67q-11 -29 -14.5 -42t-7 -49t-5.5 -108z" />
<glyph unicode="&#xa8;" d="M186 1208q0 50 36 85.5t85 35.5q52 0 88.5 -36t36.5 -87t-35.5 -87t-85.5 -36q-55 0 -90 34.5t-35 90.5zM594 1208q0 50 36 85.5t85 35.5q52 0 88.5 -36t36.5 -87t-35.5 -87t-85.5 -36q-55 0 -90 34.5t-35 90.5z" />
<glyph unicode="&#xa9;" horiz-adv-x="1562" d="M68 696q0 137 49 262.5t141 223.5q83 93 244 174q103 53 260 53q184 0 318 -60.5t235 -189.5q83 -104 131.5 -232t48.5 -241q0 -112 -45 -239.5t-117 -221.5q-101 -131 -240 -199.5t-302 -68.5q-142 0 -278 52t-228 141q-114 110 -165.5 240.5t-51.5 305.5zM152 692 q0 -160 49 -279t155 -216q79 -73 195.5 -115.5t236.5 -42.5q150 0 275.5 64.5t216.5 187.5q58 78 94.5 187.5t36.5 205.5q0 102 -48 221t-126 213q-88 103 -202 152t-269 49q-98 0 -164 -20t-151 -74q-146 -95 -222.5 -231t-76.5 -302zM309 682q0 188 135 311 q75 68 158.5 97.5t200.5 29.5q76 0 152.5 -15t123.5 -42q14 -8 19 -15t6 -24l10 -76q1 -9 2.5 -23.5t2.5 -24.5t1 -13q0 -25 -37 -25q-15 0 -28 31q-72 162 -256 162q-114 0 -209 -103q-35 -38 -62.5 -114.5t-27.5 -137.5q0 -175 94.5 -281t247.5 -106q63 0 145 43 q19 9 33.5 28.5t58.5 94.5q7 15 19 15q15 0 30 -8.5t15 -16.5t-2 -14l-8 -21l-5 -18q0 -4 -11 -38t-11 -38l-4 -23q-4 -26 -62.5 -43t-120.5 -22.5t-118 -5.5q-97 0 -183.5 25.5t-142.5 70.5q-166 138 -166 340z" />
<glyph unicode="&#xaa;" horiz-adv-x="663" d="M72 956q0 14 10 28.5t29.5 29t47.5 28.5t64 27l37 14q39 16 49 17l33 12q17 6 20 14.5t3 53.5q0 33 -4.5 48.5t-16.5 24.5q-12 10 -36.5 17.5t-47.5 7.5q-16 0 -32.5 -6t-27 -15t-10.5 -18q12 -22 13 -29q0 -5 -4 -9t-11 -8.5t-22 -10.5q-5 -2 -25.5 -14.5t-27.5 -12.5 q-10 0 -18.5 17.5t-8.5 39.5t16.5 45.5t44.5 40.5l31 23q3 3 16 10t34.5 19t39.5 22q34 19 49 19q44 0 92.5 -16t71.5 -38q23 -23 29 -71q2 -25 2 -60q0 -53 2 -90q0 -3 -2 -24l-2 -21l2 -70q0 -3 -3 -20.5t-3 -19.5q0 -41 18 -41q12 8 39 24q2 2 4 2q6 0 15.5 -8t9.5 -14 l-10 -25q-15 -42 -48 -69t-69 -27q-40 0 -68 24t-32 62v8q-2 0 -9 -10q-13 -26 -70 -54t-96 -28q-14 0 -39.5 10.5t-35.5 20.5q-13 12 -28 53.5t-15 66.5zM219 981q9 -47 20 -63.5t33 -16.5t57.5 27.5t35.5 44.5q-5 10 -5 14l5 35l-3 27l7 14q0 4 -4 4q-17 -6 -27 -12 l-84 -37q-38 -23 -35 -37z" />
<glyph unicode="&#xab;" horiz-adv-x="829" d="M0 453q0 15 33 39l15 12t32 28q36 36 117.5 101.5t101.5 83.5q83 71 94 71q6 0 13.5 -7t7.5 -13q0 -18 -60 -94l-32 -58q-27 -44 -39 -61q-56 -87 -56 -100q0 -20 72 -127l27 -39q19 -28 26 -41q8 -8 31 -47l25 -41q8 -11 8 -23q0 -9 -7.5 -16.5t-15.5 -7.5q-9 0 -60 41 t-112 98l-16 14q-9 8 -38.5 32t-54.5 45t-52.5 44.5t-43.5 41t-16 24.5zM387 453q0 15 33 39q5 4 11.5 9t14.5 12t21 19q28 28 70 62.5t85 68.5t64 54q83 71 94 71q6 0 13.5 -7t7.5 -13q0 -18 -60 -94l-32 -58q-27 -44 -39 -61q-56 -87 -56 -100q0 -9 22.5 -48.5t49.5 -78.5 l27 -39q19 -28 26 -41l13 -19l26 -45l17 -24q8 -11 8 -23q0 -9 -7.5 -16.5t-15.5 -7.5q-9 0 -60 41t-112 98l-16 14q-92 78 -100 84q-58 46 -81.5 69.5t-23.5 33.5z" />
<glyph unicode="&#xac;" d="M66 426v121h892v-547h-282v426h-610z" />
<glyph unicode="&#xad;" horiz-adv-x="532" d="M35 389v119q0 26 9.5 30.5t64.5 4.5q14 0 55 -4h20l105 2h82q20 0 38 1t21 1h8q14 -2 25 -2l22 2q10 1 12 -8q3 -13 3 -107q0 -48 -5.5 -58.5t-29.5 -9.5l-21 -2h-12q-17 0 -31 2h-127l-12 -2q-168 -2 -197.5 2t-29.5 29z" />
<glyph unicode="&#xae;" horiz-adv-x="1562" d="M68 696q0 137 49 262.5t141 223.5q83 93 244 174q103 53 260 53q184 0 318 -60.5t235 -189.5q83 -104 131.5 -232t48.5 -241q0 -112 -45 -239.5t-117 -221.5q-101 -131 -240 -199.5t-302 -68.5q-142 0 -278 52t-228 141q-114 110 -165.5 240.5t-51.5 305.5zM152 692 q0 -160 49 -279t155 -216q79 -73 195.5 -115.5t236.5 -42.5q150 0 275.5 64.5t216.5 187.5q58 78 94.5 187.5t36.5 205.5q0 102 -48 221t-126 213q-88 103 -202 152t-269 49q-98 0 -164 -20t-151 -74q-146 -95 -222.5 -231t-76.5 -302zM391 287q0 15 7 21.5t24 6.5 q55 3 71.5 27t12.5 100l-2 33q-2 8 -2 17l4 81l-2 76q0 6 2 30t2 28q0 23 -4 43l-2 38q0 7 2 36.5t2 37.5q0 110 -8 150q-4 19 -19.5 24.5t-60.5 5.5q-15 0 -21 7t-6 24q0 21 10 27t45 6q1 0 154 -6q19 0 83 4t77 4q101 -6 135 -13.5t70 -33.5q43 -32 68.5 -74.5t25.5 -81.5 q0 -65 -33 -98q-30 -38 -61 -51q-61 -27 -66 -27q-13 -3 -14 -6q15 -12 23 -19t10.5 -10t9 -11t10.5 -13q26 -33 27 -33q48 -77 77 -125q70 -118 102 -150t83 -40q26 -5 26 -27q0 -33 -39 -33q-6 0 -12 2h-59l-37 2h-10q-6 0 -13 -1t-16 -1q-20 0 -43 -2q-16 0 -28.5 11.5 t-37.5 52.5l-188 315q-13 22 -24.5 28.5t-43.5 12.5q-34 -3 -34 -8l2 -17l-2 -30q0 -2 2 -12.5t2 -12.5q-1 -15 -2 -33t-1.5 -27.5t-0.5 -13.5l2 -45l-2 -32q0 -13 2 -29v-12q0 -58 13 -73t67 -18q26 0 26 -30q0 -29 -28 -29l-41 2q-46 0 -97 6l-14 -2q-1 0 -70 -6t-104 -6 q-31 0 -31 33zM668 745q0 -2 6 -4l20 2q4 0 8 -2h7q53 6 76.5 12t43.5 19q22 15 39 51.5t17 69.5q0 24 -6.5 46.5t-19 42t-29.5 34t-39.5 23t-47.5 8.5q-36 0 -57.5 -17t-17.5 -51l2 -25l-2 -73l2 -47v-13q-2 -10 -2 -28q0 -5 4 -21z" />
<glyph unicode="&#xaf;" d="M197 1139q0 8 7 33t13 38q6 15 14 20t27 5h530q23 0 32 -5.5t9 -19.5q0 -11 -8 -41.5t-14 -40.5q-3 -8 -10.5 -10t-30.5 -2h-530q-39 0 -39 23z" />
<glyph unicode="&#xb0;" horiz-adv-x="516" d="M41 1219q0 89 62.5 153t150.5 64q107 0 168 -76q53 -65 53 -143q0 -92 -63.5 -158t-151.5 -66q-95 0 -157 64t-62 162zM150 1214q0 -50 30.5 -81t79.5 -31q43 0 75 33t32 77q0 46 -32.5 78.5t-78.5 32.5q-44 0 -75 -32t-31 -77z" />
<glyph unicode="&#xb1;" d="M109 86q0 29 4 42.5t14.5 19.5t32.5 6h2.5t6.5 0.5t8.5 1t11.5 0.5h14h47l209 -4l49 2l108 -2l230 2q29 0 43.5 -3.5t20 -12t5.5 -25.5q0 -18 -3.5 -48t-6.5 -36q-3 -7 -4.5 -9.5t-11 -5t-23 -2.5h-45.5h-141q-63 0 -175.5 -1t-162.5 -1h-29q-23 0 -71.5 2t-63.5 2 l-22 -2q-26 -3 -36.5 14t-10.5 60zM109 563q0 42 9.5 55t41.5 13l6 0.5t16 1t21 0.5h47q16 0 70 -1t81 -1h41q2 25 2 45q0 14 -0.5 35t-1.5 60t-2 81t7.5 56t33.5 14q17 0 47.5 -4t36.5 -7q12 -5 14.5 -14.5t2.5 -54.5v-23l2 -190h145q40 0 78.5 1l38.5 1q29 0 43.5 -3.5 t20 -12t5.5 -25.5q0 -18 -3.5 -48t-6.5 -36q-3 -7 -4.5 -9.5t-11 -5t-23 -2.5h-45.5h-37q-23 0 -65.5 -1t-61.5 -1h-73v-100q0 -15 -2 -62.5t-2 -56.5l2 -24q2 -26 -14.5 -36.5t-59.5 -10.5q-14 0 -22 0.5t-17 2t-12.5 5l-9 9t-5.5 14t-3 20.5t-1.5 28t0.5 37l2 136v38h-127 q-22 0 -71.5 2.5t-63.5 2.5l-22 -3q-13 -2 -22 1.5t-14.5 12.5t-8 23.5t-2.5 36.5z" />
<glyph unicode="&#xb2;" horiz-adv-x="600" d="M29 551q0 24 24 41q41 31 101.5 92.5t117.5 130.5q74 91 96.5 136.5t22.5 103.5q0 53 -39 93t-90 40q-41 0 -69.5 -17t-65.5 -63q-8 -12 -14 -12q-8 0 -22.5 12.5t-14.5 19.5t8 15q0 2 16 24q40 64 104.5 104t129.5 40q40 0 81.5 -13.5t63.5 -33.5q31 -28 49.5 -69 t18.5 -79q0 -63 -23.5 -116.5t-77.5 -118.5q-41 -52 -108 -111l-57 -51l-56 -45q-9 -9 -12 -15q24 -4 90 -4h90h18t15.5 -0.5t11.5 -1t8 -0.5h3q4 0 18.5 2t17.5 2q47 -1 58.5 -4.5t11.5 -15.5q0 -4 -6 -10q-8 -12 -23 -41q-36 -70 -65 -70q-2 0 -6 0.5l-12 1.5t-15 2 l-168 2h-41q-5 0 -68 -3t-85 -3q-37 0 -37 35z" />
<glyph unicode="&#xb3;" horiz-adv-x="600" d="M51 582q0 25 21.5 42t50.5 17q38 0 76 -33q12 -10 31 -18t28 -6q49 7 63.5 13t28.5 24q17 22 28 57.5t11 69.5q0 61 -51 112q-26 26 -41.5 32.5t-52.5 6.5q-25 0 -34 6t-9 23t24 24q51 17 97.5 63.5t46.5 80.5q0 31 -38 63.5t-73 32.5q-19 0 -39 -12l-20 -17l-17 -10 q-2 -2 -4 -2q-26 13 -26 27q0 8 19 34t36 39q60 60 135 60q55 0 107.5 -43t52.5 -88q0 -18 -11 -51t-22 -48q-11 -18 -30 -38t-27 -25q-12 -5 -17 -10q0 -2 -2 -4q1 0 3 -1t5.5 -2t6.5 -2q60 -20 104 -92q40 -65 37 -108q-3 -65 -8 -81.5t-31 -51.5q-57 -79 -145 -125 q-35 -19 -82 -32t-78 -13q-66 0 -110 24.5t-44 61.5z" />
<glyph unicode="&#xb4;" d="M401 1049q0 4 68 75q2 0 16 17q12 15 56 59l45 47q70 76 107 103.5t69 27.5q29 0 55.5 -21t26.5 -46q0 -31 -32.5 -62.5t-106.5 -72.5q-11 -6 -26.5 -15t-27.5 -15.5t-26.5 -15.5t-26.5 -16q-38 -20 -88 -49q-43 -25 -53 -25q-2 -2 -19 -2q-8 0 -20 -2q-6 0 -11.5 4 t-5.5 9z" />
<glyph unicode="&#xb5;" horiz-adv-x="1060" d="M33 836q0 9 2 15.5t6 11t10.5 7.5t15 4.5t19.5 2.5q20 2 242 26q15 6 24 6q7 0 15 -7t8 -13l-2 -37q0 -4 2 -17.5t2 -17.5q0 -3 -2 -24.5t-2 -24.5l4 -86l-4 -72q4 -44 4 -67q0 -15 -3 -68t-3 -61l6 -113q2 -50 11.5 -77t35.5 -48q50 -41 123 -41q28 0 51.5 6.5 t49.5 21.5t63 42q30 23 34.5 31t6.5 36l2 39q0 6 0.5 12.5t0.5 10t0.5 7l0.5 3.5q0 5 -2 32.5t-2 31.5q0 35 0.5 67.5t1 53.5t0.5 47.5t-1 61.5t-3 83q-2 45 -11.5 57t-58.5 25l-41 -4q-7 0 -14 11.5t-7 23.5q0 21 11.5 29.5t36.5 8.5l151 21q6 1 12.5 1.5t11 1t8.5 1t6 0.5 h3q69 7 72 8q16 4 18 4q15 0 21 -15.5t6 -59.5v-17q-2 -16 -2 -43v-47q0 -11 0.5 -22t1 -20.5t0.5 -16.5q0 -13 -2 -59.5t-2 -51.5q0 -9 2 -53.5t2 -54.5q0 -12 -2 -48.5t-2 -40.5l2 -55l-2 -86q-3 -69 28 -69q16 0 35 8q16 8 21 8q12 0 18 6q4 0 9 -12t5 -19 q-3 -26 -5.5 -31.5t-16.5 -11.5q-1 0 -37 -18q-5 -3 -45 -19.5t-45 -19.5q-14 -6 -66 -29t-81 -35q-17 -10 -23 -10q-11 0 -14 15t0 28q0 2 -2 20t-2 21t2 12t2 11q0 4 -2 18.5t-2 36.5q0 23 -9 23l-4 -2q-2 -2 -28 -27q-55 -55 -127 -100q-73 -48 -162 -48q-76 0 -135 27 q55 -212 55 -321q0 -60 -32 -95t-87 -35q-60 0 -95.5 38.5t-35.5 103.5q0 88 39 225q35 123 35 215q-1 3 -4 12.5t-3.5 14t-3 23.5t-1.5 40t0 64l4 245q0 53 -4 119q0 7 2 31.5t2 30.5q0 46 -18 65.5t-64 20.5q-22 2 -31.5 10t-9.5 27z" />
<glyph unicode="&#xb6;" horiz-adv-x="1202" d="M74 1024q0 164 115.5 270.5t293.5 106.5q25 0 126.5 -5t140.5 -5h57q18 -2 33 -2q12 0 118.5 7t118.5 7q43 0 43 -45q0 -22 -14 -29t-62 -10q-49 -3 -67.5 -8t-32.5 -19q-14 -18 -14 -53q-1 -3 -1 -18v-54.5t-1 -83.5l-2 -118q-1 -26 -2 -56t-1.5 -46t-0.5 -23 q0 -41 2 -80q1 -29 1 -56.5v-58.5v-118.5t1 -202.5l2 -275l-2 -119q-3 -119 49 -141q12 -6 104 -18q26 -3 34.5 -11.5t8.5 -31.5q0 -20 -8.5 -29.5t-23.5 -7.5q-76 6 -136 6l-67 4l-80 -2q-23 2 -37 22t-14 54q0 22 5 83.5t5 82.5l-2 86l4 114l-4 230v473l-2 65l2 97l-2 124 l2 70q-6 65 -8.5 78t-10.5 18q-1 1 -11.5 6t-12.5 5q-21 -6 -25.5 -9t-7.5 -12q-4 -17 -6 -203l-2 -118q-1 -26 -2 -56t-1.5 -46t-0.5 -25q0 -39 2 -78q1 -29 1 -56.5v-59v-119t1 -203.5l2 -273l-2 -84l4 -194q-3 -33 -21 -54t-42 -20l-62 2q-45 2 -88.5 0t-71.5 -5t-30 -3 q-47 0 -47 43q0 23 13.5 32t49.5 9q105 0 119 32q10 19 14 136l4 198l-4 318q-1 43 -1 102q-1 86 -5 86q-2 0 -6 -4q-6 -4 -166 -14q-22 -1 -80 41t-92 84q-42 53 -68 127.5t-26 142.5z" />
<glyph unicode="&#xb7;" horiz-adv-x="436" d="M61 444q0 69 44.5 116.5t109.5 47.5q72 0 118 -43t46 -112q0 -38 -16.5 -73t-43.5 -56q-26 -20 -47.5 -26.5t-58.5 -6.5q-68 0 -110 42t-42 111z" />
<glyph unicode="&#xb8;" d="M279 -373q0 7 6 13q2 4 5.5 12t5.5 12t5.5 8t7.5 4q7 0 19 -6q58 -28 121 -28q37 0 64.5 11t42.5 30.5t15 44.5q0 28 -23.5 50t-53.5 19q-51 -6 -70 -6q-6 0 -10 4t-4 10q0 9 47 123l12 31q6 17 10.5 20t26.5 3q20 0 25.5 -1.5t5.5 -7.5q0 -4 -5 -14q-4 -6 -11.5 -24 t-13.5 -33.5t-7 -16.5q-4 -12 -4 -14q0 -10 18 -10q13 0 40.5 3t33.5 3q68 0 111.5 -34.5t43.5 -88.5q0 -34 -22 -70.5t-55 -54.5q-32 -19 -83.5 -33t-86.5 -14q-61 0 -139 20t-78 35z" />
<glyph unicode="&#xb9;" horiz-adv-x="600" d="M84 1135q0 5 41 34q24 17 41 29q50 39 82 68q43 41 63 41q43 0 55.5 -5t12.5 -22t-2 -33v-63l-2 -31l6 -63q-2 -150 -4 -275v-31q0 -18 2 -30v-23q0 -4 -0.5 -10t-1.5 -17.5t-2 -21.5l6 -72q3 -28 16.5 -37t57.5 -12q24 -3 24 -22q0 -15 -12.5 -20t-54.5 -5q-17 0 -39 2 t-31 2q-11 0 -23 -2l-43 -2q-12 -1 -30 -1t-23 -1q-37 -6 -49 -6q-27 0 -27 26q0 15 6 21t21 8q71 3 68 70q-2 47 -2 69v43q0 16 -1 33t-1 19v118l2 68q0 57 -4 135l4 35q-4 12 -2 18v5h-2q-5 -2 -60 -38t-61 -36t-18.5 14.5t-12.5 20.5z" />
<glyph unicode="&#xba;" horiz-adv-x="684" d="M53 1073q0 145 103 238q35 34 85.5 53.5t100.5 19.5q124 0 207.5 -81t83.5 -201q0 -123 -84.5 -211t-204.5 -88t-205.5 79.5t-85.5 190.5zM215 1145q0 -43 7.5 -88.5t23 -88.5t44.5 -70.5t66 -27.5q23 0 47.5 12t34.5 29q29 53 29 111q0 123 -27 203q-15 43 -44 67.5 t-66 24.5q-52 0 -83.5 -47t-31.5 -125z" />
<glyph unicode="&#xbb;" horiz-adv-x="829" d="M27 764q0 9 6.5 15.5t15.5 8.5q5 1 30.5 -18t63.5 -51t78 -70l17 -14q92 -78 100 -84q58 -46 81 -69t23 -33q0 -16 -32 -39q-3 -2 -42.5 -37.5t-58.5 -50.5l-213 -179q-35 -30 -47 -30q-6 0 -13 7t-7 13q0 19 59 94l33 58q27 44 39 61q55 85 55 100q0 20 -72 127l-26 39 q-23 33 -27 41l-12 19q-26 40 -43 69q-8 11 -8 23zM414 764q0 9 6.5 15.5t15.5 8.5q7 1 58.5 -40.5t113.5 -98.5l17 -14q92 -78 100 -84q58 -46 81 -69t23 -33q0 -16 -32 -39q-3 -2 -42.5 -37.5t-58.5 -50.5l-213 -179q-35 -30 -47 -30q-6 0 -13 7t-7 13q0 19 59 94l33 58 q27 44 39 61q55 85 55 100q0 9 -22.5 48.5t-49.5 78.5l-26 39q-23 33 -27 41l-12 19q-26 40 -43 69q-8 11 -8 23z" />
<glyph unicode="&#xbc;" horiz-adv-x="1464" d="M84 1135q0 5 41 34q24 17 41 29q50 39 82 68q43 41 63 41q43 0 55.5 -5t12.5 -22t-2 -33v-63l-2 -31l6 -63q-2 -150 -4 -275v-31q0 -18 2 -30v-23q0 -4 -0.5 -10t-1.5 -17.5t-2 -21.5l6 -72q3 -28 16.5 -37t57.5 -12q24 -3 24 -22q0 -15 -12.5 -20t-54.5 -5q-17 0 -39 2 t-31 2q-11 0 -23 -2l-43 -2q-12 -1 -30 -1t-23 -1q-37 -6 -49 -6q-27 0 -27 26q0 15 6 21t21 8q71 3 68 70q-2 47 -2 69v43q0 16 -1 33t-1 19v118l2 68q0 57 -4 135l4 35q-4 12 -2 18v5h-2q-5 -2 -60 -38t-61 -36t-18.5 14.5t-12.5 20.5zM412 8q0 4 14 37q0 1 8 21 q28 73 55 131q1 3 5.5 14.5t14 34.5t17.5 45q4 10 28.5 65t37.5 84q23 53 44.5 105t36 88t19.5 49q30 75 76 182l51 117q35 86 47 123q40 85 60 139l8 23q4 13 8.5 16.5t15.5 5.5q37 2 52 2h24l6 2q5 0 9 -3t4 -7q0 -7 -6 -25q-39 -85 -111 -266l-16 -35q-58 -139 -175 -417 q-96 -237 -124 -303l-13 -29q-38 -90 -41 -101q-26 -63 -28 -65q-9 -29 -14.5 -35t-20.5 -6h-66q-26 0 -26 8zM913 238q-9 47 -5 65.5t28 52.5q32 42 85 115.5t73 99.5q4 4 36 50q18 23 58 79q2 2 41 58q12 12 12 16q14 23 45 23q9 0 15.5 -1t11.5 -2.5t7.5 -6t4 -7.5t2 -12 t0.5 -14.5v-19.5v-23q0 -3 -2 -20.5t-2 -20.5q0 -6 2 -34.5t2 -33.5q-2 -23 -2 -43q0 -8 -2 -43q0 -6 2 -32t2 -29q0 -8 -2 -30t-2 -30q0 -4 4 -24l-2 -19q3 -7 9 -8.5t32 -1.5q39 -2 47 -7t8 -34q0 -11 -4 -29l4 -26q1 -7 -7.5 -13t-20.5 -6h-29l-25 -2l-4 2q-6 0 -8 -8 t-2 -31q0 -1 0.5 -3t1 -9t0.5 -20v-113l2 -20q0 -9 -8 -16t-18 -7h-19q-6 2 -12 2q-9 0 -15 -2h-14q-44 0 -51.5 5.5t-7.5 39.5v39q2 18 2 37q0 21 -2 31v10l2 26q2 33 -4 39q-2 2 -70 2l-127 -2h-26t-18.5 0.5t-13 1t-8 2t-4.5 3t-2 4.5zM1006 352q3 -9 9 -10.5t38 -1.5 q85 0 110 4l15 -2q2 0 5 1.5t4.5 3.5t0.5 3l-2 27v29l2 73q3 97 -4 125l-19 -26q-114 -155 -135 -187q-4 -4 -8.5 -13t-8 -14.5t-5.5 -5.5z" />
<glyph unicode="&#xbd;" horiz-adv-x="1464" d="M84 1135q0 5 41 34q24 17 41 29q50 39 82 68q43 41 63 41q43 0 55.5 -5t12.5 -22t-2 -33v-63l-2 -31l6 -63q-2 -150 -4 -275v-31q0 -18 2 -30v-23q0 -4 -0.5 -10t-1.5 -17.5t-2 -21.5l6 -72q3 -28 16.5 -37t57.5 -12q24 -3 24 -22q0 -15 -12.5 -20t-54.5 -5q-17 0 -39 2 t-31 2q-11 0 -23 -2l-43 -2q-12 -1 -30 -1t-23 -1q-37 -6 -49 -6q-27 0 -27 26q0 15 6 21t21 8q71 3 68 70q-2 47 -2 69v43q0 16 -1 33t-1 19v118l2 68q0 57 -4 135l4 35q-4 12 -2 18v5h-2q-5 -2 -60 -38t-61 -36t-18.5 14.5t-12.5 20.5zM412 8q0 4 14 37q0 1 8 21 q28 73 55 131q1 3 5.5 14.5t14 34.5t17.5 45q4 10 28.5 65t37.5 84q23 53 44.5 105t36 88t19.5 49q30 75 76 182l51 117q35 86 47 123q40 85 60 139l8 23q4 13 8.5 16.5t15.5 5.5q37 2 52 2h24l6 2q5 0 9 -3t4 -7q0 -7 -6 -25q-39 -85 -111 -266l-16 -35q-58 -139 -175 -417 q-96 -237 -124 -303l-13 -29q-38 -90 -41 -101q-26 -63 -28 -65q-9 -29 -14.5 -35t-20.5 -6h-66q-26 0 -26 8zM895 35q0 9 7.5 21.5t17.5 19.5q20 15 47 39t55.5 53t59 62.5t57.5 66.5q74 92 96 138t22 104q0 53 -39 93t-90 40q-41 0 -69.5 -17t-65.5 -63q-8 -12 -14 -12 q-5 0 -14 6t-16 13.5t-7 12.5q0 7 8 15l17 24q40 64 104 104t129 40q40 0 82 -13.5t64 -33.5q30 -27 48.5 -68t18.5 -80q0 -63 -23 -116.5t-77 -118.5q-39 -49 -109 -111q-58 -53 -112 -96q-11 -11 -13 -15q24 -4 90 -4h91q14 0 26.5 -0.5t19.5 -1l7 -0.5q4 0 18.5 2t18.5 2 q69 0 69 -20q0 -4 -6 -10q-3 -5 -22 -41q-37 -70 -66 -70q-14 0 -84.5 3t-116.5 3h-41q-8 0 -22.5 -0.5t-41.5 -1.5t-50 -2q-8 -1 -17.5 -2t-14 -1.5t-5.5 -0.5q-37 0 -37 37z" />
<glyph unicode="&#xbe;" horiz-adv-x="1464" d="M51 582q0 25 21.5 42t50.5 17q38 0 76 -33q12 -10 31 -18t28 -6q49 7 63.5 13t28.5 24q17 22 28 57.5t11 69.5q0 61 -51 112q-26 26 -41.5 32.5t-52.5 6.5q-25 0 -34 6t-9 23t24 24q51 17 97.5 63.5t46.5 80.5q0 31 -38 63.5t-73 32.5q-19 0 -39 -12l-20 -17l-17 -10 q-2 -2 -4 -2q-26 13 -26 27q0 8 19 34t36 39q60 60 135 60q55 0 107.5 -43t52.5 -88q0 -18 -11 -51t-22 -48q-11 -18 -30 -38t-27 -25q-12 -5 -17 -10q0 -2 -2 -4q1 0 3 -1t5.5 -2t6.5 -2q60 -20 104 -92q40 -65 37 -108q-3 -65 -8 -81.5t-31 -51.5q-57 -79 -145 -125 q-35 -19 -82 -32t-78 -13q-66 0 -110 24.5t-44 61.5zM416 20l18 46q6 16 14 36t12.5 31t11.5 28t17 36q1 3 5.5 14.5t14 34.5t17.5 45q4 10 28.5 65t37.5 84q31 72 64.5 154.5t35.5 87.5q5 16 17.5 44.5t13.5 31.5q3 8 19.5 46.5l25.5 59.5l51 117q35 86 47 123 q40 85 60 139l8 23q5 14 8.5 17.5t15.5 4.5q37 2 52 2h24l6 2q13 0 13 -10q0 -7 -133 -326q-58 -139 -175 -417l-79 -195q-4 -7 -45 -108l-13 -29q-38 -90 -41 -101q-7 -17 -14 -33t-10.5 -23.5t-3.5 -8.5q-9 -29 -14.5 -35t-20.5 -6h-66q-21 0 -24.5 3t2.5 17zM913 238 q-9 47 -5 65.5t28 52.5q32 42 85 115.5t73 99.5q4 4 36 50q18 23 58 79q2 2 41 58q12 12 12 16q14 23 45 23q8 0 14 -0.5t10.5 -2.5t7.5 -4t5 -6.5t3 -8t1 -12v-14v-18v-20.5q0 -3 -2 -20.5t-2 -20.5q0 -6 2 -34.5t2 -33.5q-2 -23 -2 -43q0 -8 -2 -43q0 -6 2 -32t2 -29 q0 -8 -2 -30t-2 -30q0 -4 4 -24l-2 -19q2 -4 3 -5t5 -2.5t11.5 -2t21.5 -0.5q23 -1 31 -1.5t15 -5t8 -11.5t1 -23q0 -11 -4 -29l4 -26q1 -7 -7.5 -13t-20.5 -6h-29l-25 -2l-4 2q-6 0 -8 -8t-2 -31q0 -1 0.5 -3t1 -9t0.5 -20v-113l2 -20q0 -9 -8 -16t-18 -7h-19q-6 2 -12 2 q-9 0 -15 -2h-14q-44 0 -51.5 5.5t-7.5 39.5v39q2 18 2 37q0 21 -2 31v10l2 26q2 33 -4 39q-2 2 -70 2l-127 -2h-26t-18.5 0.5t-13 1t-8 2t-4.5 3t-2 4.5zM1006 352q3 -9 9 -10.5t38 -1.5q85 0 110 4l15 -2q2 0 5 1.5t4.5 3.5t0.5 3l-2 27v29l2 73q3 97 -4 125l-19 -26 q-5 -7 -35.5 -47.5t-54 -73.5t-45.5 -66q-4 -4 -8.5 -13t-8 -14.5t-5.5 -5.5z" />
<glyph unicode="&#xbf;" horiz-adv-x="755" d="M80 -10q0 90 18.5 142t59.5 81q42 30 79.5 46t98.5 30q46 10 63 24q6 6 12.5 20.5t6.5 20.5l-4 54q6 42 11 49.5t26 7.5q27 0 34.5 -11.5t10.5 -56.5l2 -26l6 -62q0 -18 7 -92.5t7 -105.5q-2 -14 -22.5 -24.5t-77.5 -23.5q-102 -25 -146 -57q-38 -26 -58.5 -59.5 t-20.5 -67.5q0 -64 59 -112t137 -48q14 0 69 8.5t70 8.5q46 0 83.5 -36.5t37.5 -80.5q0 -62 -45 -98.5t-121 -36.5q-40 0 -87 16.5t-77 42.5q-107 86 -173 210t-66 237zM268 725q0 49 20 87.5t56 59.5t82 21q72 0 119 -44t47 -112q0 -76 -44 -122t-116 -46 q-71 0 -117.5 44.5t-46.5 111.5z" />
<glyph unicode="&#xc0;" horiz-adv-x="1411" d="M-16 33q0 28 9.5 34.5t49.5 6.5q66 0 107 64t112 272l41 114q50 129 62 174l34 99q62 162 68 188q2 8 4 15.5t3 11t1 4.5l29 71q13 45 49 160q2 6 4.5 16l4 16t1.5 7q4 23 22.5 40.5t80.5 62.5q1 1 5.5 3.5t11 7.5t11.5 9q33 23 37 23q7 0 12.5 -11t20.5 -49l338 -833 q14 -31 49 -119l68 -174q43 -112 73 -143t101 -37q17 -1 23.5 -7.5t6.5 -21.5q0 -25 -6.5 -35t-23.5 -10l-217 6q-82 2 -220 -4q-49 -4 -73 -4q-39 0 -49.5 6.5t-10.5 30.5q0 31 9 36.5t63 8.5q37 3 59.5 24.5t22.5 53.5q0 23 -32 108t-68 158q-11 23 -15 37 q-10 29 -17.5 38t-21.5 9h-14q-10 -2 -25 -2h-108q-16 -2 -33 -2q-76 4 -94 4q-2 0 -34 1t-60 1h-35q-12 0 -16.5 -5.5t-10.5 -25.5q-4 -8 -51 -145q-45 -134 -45 -172q0 -43 25 -59.5t112 -26.5q19 -3 26 -10.5t7 -26.5q0 -24 -9 -33t-30 -8q-13 1 -71.5 3.5t-103 4.5 t-48.5 2q-29 0 -98.5 -4t-92.5 -4q-19 0 -24.5 8t-5.5 33zM332 1767q0 35 25 57.5t63 22.5q39 0 66.5 -20.5t117.5 -110.5l19 -18q22 -22 61 -66q9 -6 31 -28q51 -59 51 -60q0 -8 -23 -8q-67 0 -96 16q-5 2 -12 6t-11.5 6.5t-5.5 2.5l-34 16q-26 12 -72.5 37t-75.5 39 q-58 28 -81 52t-23 56zM442 602q0 -3 2.5 -5t11 -3t23.5 -1.5t41 -0.5q18 0 154 -4q20 0 32 -1t15 -1q76 0 76 14q0 1 -11 23q-4 12 -10 26q-3 16 -8 21l-27 63q-13 31 -63 168l-10 29l-17 33l-26 69q-14 31 -19 31q-9 0 -20 -33q0 -6 -11 -35q-17 -45 -24 -73 q-6 -15 -6 -23l-21 -49q-82 -229 -82 -248z" />
<glyph unicode="&#xc1;" horiz-adv-x="1411" d="M-16 33q0 28 9.5 34.5t49.5 6.5q66 0 107 64t112 272l41 114q50 129 62 174l34 99q62 162 68 188q2 8 4 15.5t3 11t1 4.5l29 71q13 45 49 160q2 6 4.5 16l4 16t1.5 7q4 23 22.5 40.5t80.5 62.5q1 1 5.5 3.5t11 7.5t11.5 9q33 23 37 23q7 0 12.5 -11t20.5 -49l338 -833 q14 -31 49 -119l68 -174q43 -112 73 -143t101 -37q17 -1 23.5 -7.5t6.5 -21.5q0 -25 -6.5 -35t-23.5 -10l-217 6q-82 2 -220 -4q-49 -4 -73 -4q-39 0 -49.5 6.5t-10.5 30.5q0 31 9 36.5t63 8.5q37 3 59.5 24.5t22.5 53.5q0 23 -32 108t-68 158q-11 23 -15 37 q-10 29 -17.5 38t-21.5 9h-14q-10 -2 -25 -2h-108q-16 -2 -33 -2q-76 4 -94 4q-2 0 -34 1t-60 1h-35q-12 0 -16.5 -5.5t-10.5 -25.5q-4 -8 -51 -145q-45 -134 -45 -172q0 -43 25 -59.5t112 -26.5q19 -3 26 -10.5t7 -26.5q0 -24 -9 -33t-30 -8q-13 1 -71.5 3.5t-103 4.5 t-48.5 2q-29 0 -98.5 -4t-92.5 -4q-19 0 -24.5 8t-5.5 33zM442 602q0 -3 2.5 -5t11 -3t23.5 -1.5t41 -0.5q18 0 154 -4q20 0 32 -1t15 -1q76 0 76 14q0 1 -11 23q-4 12 -10 26q-3 16 -8 21l-27 63q-13 31 -63 168l-10 29l-17 33l-26 69q-14 31 -19 31q-9 0 -20 -33 q0 -6 -11 -35q-17 -45 -24 -73q-6 -15 -6 -23l-21 -49q-82 -229 -82 -248zM610 1544q0 2 6 8l17 21q15 17 29 31l30 28l17 21l63 63l35 39q48 54 80 73t71 19q37 0 61.5 -23t24.5 -57q0 -35 -24.5 -58t-99.5 -60l-80 -43q-54 -27 -82 -39q-1 0 -5.5 -2.5t-11.5 -6.5t-12 -6 q-29 -16 -96 -16q-23 0 -23 8z" />
<glyph unicode="&#xc2;" horiz-adv-x="1411" d="M-16 33q0 28 9.5 34.5t49.5 6.5q66 0 107 64t112 272l41 114q50 129 62 174l34 99q62 162 68 188q2 8 4 15.5t3 11t1 4.5l29 71q13 45 49 160q2 6 4.5 16l4 16t1.5 7q4 23 22.5 40.5t80.5 62.5q1 1 5.5 3.5t11 7.5t11.5 9q33 23 37 23q7 0 12.5 -11t20.5 -49l338 -833 q14 -31 49 -119l68 -174q43 -112 73 -143t101 -37q17 -1 23.5 -7.5t6.5 -21.5q0 -25 -6.5 -35t-23.5 -10l-217 6q-82 2 -220 -4q-49 -4 -73 -4q-39 0 -49.5 6.5t-10.5 30.5q0 31 9 36.5t63 8.5q37 3 59.5 24.5t22.5 53.5q0 23 -32 108t-68 158q-11 23 -15 37 q-10 29 -17.5 38t-21.5 9h-14q-10 -2 -25 -2h-108q-16 -2 -33 -2q-76 4 -94 4q-2 0 -34 1t-60 1h-35q-12 0 -16.5 -5.5t-10.5 -25.5q-4 -8 -51 -145q-45 -134 -45 -172q0 -43 25 -59.5t112 -26.5q19 -3 26 -10.5t7 -26.5q0 -24 -9 -33t-30 -8q-13 1 -71.5 3.5t-103 4.5 t-48.5 2q-29 0 -98.5 -4t-92.5 -4q-19 0 -24.5 8t-5.5 33zM420 1554q0 7 55 84l111 162q21 32 32 39q3 3 11 3.5t49 2.5h2q10 0 22 -4l48 2q12 -3 24 -24q3 0 12 -17q69 -93 146 -217q12 -20 14 -22q8 -5 8 -13q0 -6 -6 -7.5t-43 -2.5q-31 0 -43 3t-22 13q-64 64 -113 115 q-18 18 -20 21l-13 10q-5 8 -10 8q-7 0 -27 -20q-65 -64 -69 -68q-43 -37 -45 -39l-31 -29q-6 -5 -7.5 -6t-7 -3.5t-12.5 -2.5h-20q-18 -1 -28.5 0t-14 4t-2.5 8zM442 602q0 -3 2.5 -5t11 -3t23.5 -1.5t41 -0.5q18 0 154 -4q20 0 32 -1t15 -1q76 0 76 14q0 1 -11 23 q-4 12 -10 26q-3 16 -8 21l-27 63q-9 21 -15.5 37t-12 30.5t-9.5 27t-11.5 33t-14.5 40.5l-10 29l-17 33l-26 69q-14 31 -19 31q-6 0 -9.5 -7t-10.5 -26q0 -6 -11 -35q-17 -45 -24 -73q-6 -15 -6 -23l-21 -49q-82 -229 -82 -248z" />
<glyph unicode="&#xc3;" horiz-adv-x="1411" d="M-16 33q0 28 9.5 34.5t49.5 6.5q66 0 107 64t112 272l41 114q50 129 62 174l34 99q62 162 68 188q2 8 4 15.5t3 11t1 4.5l29 71q13 45 49 160q2 6 4.5 16l4 16t1.5 7q4 23 22.5 40.5t80.5 62.5q1 1 5.5 3.5t11 7.5t11.5 9q33 23 37 23q7 0 12.5 -11t20.5 -49l338 -833 q14 -31 49 -119l68 -174q43 -112 73 -143t101 -37q17 -1 23.5 -7.5t6.5 -21.5q0 -25 -6.5 -35t-23.5 -10l-217 6q-82 2 -220 -4q-49 -4 -73 -4q-39 0 -49.5 6.5t-10.5 30.5q0 31 9 36.5t63 8.5q37 3 59.5 24.5t22.5 53.5q0 23 -32 108t-68 158q-11 23 -15 37 q-10 29 -17.5 38t-21.5 9h-14q-10 -2 -25 -2h-108q-16 -2 -33 -2q-76 4 -94 4q-2 0 -34 1t-60 1h-35q-12 0 -16.5 -5.5t-10.5 -25.5q-4 -8 -51 -145q-45 -134 -45 -172q0 -43 25 -59.5t112 -26.5q19 -3 26 -10.5t7 -26.5q0 -24 -9 -33t-30 -8q-13 1 -71.5 3.5t-103 4.5 t-48.5 2q-29 0 -98.5 -4t-92.5 -4q-19 0 -24.5 8t-5.5 33zM379 1602q0 47 45 129q49 90 133 90q33 0 58 -12t85 -54q67 -51 115 -51q65 0 105 78q14 22 20 22q11 0 24 -10.5t13 -19.5q0 -27 -53 -113q-60 -96 -146 -96q-27 0 -55.5 13t-91.5 52q-75 49 -115 49 q-33 0 -49.5 -16t-38.5 -68q-9 -20 -20 -20q-10 0 -19.5 9t-9.5 18zM442 602q0 -3 2.5 -5t11 -3t23.5 -1.5t41 -0.5q18 0 154 -4q20 0 32 -1t15 -1q76 0 76 14q0 1 -11 23q-4 12 -10 26q-3 16 -8 21l-27 63q-13 31 -63 168l-10 29l-17 33l-26 69q-14 31 -19 31q-9 0 -20 -33 q0 -6 -11 -35q-17 -45 -24 -73q-6 -15 -6 -23l-21 -49q-82 -229 -82 -248z" />
<glyph unicode="&#xc4;" horiz-adv-x="1411" d="M-14 33q0 17 4 25t15 11t34 3h20q27 0 47 12.5t37.5 38.5t38.5 74q8 17 13.5 30t10 22.5t9 22t7 19.5t8.5 23t8.5 24t10.5 32t13 38q12 39 55.5 158t47.5 132l34 97q66 176 66 190l8 29l29 73q13 43 47 158q12 36 12 41q4 20 18.5 34.5t65.5 53.5q12 10 19 15l26 20 q33 23 39 23q13 0 33 -60l20 -55q10 -23 21.5 -51.5t17 -41.5t6.5 -14q44 -131 91 -254t84.5 -210t67.5 -152t50.5 -106t22.5 -46q22 -55 42.5 -106t34 -87t17.5 -46q38 -85 64 -107t94 -28q28 -3 28 -21v-20q0 -19 -6.5 -26t-25.5 -7h-9q-4 -2 -57 2q-102 4 -135 4 q-143 0 -275 -12h-47q-26 0 -34.5 7.5t-8.5 29.5q0 32 9 38t63 9q37 3 59.5 24.5t22.5 53.5q0 24 -33.5 111.5t-68.5 154.5q0 1 -2.5 6t-6 13.5t-6.5 15.5q-10 30 -17.5 39.5t-21.5 9.5q-6 0 -14 -2h-127q-2 0 -20 -2h-23l-70 2q-45 2 -155 2q-8 -2 -11.5 -7t-9.5 -24 q-3 -6 -8.5 -23t-17 -52t-23.5 -70q-45 -136 -45 -170q0 -45 25 -61.5t112 -26.5q19 -2 26 -9t7 -26q0 -25 -8 -33t-33 -8l-242 6l-168 -4q-20 0 -26 7.5t-6 33.5zM371 1694q0 49 35.5 85t85.5 36q52 0 88 -36t36 -87t-35 -87t-85 -36q-56 0 -90.5 34.5t-34.5 90.5zM440 600 q0 -13 58 -10l43 2q4 0 33 -3t38 -3q17 0 35 2h25q25 0 35 -2h12q37 0 54 1.5t20.5 4.5t3.5 10q0 2 -2 4q-4 2 -25 58l-25 57q-11 25 -14 35q0 7 -98 248q-10 26 -16 39t-9 16.5t-6 3.5q-9 0 -18 -33q0 -6 -11 -35l-24 -75l-6 -21q-7 -15 -19 -51q-7 -22 -32.5 -97 t-42.5 -126q-1 -5 -5 -13t-4 -12zM778 1694q0 50 35.5 85.5t85.5 35.5q52 0 88.5 -36t36.5 -87t-35.5 -87t-85.5 -36q-56 0 -90.5 34.5t-34.5 90.5z" />
<glyph unicode="&#xc5;" horiz-adv-x="1411" d="M-14 33q0 17 4 25t15 11t34 3h20q27 0 47 12.5t37.5 38.5t38.5 74q8 17 13.5 30t10 22.5t9 22t7 19.5t8.5 23t8.5 24t10.5 32t13 38q12 39 55.5 158t47.5 132l34 97q66 176 66 190l8 29l29 73q13 43 47 158q12 36 12 41q4 20 18.5 34.5t65.5 53.5q12 10 19 15l26 20 q33 23 39 23q13 0 33 -60l20 -55q10 -23 21.5 -51.5t17 -41.5t6.5 -14q44 -131 91 -254t84.5 -210t67.5 -152t50.5 -106t22.5 -46q22 -55 42.5 -106t34 -87t17.5 -46q38 -85 64 -107t94 -28q28 -3 28 -21v-20q0 -19 -6.5 -26t-25.5 -7h-9q-4 -2 -57 2q-102 4 -135 4 q-143 0 -275 -12h-47q-26 0 -34.5 7.5t-8.5 29.5q0 32 9 38t63 9q37 3 59.5 24.5t22.5 53.5q0 24 -33.5 111.5t-68.5 154.5q0 1 -2.5 6t-6 13.5t-6.5 15.5q-10 30 -17.5 39.5t-21.5 9.5q-6 0 -14 -2h-127q-2 0 -20 -2h-23l-70 2q-45 2 -155 2q-8 -2 -11.5 -7t-9.5 -24 q-3 -6 -8.5 -23t-17 -52t-23.5 -70q-45 -136 -45 -170q0 -45 25 -61.5t112 -26.5q19 -2 26 -9t7 -26q0 -25 -8 -33t-33 -8l-242 6l-168 -4q-20 0 -26 7.5t-6 33.5zM440 600q0 -13 58 -10l43 2q4 0 33 -3t38 -3q17 0 35 2h25q25 0 35 -2h12q37 0 54 1.5t20.5 4.5t3.5 10 q0 2 -2 4q-4 2 -25 58l-25 57q-11 25 -14 35q0 7 -98 248q-10 26 -16 39t-9 16.5t-6 3.5q-9 0 -18 -33q0 -6 -11 -35l-24 -75l-6 -21q-7 -15 -19 -51q-7 -22 -32.5 -97t-42.5 -126q-1 -5 -5 -13t-4 -12zM494 1696q0 77 55 132.5t131 55.5q92 0 145 -65q47 -63 47 -127 q0 -78 -55.5 -135.5t-130.5 -57.5q-85 0 -138.5 55.5t-53.5 141.5zM561 1694q0 -56 35 -91.5t90 -35.5q49 0 85 37t36 88q0 52 -36.5 88.5t-88.5 36.5q-50 0 -85.5 -36t-35.5 -87z" />
<glyph unicode="&#xc6;" horiz-adv-x="1796" d="M-16 37q0 23 8 31t31 10q52 4 86.5 33t87.5 108q90 140 170 295q80 157 118 227q72 137 179 340q41 82 50 104t9 44q0 29 -22 42t-70 13q-44 0 -54 1t-16 5q-5 5 -9.5 15.5t-4.5 19.5q0 36 28 39q12 4 148 4q23 0 83 -2t89 -2l702 6q40 0 54 -7.5t14 -29.5t-3 -66.5 t-3 -74.5q0 -26 3 -58t3 -47q0 -36 -37 -36q-20 0 -28 11t-21 62q-22 90 -68 117q-20 13 -63.5 24t-75.5 11q-166 0 -196 -10q-17 -5 -26.5 -11t-15.5 -21t-8 -37t-2 -62v-25q-4 -36 -4 -233q0 -18 4 -60l-4 -55q-1 -9 4 -13t27.5 -6t69.5 2q31 3 90 7q59 3 90.5 26t44.5 74 q10 38 17.5 46.5t29.5 8.5q20 0 31.5 -10t11.5 -25q0 -3 -3 -52t-3 -60l-6 -117l4 -102q0 -11 2 -23.5t2 -13.5q0 -15 -12 -25t-33 -10q-22 0 -28 9.5t-9 49.5q-6 76 -47 109q-19 14 -37 18.5t-74 8.5q-35 -2 -49 -2q-99 0 -108 -3q-11 -3 -11 -86q0 -6 3 -31t3 -28l-2 -33 l-2 -28l-2 -50q0 -1 2 -35.5t2 -45.5l5 -121q2 -45 18.5 -69.5t52.5 -33.5q49 -14 144 -14q173 0 237 49q17 14 117 154q12 8 18 8q19 0 38.5 -12.5t19.5 -24.5q0 -10 -6 -25q-13 -31 -23 -81q-3 -17 -35 -121q-8 -24 -15 -31.5t-24 -7.5q-7 0 -65 4q-6 1 -10.5 1h-16.5h-28 h-52.5t-81.5 1l-284 2q-2 0 -42 -1t-79 -1l-148 -2q-37 0 -75.5 -3t-49.5 -3q-32 0 -43.5 7.5t-11.5 29.5q0 24 9 29.5t59 13.5q72 12 92.5 47t25.5 139l3 41q2 33 2 68q0 1 -0.5 8.5t-1 20.5t-0.5 28v180q-3 18 -3 25q3 22 -16 22q-8 0 -23 -2t-28 -2q-9 0 -25 2 q-31 0 -118 -3t-101 -5q-17 -1 -23.5 -8t-23.5 -43q-9 -22 -55 -107q-55 -109 -60 -119l-47 -86q-17 -30 -36 -78.5t-19 -60.5q0 -15 9.5 -30t21.5 -23q22 -10 102 -12q20 0 24 -4t9 -23q-6 -39 -10.5 -46t-22.5 -7q-4 0 -37.5 4t-46.5 4l-92 -2q-7 0 -47 2t-51 2 q-12 0 -35 -2t-35 -2l-55 -2q-49 -3 -49 41zM594 741q0 -16 20 -16q19 0 31 2q1 0 26.5 2t45.5 2q40 2 80.5 3t54.5 1.5t18 1.5q7 2 7 21v28l-3 72q-2 14 -2 35v74l-2 147q-2 89 -3.5 110t-8.5 21q-4 0 -8 -5.5t-16 -31.5q-11 -19 -23 -42t-25.5 -51t-21.5 -44 q-14 -28 -14 -29l-45 -84l-13 -26q-33 -71 -53 -98l-31 -54q-14 -32 -14 -39z" />
<glyph unicode="&#xc7;" horiz-adv-x="1488" d="M61 680q0 153 57 284t165 228q136 124 295 172q115 37 290 37q86 0 183.5 -14t165.5 -37q51 -15 106 -43q22 -12 28 -21.5t9 -34.5q4 -50 16 -129q10 -87 10 -104q0 -12 -14 -20t-35 -7q-20 0 -37 43q-60 137 -171 208t-265 71q-42 0 -100 -14t-100 -35 q-80 -40 -144.5 -113.5t-101.5 -165.5q-34 -89 -48 -149t-14 -123q0 -29 6 -82l5 -33q30 -252 198 -414q28 -26 94 -60t113 -46q79 -21 164 -21q107 0 248 72q35 19 58 49.5t99 157.5q11 18 23 18q19 0 41 -10.5t22 -19.5q0 -5 -4 -17q-7 -20 -16 -55q-22 -72 -49 -176 q-6 -24 -24 -34.5t-95 -31.5q-131 -39 -252 -41l-88 -2q-11 0 -30 -1t-21 -1q-11 0 -25.5 2t-19.5 2q-6 0 -12 -14q0 -4 -13 -33l-18 -47q-4 -12 -4 -14q0 -3 5.5 -7t12.5 -4h19q45 5 63 5q69 0 115.5 -37t46.5 -92q0 -36 -23.5 -74t-58.5 -58q-33 -20 -87 -34.5t-93 -14.5 q-63 0 -146.5 21.5t-83.5 36.5q0 4 13 26q1 3 3 6.5t3 5t2 4t2 4l2 3t1.5 2l1.5 1.5t2.5 1h2.5q9 0 21 -6q23 -13 60 -22t67 -9q59 0 95 25t36 65q0 30 -26 53.5t-58 20.5q-52 -6 -74 -6q-16 0 -16 14q0 7 63 162q0 1 6 16q0 5 -24 8q-117 10 -260 74q-26 10 -67.5 38 t-66.5 52q-76 71 -112 115.5t-62 99.5q-41 85 -57 158q-23 117 -23 166z" />
<glyph unicode="&#xc8;" horiz-adv-x="1239" d="M53 25q0 19 5 27t20.5 13t54.5 11q59 11 78 24.5t25 49.5q3 9 12 147q0 12 -2 47t-2 47l4 178q0 15 -2 53.5t-2 49.5l6 119q5 99 -8 387q-2 56 -9 73q-17 36 -81 39q-47 3 -63.5 11t-16.5 28l10 35q1 3 13.5 6.5t21.5 3.5q3 0 20.5 -2t30.5 -2l317 -4h35q20 2 37 2 l297 -6l59 2l52 -2l63 2q30 1 39 -4.5t12 -26.5v-149l2 -56q-5 -45 -10 -53t-29 -8q-28 0 -33.5 8t-11.5 55q-12 115 -92 136q-47 14 -233 14q-43 0 -70 -2t-48 -9t-31.5 -16.5t-17 -30t-8 -43t-1.5 -61.5q0 -12 -4 -78q-1 -14 2.5 -106.5t3.5 -118.5v-16q-2 -6 -2 -13 q0 -24 9 -29t58 -5q40 -3 74 -0.5t59.5 1.5t47 4.5t36.5 8.5t27 12.5t20.5 17.5t15.5 24t12 31t11 38q9 29 25 29q49 0 49 -41q0 -18 -5 -89.5t-5 -93.5l6 -176q0 -15 -8.5 -24t-22.5 -9l-35 7q-12 2 -12 47q1 44 -17.5 76.5t-49.5 41.5q-54 13 -181 13q-102 0 -108 -6 q-2 -2 -8 -103l2 -35l-4 -125l1 -6q1 -6 2 -16t1 -21l2 -88q3 -103 32.5 -142t106.5 -38l51 -4q20 -2 41 -2q20 0 63.5 3t98.5 3l46.5 1.5t36.5 9t31 16.5t32.5 35t39.5 51t53 78q14 22 21 22q5 0 14.5 -3.5t18.5 -4.5q39 -6 39 -25l-4 -12q0 -4 -7 -22q-16 -60 -36 -115 l-17 -53q-15 -49 -23.5 -61.5t-27.5 -12.5q-15 0 -25 2q-32 4 -616 4q-236 0 -328 -10q-16 -2 -41 -2q-45 0 -45 37zM309 1767q0 35 25 57.5t63 22.5q17 0 31 -4t24.5 -9t33.5 -25.5t38.5 -35.5t57.5 -57l18 -18q31 -31 62 -66q6 -4 30 -28q5 -6 20.5 -23t23 -26t7.5 -11 q0 -8 -22 -8q-41 0 -59.5 3t-36.5 13q-5 2 -12 6t-11.5 6.5t-5.5 2.5l-35 16q-26 12 -72 37t-75 39q-58 28 -81.5 52t-23.5 56z" />
<glyph unicode="&#xc9;" horiz-adv-x="1239" d="M53 25q0 19 5 27t20.5 13t54.5 11q59 11 78 24.5t25 49.5q3 9 12 147q0 12 -2 47t-2 47l4 178q0 15 -2 53.5t-2 49.5l6 119q5 99 -8 387q-2 56 -9 73q-17 36 -81 39q-47 3 -63.5 11t-16.5 28l10 35q1 3 13.5 6.5t21.5 3.5q3 0 20.5 -2t30.5 -2l317 -4h35q20 2 37 2 l297 -6l59 2l52 -2l63 2q30 1 39 -4.5t12 -26.5v-149l2 -56q-5 -45 -10 -53t-29 -8q-28 0 -33.5 8t-11.5 55q-12 115 -92 136q-47 14 -233 14q-43 0 -70 -2t-48 -9t-31.5 -16.5t-17 -30t-8 -43t-1.5 -61.5q0 -12 -4 -78q-1 -14 2.5 -106.5t3.5 -118.5v-16q-2 -6 -2 -13 q0 -24 9 -29t58 -5q40 -3 74 -0.5t59.5 1.5t47 4.5t36.5 8.5t27 12.5t20.5 17.5t15.5 24t12 31t11 38q9 29 25 29q49 0 49 -41q0 -18 -5 -89.5t-5 -93.5l6 -176q0 -15 -8.5 -24t-22.5 -9l-35 7q-12 2 -12 47q1 44 -17.5 76.5t-49.5 41.5q-54 13 -181 13q-102 0 -108 -6 q-2 -2 -8 -103l2 -35l-4 -125l1 -6q1 -6 2 -16t1 -21l2 -88q3 -103 32.5 -142t106.5 -38l51 -4q20 -2 41 -2q20 0 63.5 3t98.5 3l46.5 1.5t36.5 9t31 16.5t32.5 35t39.5 51t53 78q14 22 21 22q5 0 14.5 -3.5t18.5 -4.5q39 -6 39 -25l-4 -12q0 -4 -7 -22q-16 -60 -36 -115 l-17 -53q-15 -49 -23.5 -61.5t-27.5 -12.5q-15 0 -25 2q-32 4 -616 4q-236 0 -328 -10q-16 -2 -41 -2q-45 0 -45 37zM561 1544q0 2 6 8l17 21q14 17 28 31l31 28l16 21q58 57 64 63l35 39q48 54 80 73t71 19q18 0 34 -6t27.5 -17t18 -25.5t6.5 -31.5q0 -35 -24.5 -58 t-100.5 -60l-79 -43q-55 -27 -82 -39q-1 0 -5.5 -2.5t-11.5 -6.5t-12 -6q-18 -10 -36.5 -13t-59.5 -3q-23 0 -23 8z" />
<glyph unicode="&#xca;" horiz-adv-x="1239" d="M53 25q0 19 5 27t20.5 13t54.5 11q59 11 78 24.5t25 49.5q3 9 12 147q0 12 -2 47t-2 47l4 178q0 15 -2 53.5t-2 49.5l6 119q5 99 -8 387q-2 56 -9 73q-17 36 -81 39q-47 3 -63.5 11t-16.5 28l10 35q1 3 13.5 6.5t21.5 3.5q3 0 20.5 -2t30.5 -2l317 -4h35q20 2 37 2 l297 -6l59 2l52 -2l63 2q30 1 39 -4.5t12 -26.5v-149l2 -56q-5 -45 -10 -53t-29 -8q-28 0 -33.5 8t-11.5 55q-12 115 -92 136q-47 14 -233 14q-43 0 -70 -2t-48 -9t-31.5 -16.5t-17 -30t-8 -43t-1.5 -61.5q0 -12 -4 -78q-1 -14 2.5 -106.5t3.5 -118.5v-16q-2 -6 -2 -13 q0 -24 9 -29t58 -5q40 -3 74 -0.5t59.5 1.5t47 4.5t36.5 8.5t27 12.5t20.5 17.5t15.5 24t12 31t11 38q9 29 25 29q49 0 49 -41q0 -18 -5 -89.5t-5 -93.5l6 -176q0 -15 -8.5 -24t-22.5 -9l-35 7q-12 2 -12 47q1 44 -17.5 76.5t-49.5 41.5q-54 13 -181 13q-102 0 -108 -6 q-2 -2 -8 -103l2 -35l-4 -125l1 -6q1 -6 2 -16t1 -21l2 -88q3 -103 32.5 -142t106.5 -38l51 -4q20 -2 41 -2q20 0 63.5 3t98.5 3l46.5 1.5t36.5 9t31 16.5t32.5 35t39.5 51t53 78q14 22 21 22q5 0 14.5 -3.5t18.5 -4.5q39 -6 39 -25l-4 -12q0 -4 -7 -22q-16 -60 -36 -115 l-17 -53q-15 -49 -23.5 -61.5t-27.5 -12.5q-15 0 -25 2q-32 4 -616 4q-236 0 -328 -10q-16 -2 -41 -2q-45 0 -45 37zM371 1554q0 7 55 84l111 162q21 32 32 39q3 3 11 3.5t51 2.5q10 0 22 -4l47 2q14 -3 25 -24q3 0 12 -17q69 -93 146 -217q12 -20 14 -22q8 -5 8 -13 q0 -6 -6 -7t-43 -3q-22 0 -32.5 1t-18 4.5t-14.5 10.5q-64 64 -113 115q-2 2 -6 5.5t-6.5 6l-5 5t-3.5 4.5l-12 10q-5 8 -10 8q-2 0 -11 -6.5t-16 -13.5q-65 -64 -69 -68q-43 -37 -45 -39l-31 -29l-2 -2q-8 -7 -15 -8.5t-30 -1.5q-14 -1 -23 -0.5t-14 2t-7 4t-1 6.5z" />
<glyph unicode="&#xcb;" horiz-adv-x="1239" d="M53 25q0 19 5 27t20.5 13t54.5 11q59 11 78 24.5t25 49.5q3 9 12 147q0 12 -2 47t-2 47l4 178q0 15 -2 53.5t-2 49.5l6 119q5 99 -8 387q-2 56 -9 73q-17 36 -81 39q-47 3 -63.5 11t-16.5 28l10 35q1 3 13.5 6.5t21.5 3.5q3 0 20.5 -2t30.5 -2l317 -4h35q20 2 37 2 l297 -6l59 2l52 -2l63 2q30 1 39 -4.5t12 -26.5v-149l2 -56q-5 -45 -10 -53t-29 -8q-28 0 -33.5 8t-11.5 55q-12 115 -92 136q-47 14 -233 14q-43 0 -70 -2t-48 -9t-31.5 -16.5t-17 -30t-8 -43t-1.5 -61.5q0 -12 -4 -78q-1 -14 2.5 -106.5t3.5 -118.5v-16q-2 -6 -2 -13 q0 -24 9 -29t58 -5q40 -3 74 -0.5t59.5 1.5t47 4.5t36.5 8.5t27 12.5t20.5 17.5t15.5 24t12 31t11 38q9 29 25 29q49 0 49 -41q0 -18 -5 -89.5t-5 -93.5l6 -176q0 -15 -8.5 -24t-22.5 -9l-35 7q-12 2 -12 47q1 44 -17.5 76.5t-49.5 41.5q-54 13 -181 13q-102 0 -108 -6 q-2 -2 -8 -103l2 -35l-4 -125l1 -6q1 -6 2 -16t1 -21l2 -88q3 -103 32.5 -142t106.5 -38l51 -4q20 -2 41 -2q20 0 63.5 3t98.5 3l46.5 1.5t36.5 9t31 16.5t32.5 35t39.5 51t53 78q14 22 21 22q5 0 14.5 -3.5t18.5 -4.5q39 -6 39 -25l-4 -12q0 -4 -7 -22q-16 -60 -36 -115 l-17 -53q-15 -49 -23.5 -61.5t-27.5 -12.5q-15 0 -25 2q-32 4 -616 4q-236 0 -328 -10q-16 -2 -41 -2q-45 0 -45 37zM309 1694q0 50 35.5 85.5t85.5 35.5q34 0 63 -16.5t45.5 -44.5t16.5 -62q0 -51 -35.5 -87t-85.5 -36q-56 0 -90.5 35t-34.5 90zM717 1694q0 50 35.5 85.5 t85.5 35.5q34 0 63 -16.5t45.5 -44.5t16.5 -62q0 -51 -35.5 -87t-85.5 -36q-56 0 -90.5 35t-34.5 90z" />
<glyph unicode="&#xcc;" horiz-adv-x="735" d="M20 1767q0 35 25.5 57.5t63.5 22.5q39 0 66.5 -20.5t117.5 -110.5l18 -18q31 -31 62 -66q6 -4 30 -28q7 -8 21.5 -24t22.5 -25t8 -11q0 -8 -23 -8q-67 0 -96 16q-5 2 -12 6t-11.5 6.5t-5.5 2.5l-35 16q-26 12 -71.5 36.5t-75.5 39.5q-58 28 -81.5 52t-23.5 56zM53 27 q0 33 19 43q10 2 57 4q48 2 71.5 15t30.5 44q25 98 11 287l-4 53l2 162l-2 43l4 203l-2 106q0 6 1 35.5t1 58.5v58q0 91 -27.5 119t-122.5 32q-18 2 -25.5 10.5t-7.5 28.5q0 22 10 31.5t35 9.5q33 0 126.5 -5t129.5 -5q12 0 78 6t166 6h23q32 0 42.5 -6.5t10.5 -26.5 q0 -27 -8.5 -36.5t-34.5 -10.5q-58 -1 -87.5 -17t-41.5 -52q-14 -47 -14 -222q0 -1 1 -25.5t1 -47.5l2 -240l-2 -203l2 -102l-2 -104q-1 -77 1 -99.5t11 -46.5q12 -29 34 -42t70 -19q45 -4 54.5 -9t9.5 -24q0 -30 -7.5 -41t-27.5 -10l-35 2q-53 3 -122.5 3t-178 -1.5 t-186.5 -1.5h-15q-29 0 -40 7.5t-11 29.5z" />
<glyph unicode="&#xcd;" horiz-adv-x="735" d="M55 27q0 34 19 43q8 2 57 4q46 2 69.5 15.5t30.5 43.5q1 4 3.5 12t3.5 12t3 15.5t3 23t1.5 32t0.5 46t-1 63t-3 83.5l-2 53l2 162l-2 43l4 203l-2 106v94q0 17 1 37.5l1 20.5q0 48 -5 74.5t-22.5 44t-45 24t-77.5 8.5q-19 2 -26 10t-7 29q0 23 10 32t35 9q33 0 125.5 -5 t128.5 -5q13 0 79.5 6t164.5 6h25q31 0 42 -6.5t11 -26.5q0 -3 -4 -19.5t-6 -19.5q-2 -4 -33 -8q-58 -1 -88.5 -17.5t-42.5 -51.5q-12 -43 -12 -222q0 -48 2 -175.5t2 -137.5l-2 -242v-167q-2 -23 -2 -43q0 -90 24 -123.5t94 -40.5q45 -5 54.5 -9.5t9.5 -23.5q0 -28 -8 -40 t-27 -11l-35 2q-54 3 -123.5 3t-177.5 -1.5t-186 -1.5h-17q-29 0 -39 7.5t-10 29.5zM315 1544q0 1 7 8l16 21q15 17 29 31l30 28l17 21l63 63l35 39q33 37 58 57t46 27.5t48 7.5q37 0 61.5 -23t24.5 -57q0 -35 -24.5 -58t-100.5 -60l-80 -43q-54 -27 -82 -39q-1 0 -3 -1 l-5 -2.5t-6 -3.5t-7.5 -4t-7.5 -4q-13 -7 -25 -10.5t-27.5 -4.5t-43.5 -1q-23 0 -23 8z" />
<glyph unicode="&#xce;" horiz-adv-x="735" d="M55 27q0 34 19 43q8 2 57 4q46 2 69.5 15.5t30.5 43.5q1 4 3.5 12t3.5 12t3 15.5t3 23t1.5 32t0.5 46t-1 63t-3 83.5l-2 53l2 162l-2 43l4 203l-2 106v94q0 17 1 37.5l1 20.5q0 48 -5 74.5t-22.5 44t-45 24t-77.5 8.5q-19 2 -26 10t-7 29q0 23 10 32t35 9q33 0 125.5 -5 t128.5 -5q13 0 79.5 6t164.5 6h25q31 0 42 -6.5t11 -26.5q0 -3 -4 -19.5t-6 -19.5q-2 -4 -33 -8q-58 -1 -88.5 -17.5t-42.5 -51.5q-12 -43 -12 -222q0 -48 2 -175.5t2 -137.5l-2 -242v-167q-2 -23 -2 -43q0 -90 24 -123.5t94 -40.5q45 -5 54.5 -9.5t9.5 -23.5q0 -28 -8 -40 t-27 -11l-35 2q-54 3 -123.5 3t-177.5 -1.5t-186 -1.5h-17q-29 0 -39 7.5t-10 29.5zM117 1554q0 7 55 84l111 162q21 32 32 39q3 3 11 3.5t51 2.5q10 0 22 -4l47 2q14 -3 25 -24q3 0 12 -17q69 -93 146 -217q12 -20 14 -22q8 -5 8 -13q0 -6 -6 -7.5t-43 -2.5q-22 0 -32.5 1 t-18 4.5t-14.5 10.5q-64 64 -113 115l-21 21l-12 10q-5 8 -10 8q-1 0 -5.5 -3t-10.5 -7.5t-11 -9.5q-65 -64 -69 -68q-43 -37 -45 -39l-31 -29q-6 -5 -7.5 -6t-7 -3.5t-12.5 -2.5h-20q-14 -1 -23 -0.5t-14 2t-7 4t-1 6.5z" />
<glyph unicode="&#xcf;" horiz-adv-x="735" d="M55 27q0 34 19 43q8 2 57 4q46 2 69.5 15.5t30.5 43.5q1 4 3.5 12t3.5 12t3 15.5t3 23t1.5 32t0.5 46t-1 63t-3 83.5l-2 53l2 162l-2 43l4 203l-2 106v94q0 17 1 37.5l1 20.5q0 48 -5 74.5t-22.5 44t-45 24t-77.5 8.5q-19 2 -26 10t-7 29q0 23 10 32t35 9q33 0 125.5 -5 t128.5 -5q13 0 79.5 6t164.5 6h25q31 0 42 -6.5t11 -26.5q0 -3 -4 -19.5t-6 -19.5q-2 -4 -33 -8q-58 -1 -88.5 -17.5t-42.5 -51.5q-12 -43 -12 -222q0 -48 2 -175.5t2 -137.5l-2 -242v-167q-2 -23 -2 -43q0 -90 24 -123.5t94 -40.5q45 -5 54.5 -9.5t9.5 -23.5q0 -28 -8 -40 t-27 -11l-35 2q-54 3 -123.5 3t-177.5 -1.5t-186 -1.5h-17q-29 0 -39 7.5t-10 29.5zM70 1694q0 50 35.5 85.5t84.5 35.5q52 0 88.5 -36t36.5 -87t-35 -87t-85 -36q-56 0 -90.5 34.5t-34.5 90.5zM449 1694q0 50 35.5 85.5t84.5 35.5q52 0 88.5 -36t36.5 -87t-35.5 -87 t-85.5 -36q-37 0 -65 15.5t-43.5 44t-15.5 65.5z" />
<glyph unicode="&#xd0;" horiz-adv-x="1607" d="M53 16q0 28 10 39.5t37 12.5q45 3 77.5 24.5t41.5 54.5q15 45 12 226l-2 217v33q0 5 -1 8.5t-3.5 5.5t-6.5 3t-9 1l-88 2q-37 2 -44.5 3t-10.5 7q-3 9 -3 27v72q0 20 5.5 25t25.5 5h72q33 0 39 -2h10q9 0 11.5 3t2.5 14q0 24 1 48t1 46l2 158q1 59 -6 119.5t-18 82.5 q-12 35 -68 35q-21 0 -41 -2h-10q-16 0 -21.5 7t-5.5 30q0 26 7 33t36 8q14 0 48 6q185 28 323 35q10 0 19.5 0.5t14.5 0.5l5 1l41 4l139 2q170 3 324 -43t256 -129q63 -50 115 -110t79 -115q32 -65 56.5 -163.5t21.5 -152.5q-7 -149 -27.5 -223t-74.5 -151 q-54 -75 -114.5 -127t-149.5 -99q-68 -36 -98 -48.5t-74 -24.5q-125 -35 -269 -35q-1 0 -53.5 2.5t-110 5t-71.5 2.5q-274 0 -379 -10q-16 -2 -39 -2q-35 0 -35 28zM477 344q0 -149 49 -192q35 -34 106 -55t148 -21q73 0 141 26.5t131 79.5t117 131q13 18 31 55t32 75t17 59 q14 81 16.5 107t2.5 87q0 50 -14.5 141t-28.5 128q-31 78 -77 142.5t-108.5 114.5t-144.5 77.5t-176 27.5q-106 0 -158 -17t-67 -57q-9 -23 -11 -37.5t-2 -74.5q0 -87 1 -190t1 -105v-19q0 -31 2.5 -37t16.5 -8h188q83 0 99.5 -1.5t19.5 -8.5q2 -4 2 -70q0 -46 -7 -53.5 t-50 -7.5h-215q-12 2 -23 2q-28 0 -33 -8q-1 -2 -2.5 -23t-2 -48.5t0.5 -55.5l2 -68q0 -3 -2 -44t-2 -52z" />
<glyph unicode="&#xd1;" horiz-adv-x="1736" d="M53 1331q0 21 8.5 34t22.5 13q12 0 20 -2l175 -6l43 -2q33 0 43 -2h20q20 0 60.5 2t58.5 2q26 0 40.5 -11.5t57.5 -64.5q42 -51 66 -75l116 -142q16 -16 99 -116q24 -28 42.5 -49t41 -45.5t39.5 -43.5q45 -49 111 -127.5t77 -91.5l117 -133l45 -59q19 -27 28 -27 q4 0 7.5 4.5t5.5 11.5t2 15q0 31 -2 49l-2 315l4 322q1 104 -29 147t-104 43q-29 0 -42.5 8t-13.5 27t11.5 30.5t29.5 10.5l244 -10q26 -1 46 -1t31 0.5t19.5 1.5t11 1.5t5.5 2t4 1.5l16 2q33 -2 46 -5.5t18.5 -10.5t5.5 -23q0 -25 -11.5 -32.5t-58.5 -10.5 q-48 -4 -71 -17.5t-33.5 -46t-12.5 -98.5l-2 -84l-2 -30q-1 -10 -1 -20.5v-24v-54t-1 -94.5l-2 -207l4 -178q0 -4 -1.5 -36t-3 -68.5t-1.5 -51.5q0 -12 10 -231l-2 -37q0 -6 2 -15.5t2 -13.5q0 -14 -11 -18t-46 -4q-31 3 -38 6.5t-21 22.5q-4 8 -39 43q-60 60 -103 110 q-77 88 -94 105l-88 104q-33 42 -172 199l-90 106q-100 126 -145 174l-183 201l-26 33q-24 28 -31 28q-6 0 -10 -8t-4 -20q0 -13 2 -47t2 -45l-0.5 -5.5t-1 -15.5t-0.5 -20l-4 -154q0 -1 1 -31t2 -65t1 -47q0 -83 -4 -215t-4 -160q0 -36 2 -59.5t8.5 -43t16.5 -30.5 t29 -19.5t42.5 -12.5t60.5 -7q25 -3 33 -11.5t8 -31.5q0 -28 -10 -39.5t-35 -11.5q-12 0 -70 6t-77 6l-262 -6q-58 0 -58 47q0 25 12 34t41 7q50 -2 87.5 18t44.5 52q4 15 9 63.5t5 75.5q2 113 2 127q2 12 2 164q0 19 1 36t1 33q2 336 -8 477q-3 56 -18.5 84.5t-51.5 47.5 q-56 30 -123 30q-25 0 -35 9t-10 32zM569 1602q0 21 12.5 57t32.5 72q23 43 58 66.5t76 23.5q33 0 58 -12t85 -54q15 -11 31.5 -21t31.5 -16.5t28.5 -10t23.5 -3.5q64 0 104 78q14 22 20 22q7 0 15.5 -5t15 -12t6.5 -13q0 -11 -16 -44.5t-37 -68.5q-60 -96 -145 -96 q-27 0 -56 13t-92 52q-75 49 -114 49q-33 0 -50.5 -16t-38.5 -68q-9 -20 -20 -20q-7 0 -13.5 4t-11 10.5t-4.5 12.5z" />
<glyph unicode="&#xd2;" horiz-adv-x="1656" d="M59 666q0 201 107 381q21 36 84 104t100 96q206 152 469 152q95 0 197 -21t168 -53q89 -44 171 -117t128 -149q114 -191 114 -357q0 -190 -108 -358q-46 -72 -154 -174q-94 -90 -245.5 -146.5t-298.5 -56.5q-146 0 -291.5 65t-247.5 173q-63 70 -94 117.5t-62 130.5 q-37 95 -37 213zM338 766q0 -86 7 -142.5t30 -142.5q43 -169 162 -288q134 -134 313 -134q111 0 194 50q94 54 139.5 102.5t90.5 146.5q20 40 32.5 109.5t12.5 132.5q0 136 -31 274q-14 64 -42 126.5t-71 119t-95.5 99.5t-120 68.5t-140.5 25.5q-103 0 -196.5 -41 t-159.5 -115q-80 -90 -105 -225q-20 -120 -20 -166zM469 1767q0 35 25 57.5t63 22.5q39 0 66.5 -20.5t117.5 -110.5l19 -18q22 -22 61 -66q9 -6 31 -28q51 -59 51 -60q0 -8 -22 -8q-68 0 -97 16q-5 2 -12 6t-11 6.5t-5 2.5l-35 16q-26 12 -72.5 37t-75.5 39q-58 28 -81 52 t-23 56z" />
<glyph unicode="&#xd3;" horiz-adv-x="1656" d="M59 666q0 201 107 381q21 36 84 104t100 96q206 152 469 152q95 0 197 -21t168 -53q89 -44 171 -117t128 -149q114 -191 114 -357q0 -190 -108 -358q-46 -72 -154 -174q-94 -90 -245.5 -146.5t-298.5 -56.5q-146 0 -291.5 65t-247.5 173q-63 70 -94 117.5t-62 130.5 q-37 95 -37 213zM338 766q0 -86 7 -142.5t30 -142.5q43 -169 162 -288q134 -134 313 -134q111 0 194 50q94 54 139.5 102.5t90.5 146.5q20 40 32.5 109.5t12.5 132.5q0 136 -31 274q-14 64 -42 126.5t-71 119t-95.5 99.5t-120 68.5t-140.5 25.5q-103 0 -196.5 -41 t-159.5 -115q-80 -90 -105 -225q-20 -120 -20 -166zM756 1544q0 2 6 8l16 21q15 17 29 31l31 28l16 21q57 57 64 63l34 39q48 54 80.5 73t71.5 19q37 0 61.5 -23t24.5 -57q0 -35 -24.5 -58t-100.5 -60l-80 -43q-54 -27 -82 -39q-1 0 -5.5 -2.5t-11.5 -6.5t-12 -6 q-29 -16 -96 -16q-22 0 -22 8z" />
<glyph unicode="&#xd4;" horiz-adv-x="1656" d="M59 666q0 201 107 381q21 36 84 104t100 96q206 152 469 152q95 0 197 -21t168 -53q89 -44 171 -117t128 -149q114 -191 114 -357q0 -190 -108 -358q-46 -72 -154 -174q-94 -90 -245.5 -146.5t-298.5 -56.5q-146 0 -291.5 65t-247.5 173q-63 70 -94 117.5t-62 130.5 q-37 95 -37 213zM338 766q0 -86 7 -142.5t30 -142.5q43 -169 162 -288q134 -134 313 -134q111 0 194 50q94 54 139.5 102.5t90.5 146.5q20 40 32.5 109.5t12.5 132.5q0 136 -31 274q-14 64 -42 126.5t-71 119t-95.5 99.5t-120 68.5t-140.5 25.5q-103 0 -196.5 -41 t-159.5 -115q-80 -90 -105 -225q-20 -120 -20 -166zM571 1554q0 6 56 84l110 162q20 31 33 39q4 4 61 6q11 0 23 -4l47 2q14 -3 25 -24q3 0 12 -17q62 -84 145 -217q10 -17 15 -22q8 -5 8 -13q0 -6 -6 -7t-43 -3q-31 0 -43.5 3t-22.5 13q-62 62 -112 115l-21 21l-12 10 q-5 8 -10 8q-7 0 -27 -20q-66 -64 -70 -68l-32 -29l-13 -10l-30 -29q-7 -6 -10.5 -8t-11.5 -3t-26 -1q-18 -1 -28.5 0t-14 4t-2.5 8z" />
<glyph unicode="&#xd5;" horiz-adv-x="1656" d="M59 666q0 201 107 381q21 36 84 104t100 96q206 152 469 152q95 0 197 -21t168 -53q89 -44 171 -117t128 -149q114 -191 114 -357q0 -190 -108 -358q-46 -72 -154 -174q-94 -90 -245.5 -146.5t-298.5 -56.5q-146 0 -291.5 65t-247.5 173q-63 70 -94 117.5t-62 130.5 q-37 95 -37 213zM338 766q0 -86 7 -142.5t30 -142.5q43 -169 162 -288q134 -134 313 -134q111 0 194 50q94 54 139.5 102.5t90.5 146.5q20 40 32.5 109.5t12.5 132.5q0 136 -31 274q-14 64 -42 126.5t-71 119t-95.5 99.5t-120 68.5t-140.5 25.5q-103 0 -196.5 -41 t-159.5 -115q-80 -90 -105 -225q-20 -120 -20 -166zM530 1602q0 47 45 129q49 90 134 90q33 0 58 -12t85 -54q67 -51 115 -51q64 0 104 78q14 22 21 22q11 0 23.5 -10.5t12.5 -19.5q0 -27 -53 -113q-60 -96 -145 -96q-27 0 -56 13t-92 52q-75 49 -114 49q-33 0 -49.5 -16 t-38.5 -68q-9 -20 -21 -20q-10 0 -19.5 9t-9.5 18z" />
<glyph unicode="&#xd6;" horiz-adv-x="1656" d="M61 668q0 104 33.5 217t83.5 176q93 117 141 160t146 98q149 82 340 82q290 0 450 -111q101 -70 157 -131t112 -166q71 -133 71 -278q0 -187 -108 -363q-13 -23 -59 -77.5t-78 -86.5q-97 -95 -253 -158t-294 -63q-146 0 -283 54t-237 151q-67 64 -100.5 111t-69.5 129 q-52 113 -52 256zM332 776q0 -110 33 -242t79 -206q37 -57 74 -100.5t87 -83.5t113 -61.5t136 -21.5q127 0 215 56q80 53 124 100.5t75 114.5q31 71 43 129t12 137q0 120 -37 262q-20 82 -40 127t-66 111q-69 103 -169 160t-210 57q-85 0 -177.5 -37t-146.5 -94 q-52 -52 -81 -106t-44 -128q-6 -24 -13 -87.5t-7 -86.5zM498 1694q0 50 35.5 85.5t84.5 35.5q52 0 88.5 -36t36.5 -87t-35 -87t-85 -36q-55 0 -90 34.5t-35 90.5zM905 1694q0 50 35.5 85.5t85.5 35.5q52 0 88.5 -36t36.5 -87t-35.5 -87t-85.5 -36q-56 0 -90.5 34.5 t-34.5 90.5z" />
<glyph unicode="&#xd7;" d="M190 758q0 12 38.5 46t52.5 34q9 0 19.5 -8.5t43.5 -41.5q24 -25 52.5 -53.5t63.5 -63t54 -53.5q156 156 203 205q19 19 35 19q11 0 45 -38.5t34 -51.5q0 -9 -9 -21t-40 -43l-145 -145q0 -1 -3.5 -4.5l-9.5 -9.5t-10 -11l68 -67q39 -39 72 -76q47 -47 51 -53 q24 -27 24 -35q0 -19 -32.5 -53.5t-51.5 -34.5q-11 0 -34 20l-31 31q-19 18 -66 66.5t-73 74.5l-27 27l-16 -15q-48 -47 -129 -127q-45 -41 -54 -53q-22 -22 -34 -22q-20 0 -54 33t-34 53q0 12 41.5 55.5t179.5 177.5q-11 11 -187 185q-37 34 -37 53z" />
<glyph unicode="&#xd8;" horiz-adv-x="1652" d="M59 88q0 11 21 32t104 91q25 22 25 31t-25 43q-23 30 -49.5 81.5t-40.5 90.5q-33 101 -33 215q0 105 28 202t83 182.5t135 155.5q214 187 516 187q69 0 148.5 -13t138.5 -34q59 -22 92.5 -39t89.5 -56q11 -8 17 -8q2 0 3.5 0.5t3 1.5l4.5 3t6 5t8.5 8t12 11t17 15.5 t22.5 19.5q8 7 60 53q33 33 45 33q14 0 45 -32.5t31 -47.5q0 -7 -39.5 -47t-79.5 -72q-37 -27 -37 -43q0 -6 3.5 -10.5t23.5 -26.5q23 -26 59 -89.5t55 -110.5q41 -103 41 -224q0 -176 -108 -352q-23 -38 -42.5 -59.5t-111.5 -112.5q-76 -76 -239 -145q-142 -60 -289 -60 q-272 0 -477 170q-12 8 -21 8q-15 0 -41 -26q-25 -25 -31 -29l-18 -14l-35 -37q-33 -33 -47 -33q-13 0 -43.5 34t-30.5 48zM336 762q0 -97 23 -220.5t42 -123.5q7 0 164 145q54 51 56 51q51 48 178 162l22 21q24 23 35.5 34t25 23t22 19t30.5 24l72 70q18 18 31.5 30t41 36 t60.5 54q24 21 24 33t-30.5 46.5t-63.5 58.5q-34 24 -64.5 40.5t-61.5 27t-61.5 15.5t-64.5 5q-67 0 -122.5 -16t-131.5 -56q-43 -22 -79.5 -58.5t-65.5 -84t-47 -103.5q-12 -37 -23.5 -113.5t-11.5 -119.5zM463 293q0 -17 33 -58t73 -75q57 -47 129.5 -74t143.5 -27 q88 0 169.5 34.5t143.5 96.5q82 85 121 185t39 227q0 150 -35 293q-6 27 -15 51t-17.5 38.5t-14.5 14.5q-3 0 -150 -129q-60 -52 -76.5 -67t-48.5 -49q-22 -20 -52.5 -48t-53.5 -48.5t-51.5 -47t-52.5 -49.5q-10 -10 -22.5 -20.5t-22 -19t-21 -18.5t-20.5 -18 q-24 -24 -33 -30q-44 -38 -129 -117q-22 -20 -29.5 -29t-7.5 -16z" />
<glyph unicode="&#xd9;" horiz-adv-x="1611" d="M41 1329q0 22 7.5 30.5t27.5 8.5q29 0 126.5 -4t131.5 -4h2q38 10 227 10h21q30 0 42.5 -0.5t21.5 -4.5t10 -9t1 -17q0 -27 -7 -34t-34 -9q-35 -2 -56.5 -6t-39 -15.5t-26 -26.5t-14.5 -45.5t-7.5 -65.5t-1.5 -93v-30l-2 -105v-43q0 -12 1 -42t1 -50v-31q0 -69 4 -327 q1 -95 20 -145t70 -97q44 -40 121.5 -66t151.5 -26q82 0 160 20t124 52q31 22 51 37.5t40 38.5t31 45t21.5 57.5t14.5 74.5t7 98t2.5 126.5t-3.5 161.5l-2 69q-1 50 -1.5 91t-0.5 56t-1 31.5t-3 36.5q-1 11 -1.5 22.5t-1 18.5t-1 13.5t-0.5 9.5q-1 35 -3 55t-7.5 38.5 t-13.5 27.5t-24.5 16.5t-35.5 11t-51 6.5q-29 3 -37.5 8.5t-7.5 22.5q2 29 6.5 35t27.5 6q126 -8 168 -8q20 0 117 6t121 6q20 0 27.5 -7.5t7.5 -27.5q0 -14 -2 -22t-7 -13t-14 -7t-24 -3q-33 -2 -53 -5t-37 -11.5t-24.5 -19.5t-13 -33.5t-7 -48.5t-0.5 -70q0 -3 -1.5 -20 t-2.5 -44.5t-1 -58.5v-31q0 -13 2.5 -66.5t2.5 -56.5l-3 -118v-29q0 -42 1.5 -81.5t1.5 -41.5q0 -82 -5.5 -142t-16.5 -105.5t-30 -80.5q-48 -93 -98 -136.5t-166 -90.5q-130 -55 -274 -55q-88 0 -152.5 11.5t-154.5 43.5q-88 32 -137.5 70.5t-90.5 107.5q-26 46 -36.5 98 t-10.5 140q0 40 2 100.5t2 124.5q0 21 1 61.5t1 59.5v100l2 76v70l2 100q3 124 -34 156q-22 20 -119 30q-20 2 -26.5 8t-6.5 25zM514 1767q0 35 25 57.5t63 22.5t65 -19.5t108 -100.5l11 -11l19 -18q22 -22 61 -66q9 -6 31 -28q5 -6 20.5 -23t23 -26t7.5 -11q0 -8 -22 -8 q-41 0 -60 3t-37 13q-5 2 -12 6t-11 6.5t-5 2.5l-35 16q-26 12 -72.5 37t-75.5 39q-30 14 -49.5 26.5t-32 25.5t-17.5 26.5t-5 29.5z" />
<glyph unicode="&#xda;" horiz-adv-x="1611" d="M41 1329q0 22 7.5 30.5t27.5 8.5q29 0 126.5 -4t131.5 -4h2q38 10 227 10h21q30 0 42.5 -0.5t21.5 -4.5t10 -9t1 -17q0 -27 -7 -34t-34 -9q-35 -2 -56.5 -6t-39 -15.5t-26 -26.5t-14.5 -45.5t-7.5 -65.5t-1.5 -93v-30l-2 -105v-43q0 -12 1 -42t1 -50v-31q0 -69 4 -327 q1 -95 20 -145t70 -97q44 -40 121.5 -66t151.5 -26q82 0 160 20t124 52q31 22 51 37.5t40 38.5t31 45t21.5 57.5t14.5 74.5t7 98t2.5 126.5t-3.5 161.5l-2 69q-1 50 -1.5 91t-0.5 56t-1 31.5t-3 36.5q-1 11 -1.5 22.5t-1 18.5t-1 13.5t-0.5 9.5q-1 35 -3 55t-7.5 38.5 t-13.5 27.5t-24.5 16.5t-35.5 11t-51 6.5q-29 3 -37.5 8.5t-7.5 22.5q2 29 6.5 35t27.5 6q126 -8 168 -8q20 0 117 6t121 6q20 0 27.5 -7.5t7.5 -27.5q0 -14 -2 -22t-7 -13t-14 -7t-24 -3q-33 -2 -53 -5t-37 -11.5t-24.5 -19.5t-13 -33.5t-7 -48.5t-0.5 -70q0 -3 -1.5 -20 t-2.5 -44.5t-1 -58.5v-31q0 -13 2.5 -66.5t2.5 -56.5l-3 -118v-29q0 -42 1.5 -81.5t1.5 -41.5q0 -82 -5.5 -142t-16.5 -105.5t-30 -80.5q-48 -93 -98 -136.5t-166 -90.5q-130 -55 -274 -55q-88 0 -152.5 11.5t-154.5 43.5q-88 32 -137.5 70.5t-90.5 107.5q-26 46 -36.5 98 t-10.5 140q0 40 2 100.5t2 124.5q0 21 1 61.5t1 59.5v100l2 76v70l2 100q3 124 -34 156q-22 20 -119 30q-20 2 -26.5 8t-6.5 25zM807 1544q0 2 6 8l16 21q15 17 29 31l31 28l16 21q57 57 64 63l35 39q48 54 80 73t71 19q24 0 44 -10.5t31 -29t11 -40.5q0 -35 -24.5 -58 t-100.5 -60l-80 -43q-54 -27 -82 -39q-1 0 -5 -2.5t-11 -6.5t-12 -6q-18 -10 -37 -13t-60 -3q-22 0 -22 8z" />
<glyph unicode="&#xdb;" horiz-adv-x="1611" d="M41 1329q0 22 7.5 30.5t27.5 8.5q29 0 126.5 -4t131.5 -4h2q38 10 227 10h21q30 0 42.5 -0.5t21.5 -4.5t10 -9t1 -17q0 -27 -7 -34t-34 -9q-35 -2 -56.5 -6t-39 -15.5t-26 -26.5t-14.5 -45.5t-7.5 -65.5t-1.5 -93v-30l-2 -105v-43q0 -12 1 -42t1 -50v-31q0 -69 4 -327 q1 -95 20 -145t70 -97q44 -40 121.5 -66t151.5 -26q82 0 160 20t124 52q31 22 51 37.5t40 38.5t31 45t21.5 57.5t14.5 74.5t7 98t2.5 126.5t-3.5 161.5l-2 69q-1 50 -1.5 91t-0.5 56t-1 31.5t-3 36.5q-1 11 -1.5 22.5t-1 18.5t-1 13.5t-0.5 9.5q-1 35 -3 55t-7.5 38.5 t-13.5 27.5t-24.5 16.5t-35.5 11t-51 6.5q-29 3 -37.5 8.5t-7.5 22.5q2 29 6.5 35t27.5 6q126 -8 168 -8q20 0 117 6t121 6q20 0 27.5 -7.5t7.5 -27.5q0 -14 -2 -22t-7 -13t-14 -7t-24 -3q-33 -2 -53 -5t-37 -11.5t-24.5 -19.5t-13 -33.5t-7 -48.5t-0.5 -70q0 -3 -1.5 -20 t-2.5 -44.5t-1 -58.5v-31q0 -13 2.5 -66.5t2.5 -56.5l-3 -118v-29q0 -42 1.5 -81.5t1.5 -41.5q0 -82 -5.5 -142t-16.5 -105.5t-30 -80.5q-48 -93 -98 -136.5t-166 -90.5q-130 -55 -274 -55q-88 0 -152.5 11.5t-154.5 43.5q-88 32 -137.5 70.5t-90.5 107.5q-26 46 -36.5 98 t-10.5 140q0 40 2 100.5t2 124.5q0 21 1 61.5t1 59.5v100l2 76v70l2 100q3 124 -34 156q-22 20 -119 30q-20 2 -26.5 8t-6.5 25zM616 1554q0 6 56 84l110 162q20 31 33 39q3 3 11 3.5t51 2.5q10 0 22 -4l47 2q14 -3 25 -24q3 0 12 -17q62 -84 145 -217q10 -18 15 -22 q8 -5 8 -13t-49 -10q-31 0 -43.5 3t-22.5 13q-62 62 -112 115q-2 2 -6 5.5t-6.5 6l-5 5t-3.5 4.5l-12 10q-5 8 -10 8q-2 0 -11 -6.5t-16 -13.5q-66 -64 -70 -68l-32 -29l-13 -10l-30 -29q-6 -5 -7.5 -6t-7 -3.5t-12.5 -2.5h-20q-18 -1 -28.5 0t-14.5 4t-3 8z" />
<glyph unicode="&#xdc;" horiz-adv-x="1611" d="M41 1329q0 22 7.5 30.5t27.5 8.5q29 0 126.5 -4t131.5 -4h2q38 10 227 10h21q30 0 42.5 -0.5t21.5 -4.5t10 -9t1 -17q0 -27 -7 -34t-34 -9q-35 -2 -56.5 -6t-39 -15.5t-26 -26.5t-14.5 -45.5t-7.5 -65.5t-1.5 -93v-30l-2 -105v-43q0 -12 1 -42t1 -50v-31q0 -69 4 -327 q1 -95 20 -145t70 -97q44 -40 121.5 -66t151.5 -26q82 0 160 20t124 52q31 22 51 37.5t40 38.5t31 45t21.5 57.5t14.5 74.5t7 98t2.5 126.5t-3.5 161.5l-2 69q-1 50 -1.5 91t-0.5 56t-1 31.5t-3 36.5q-1 11 -1.5 22.5t-1 18.5t-1 13.5t-0.5 9.5q-1 35 -3 55t-7.5 38.5 t-13.5 27.5t-24.5 16.5t-35.5 11t-51 6.5q-29 3 -37.5 8.5t-7.5 22.5q2 29 6.5 35t27.5 6q126 -8 168 -8q20 0 117 6t121 6q20 0 27.5 -7.5t7.5 -27.5q0 -14 -2 -22t-7 -13t-14 -7t-24 -3q-33 -2 -53 -5t-37 -11.5t-24.5 -19.5t-13 -33.5t-7 -48.5t-0.5 -70q0 -3 -1.5 -20 t-2.5 -44.5t-1 -58.5v-31q0 -13 2.5 -66.5t2.5 -56.5l-3 -118v-29q0 -42 1.5 -81.5t1.5 -41.5q0 -82 -5.5 -142t-16.5 -105.5t-30 -80.5q-48 -93 -98 -136.5t-166 -90.5q-130 -55 -274 -55q-88 0 -152.5 11.5t-154.5 43.5q-88 32 -137.5 70.5t-90.5 107.5q-26 46 -36.5 98 t-10.5 140q0 40 2 100.5t2 124.5q0 21 1 61.5t1 59.5v100l2 76v70l2 100q3 124 -34 156q-22 20 -119 30q-20 2 -26.5 8t-6.5 25zM547 1694q0 49 35.5 85t85.5 36q34 0 63 -16.5t45.5 -44.5t16.5 -62q0 -51 -35.5 -87t-85.5 -36q-56 0 -90.5 34.5t-34.5 90.5zM954 1694 q0 49 36 85t85 36q34 0 63 -16.5t45.5 -44.5t16.5 -62q0 -51 -35.5 -87t-85.5 -36q-55 0 -90 34.5t-35 90.5z" />
<glyph unicode="&#xdd;" horiz-adv-x="1337" d="M-6 1321q0 46 10 49q6 4 86 4q13 0 114.5 -4t133.5 -4q10 0 110 5t113 5q34 0 43.5 -5.5t9.5 -27.5v-17.5t-3 -11t-5 -8t-13 -3.5t-19.5 -2t-30.5 -1q-84 0 -84 -34q0 -5 3.5 -11.5t15.5 -24.5t28.5 -42t50 -76.5t72.5 -116.5l16 -26q14 -25 57 -86l56 -78q17 -29 24 -29 q8 0 32 35.5t81 128.5l47 76q72 106 101.5 158.5t29.5 76.5q0 25 -22.5 34t-85.5 11q-25 0 -31 6.5t-6 32.5q0 24 5 30.5t23 6.5h15q14 0 88.5 -2t87.5 -2q4 0 25 1.5t57 3t76 1.5h10q19 0 25 -9.5t6 -37.5q0 -15 -6.5 -21.5t-24.5 -7.5q-51 -6 -79.5 -27.5t-72.5 -92.5 q-14 -23 -43 -64t-35 -49l-14 -21q-145 -210 -223 -346q-25 -44 -29 -56t-4 -40v-35q0 -13 1 -33.5t1 -37.5q0 -203 6 -318q3 -58 33.5 -79.5t120.5 -30.5q19 -1 25 -9t6 -30q0 -33 -33 -33q-27 0 -80.5 2t-89.5 2q-151 0 -295 -8q-74 -4 -94 -4t-26.5 7t-6.5 30 q0 25 5.5 30.5t29.5 7.5q30 1 47.5 2.5t36 7.5t27 11.5t17.5 22.5t12 32t5.5 48t3 63t0.5 84q0 8 -2 28t-2 48v69q0 163 -6 166q-15 18 -78 117l-4 5q-4 5 -16 22t-33 49q-69 108 -143 217q-93 134 -142 192q-17 22 -40 31.5t-74 15.5q-24 3 -28.5 6.5t-4.5 20.5zM672 1544 q0 2 6 8l16 21q15 17 29 31l31 28l16 21q57 57 64 63l34 39q48 54 80.5 73t71.5 19q37 0 61.5 -23t24.5 -57q0 -35 -24.5 -58t-100.5 -60l-80 -43q-54 -27 -82 -39q-1 0 -4 -1.5t-6.5 -3.5t-8.5 -5t-9 -5q-18 -10 -37 -13t-60 -3q-22 0 -22 8z" />
<glyph unicode="&#xde;" horiz-adv-x="1136" d="M53 1327q0 23 10.5 33t36.5 10l20 -2q20 -2 48 -2l104 -2q3 0 14.5 -0.5l34.5 -1.5l46 -2q17 0 91.5 6t137.5 6h22q35 0 45.5 -6.5t10.5 -28.5q0 -26 -8 -34.5t-33 -10.5q-74 -3 -106.5 -26t-32.5 -72q0 -20 4 -28t16 -11q12 -2 107 -2q90 -2 187.5 -29.5t152.5 -68.5 q72 -53 113.5 -133t41.5 -168q0 -92 -35.5 -160t-113.5 -127q-48 -36 -77.5 -49.5t-78.5 -22.5q-89 -18 -156 -18q-42 0 -53.5 8t-11.5 37q0 26 8 31t51 10q98 12 141.5 80t43.5 209q0 129 -48 225q-20 41 -66.5 66.5t-103.5 25.5q-82 0 -107.5 -43.5t-21.5 -144.5l5 -140 q0 -7 -2.5 -63t-2.5 -66q0 -20 1 -46.5t1 -55.5v-123q0 -197 9 -231q15 -49 38 -62.5t105 -21.5q22 -2 28.5 -8.5t6.5 -26.5q0 -28 -9 -38t-32 -9l-53 2q-123 6 -160 6q-140 0 -322 -18h-10q-19 0 -26 8.5t-7 31.5q0 27 7.5 34t37.5 7q94 3 117 62q14 35 14 207v168l5 180 q0 1 -1 29.5t-2.5 92.5t-3.5 136q0 16 2.5 53.5t2.5 52.5v76.5t-3 56.5t-5.5 43t-12 28.5t-17.5 20t-27 10.5t-35.5 7.5t-47.5 3.5q-20 1 -27.5 10t-7.5 29z" />
<glyph unicode="&#xdf;" horiz-adv-x="1144" d="M41 23q0 26 7 35t32 12q48 5 67 22.5t19 59.5v75l2 39q2 12 2 37q0 13 -3 60t-3 57l2 69q0 6 0.5 21t1 53t0.5 101v30q0 46 -12.5 59t-55.5 13h-12q-8 -2 -18 -2q-8 0 -13 4.5t-7.5 14.5t-2.5 26q0 12 21 18q54 22 77 62.5t48 154.5q42 193 118 287q71 88 179 139.5 t225 51.5q131 0 210 -72.5t79 -192.5q0 -34 -12.5 -64.5t-41.5 -72.5q-11 -16 -22 -27t-78 -73q-49 -46 -66.5 -73.5t-17.5 -59.5q0 -13 5 -27t19 -34.5t35 -46t56 -64.5q128 -145 161 -205q50 -89 50 -186q0 -158 -83.5 -256.5t-217.5 -98.5q-59 0 -105.5 21t-73 58 t-26.5 83q0 23 6.5 41.5t18.5 31.5t29.5 20t37.5 7q25 0 45.5 -10.5t32.5 -28.5t12 -40q0 -1 -4 -25t-4 -33q0 -25 16.5 -39t44.5 -14q51 0 86 36t35 87q0 40 -21 83.5t-75 117.5q-28 38 -101 120l-55 64q-18 26 -35 43q-61 67 -61 151q0 46 21.5 86.5t107.5 155.5 q72 101 72 227q0 83 -59 147t-134 64q-73 0 -123.5 -41t-72.5 -116q-29 -108 -21 -351l2 -71q1 -26 -2.5 -108t-3.5 -95l-2 -219q0 -19 2 -31l2 -78q0 -9 -2 -53.5t-2 -60.5q0 -129 82 -138q24 -3 31.5 -9t7.5 -21q0 -20 -6 -27.5t-21 -7.5h-12l-55 2q-31 0 -54 2h-43 q-36 0 -227 -8q-41 0 -41 31z" />
<glyph unicode="&#xe0;" horiz-adv-x="931" d="M80 215q0 43 63 88.5t183 89.5q60 23 125 47l26 6l45 19q19 7 26.5 11t10.5 8.5t4 11.5q4 8 4 90q0 62 -8 89t-31 46q-15 12 -39 21.5t-52.5 14.5t-57.5 5q-22 0 -44.5 -6.5t-40 -16.5t-28 -23.5t-10.5 -27.5q0 -7 8 -26t8 -23q0 -9 -10.5 -16.5t-42.5 -20.5l-63 -35 q-11 -8 -21 -8q-12 0 -21.5 25.5t-9.5 56.5q0 34 26 71.5t69 63.5l53 37l149 86q54 32 76 29q88 -10 133 -20t73.5 -24t57.5 -42q33 -31 42.5 -97t9.5 -262q0 -5 -1.5 -25t-3.5 -38t-2 -19l2 -106q0 -7 -3 -38.5t-3 -37.5q0 -74 41 -74q18 0 33 15q2 2 8.5 7.5t10.5 9 t9.5 6.5t8.5 3q6 0 16.5 -9t10.5 -15q0 -1 -1 -2.5t-2 -4.5t-2 -5q-1 -1 -2 -4t-3.5 -9t-4.5 -12q-25 -68 -75 -110t-107 -42q-135 0 -156 131q-2 16 -8 25l-2 -2q0 -1 -4 -4t-9.5 -8t-8.5 -9q-46 -54 -125 -92.5t-144 -38.5q-24 0 -62.5 15t-56.5 30q-21 20 -44 87.5 t-23 107.5zM129 1311q0 28 24 46.5t58 18.5q33 0 66 -25t108 -104l45 -47q39 -39 55 -59q14 -17 17 -17q52 -56 57 -63q10 -7 10 -10q1 -6 -4.5 -9.5t-13.5 -3.5h-25q-18 0 -68.5 26t-105.5 64l-86 48q-52 29 -81.5 51t-42.5 42t-13 42zM303 256q0 -22 21 -78 q14 -37 28.5 -49t48.5 -12q19 0 41 7.5t42.5 20.5t35.5 29l21 23q17 17 20.5 24.5t3.5 26.5l-2 55l2 21q0 88 -6 88q-1 0 -22 -6q-20 -6 -82 -33t-78 -37q-41 -23 -57.5 -41t-16.5 -39z" />
<glyph unicode="&#xe1;" horiz-adv-x="931" d="M80 215q0 43 63 88.5t183 89.5q60 23 125 47l26 6l45 19q19 7 26.5 11t10.5 8.5t4 11.5q4 8 4 90q0 62 -8 89t-31 46q-15 12 -39 21.5t-52.5 14.5t-57.5 5q-22 0 -44.5 -6.5t-40 -16.5t-28 -23.5t-10.5 -27.5q0 -7 8 -26t8 -23q0 -9 -10.5 -16.5t-42.5 -20.5l-63 -35 q-11 -8 -21 -8q-12 0 -21.5 25.5t-9.5 56.5q0 34 26 71.5t69 63.5l53 37l149 86q54 32 76 29q88 -10 133 -20t73.5 -24t57.5 -42q33 -31 42.5 -97t9.5 -262q0 -5 -1.5 -25t-3.5 -38t-2 -19l2 -106q0 -7 -3 -38.5t-3 -37.5q0 -74 41 -74q18 0 33 15q2 2 8.5 7.5t10.5 9 t9.5 6.5t8.5 3q6 0 16.5 -9t10.5 -15q0 -1 -1 -2.5t-2 -4.5t-2 -5q-1 -1 -2 -4t-3.5 -9t-4.5 -12q-25 -68 -75 -110t-107 -42q-135 0 -156 131q-2 16 -8 25l-2 -2q0 -1 -4 -4t-9.5 -8t-8.5 -9q-46 -54 -125 -92.5t-144 -38.5q-24 0 -62.5 15t-56.5 30q-21 20 -44 87.5 t-23 107.5zM303 256q0 -22 21 -78q14 -37 28.5 -49t48.5 -12q19 0 41 7.5t42.5 20.5t35.5 29l21 23q17 17 20.5 24.5t3.5 26.5l-2 55l2 21q0 88 -6 88q-1 0 -22 -6q-20 -6 -82 -33t-78 -37q-41 -23 -57.5 -41t-16.5 -39zM430 1049q0 4 68 75q2 0 16 17q16 20 55 59l45 47 q48 52 79 80t53.5 39.5t44.5 11.5q29 0 55 -21t26 -46q0 -21 -14 -41.5t-44.5 -43t-80.5 -50.5l-84 -48l-22 -14q-38 -20 -88 -49q-43 -25 -54 -25q-2 -2 -18 -2q-9 0 -21 -2q-4 0 -7.5 2t-6 5t-2.5 6z" />
<glyph unicode="&#xe2;" horiz-adv-x="931" d="M80 215q0 43 63 88.5t183 89.5q60 23 125 47l26 6l45 19q19 7 26.5 11t10.5 8.5t4 11.5q4 8 4 90q0 62 -8 89t-31 46q-15 12 -39 21.5t-52.5 14.5t-57.5 5q-22 0 -44.5 -6.5t-40 -16.5t-28 -23.5t-10.5 -27.5q0 -7 8 -26t8 -23q0 -9 -10.5 -16.5t-42.5 -20.5l-63 -35 q-11 -8 -21 -8q-12 0 -21.5 25.5t-9.5 56.5q0 34 26 71.5t69 63.5l53 37l149 86q54 32 76 29q88 -10 133 -20t73.5 -24t57.5 -42q33 -31 42.5 -97t9.5 -262q0 -5 -1.5 -25t-3.5 -38t-2 -19l2 -106q0 -7 -3 -38.5t-3 -37.5q0 -74 41 -74q18 0 33 15q2 2 8.5 7.5t10.5 9 t9.5 6.5t8.5 3q6 0 16.5 -9t10.5 -15q0 -1 -1 -2.5t-2 -4.5t-2 -5q-1 -1 -2 -4t-3.5 -9t-4.5 -12q-25 -68 -75 -110t-107 -42q-135 0 -156 131q-2 16 -8 25l-2 -2q0 -1 -4 -4t-9.5 -8t-8.5 -9q-46 -54 -125 -92.5t-144 -38.5q-24 0 -62.5 15t-56.5 30q-21 20 -44 87.5 t-23 107.5zM233 1055q0 6 15 26q9 9 31 45q28 41 65 94t47 68l25 37q23 35 32 42t31 7q46 0 63.5 -2.5t25 -8t17.5 -22.5l1.5 -3t1.5 -2.5t2 -2.5q7 -10 22.5 -32.5t24.5 -35.5t20.5 -32.5t20.5 -36.5q50 -72 82 -129q8 -8 8 -16q0 -11 -27 -11t-35.5 4t-35.5 29 q-70 66 -97 96q-4 4 -15 13.5t-18.5 16.5l-7.5 7q-25 25 -30 25q-11 0 -133 -119l-23 -20q-23 -23 -29 -31q-12 -14 -19.5 -17t-21.5 0q-43 -5 -43 11zM303 256q0 -22 21 -78q14 -37 28.5 -49t48.5 -12q19 0 41 7.5t42.5 20.5t35.5 29l21 23q17 17 20.5 24.5t3.5 26.5l-2 55 l2 21q0 88 -6 88q-1 0 -22 -6q-20 -6 -82 -33t-78 -37q-41 -23 -57.5 -41t-16.5 -39z" />
<glyph unicode="&#xe3;" horiz-adv-x="931" d="M80 215q0 43 63 88.5t183 89.5q60 23 125 47l26 6l45 19q19 7 26.5 11t10.5 8.5t4 11.5q4 8 4 90q0 62 -8 89t-31 46q-15 12 -39 21.5t-52.5 14.5t-57.5 5q-22 0 -44.5 -6.5t-40 -16.5t-28 -23.5t-10.5 -27.5q0 -7 8 -26t8 -23q0 -9 -10.5 -16.5t-42.5 -20.5l-63 -35 q-11 -8 -21 -8q-12 0 -21.5 25.5t-9.5 56.5q0 34 26 71.5t69 63.5l53 37l149 86q54 32 76 29q88 -10 133 -20t73.5 -24t57.5 -42q33 -31 42.5 -97t9.5 -262q0 -5 -1.5 -25t-3.5 -38t-2 -19l2 -106q0 -7 -3 -38.5t-3 -37.5q0 -74 41 -74q18 0 33 15q2 2 8.5 7.5t10.5 9 t9.5 6.5t8.5 3q6 0 16.5 -9t10.5 -15q0 -1 -1 -2.5t-2 -4.5t-2 -5q-1 -1 -2 -4t-3.5 -9t-4.5 -12q-25 -68 -75 -110t-107 -42q-135 0 -156 131q-2 16 -8 25l-2 -2q0 -1 -4 -4t-9.5 -8t-8.5 -9q-46 -54 -125 -92.5t-144 -38.5q-24 0 -62.5 15t-56.5 30q-21 20 -44 87.5 t-23 107.5zM195 1116q0 13 5.5 34t16 46t23.5 49q49 90 133 90q33 0 58.5 -11.5t84.5 -53.5q20 -15 42 -27t41 -18t32 -6q65 0 104 77q14 23 21 23t15.5 -5t15 -12.5t6.5 -13.5q0 -10 -16 -43t-38 -69q-60 -97 -145 -97q-19 0 -38 6.5t-42.5 19.5t-67.5 40q-75 49 -114 49 q-33 0 -49.5 -16t-38.5 -68q-9 -20 -21 -20q-10 0 -19 8.5t-9 17.5zM303 256q0 -22 21 -78q14 -37 28.5 -49t48.5 -12q19 0 41 7.5t42.5 20.5t35.5 29l21 23q17 17 20.5 24.5t3.5 26.5l-2 55l2 21q0 88 -6 88q-1 0 -22 -6q-20 -6 -82 -33t-78 -37q-41 -23 -57.5 -41 t-16.5 -39z" />
<glyph unicode="&#xe4;" horiz-adv-x="931" d="M80 215q0 43 63 88.5t183 89.5q60 23 125 47l26 6l45 19q19 7 26.5 11t10.5 8.5t4 11.5q4 8 4 90q0 62 -8 89t-31 46q-15 12 -39 21.5t-52.5 14.5t-57.5 5q-22 0 -44.5 -6.5t-40 -16.5t-28 -23.5t-10.5 -27.5q0 -7 8 -26t8 -23q0 -9 -10.5 -16.5t-42.5 -20.5l-63 -35 q-11 -8 -21 -8q-12 0 -21.5 25.5t-9.5 56.5q0 34 26 71.5t69 63.5l53 37l149 86q54 32 76 29q88 -10 133 -20t73.5 -24t57.5 -42q33 -31 42.5 -97t9.5 -262q0 -5 -1.5 -25t-3.5 -38t-2 -19l2 -106q0 -7 -3 -38.5t-3 -37.5q0 -74 41 -74q18 0 33 15q2 2 8.5 7.5t10.5 9 t9.5 6.5t8.5 3q6 0 16.5 -9t10.5 -15q0 -1 -1 -2.5t-2 -4.5t-2 -5q-1 -1 -2 -4t-3.5 -9t-4.5 -12q-25 -68 -75 -110t-107 -42q-135 0 -156 131q-2 16 -8 25l-2 -2q0 -1 -4 -4t-9.5 -8t-8.5 -9q-46 -54 -125 -92.5t-144 -38.5q-24 0 -62.5 15t-56.5 30q-21 20 -44 87.5 t-23 107.5zM184 1208q0 50 36 85.5t85 35.5q34 0 63 -16.5t45.5 -44.5t16.5 -62q0 -51 -35.5 -87t-85.5 -36q-55 0 -90 35t-35 90zM303 256q0 -22 21 -78q14 -37 28.5 -49t48.5 -12q19 0 41 7.5t42.5 20.5t35.5 29l21 23q17 17 20.5 24.5t3.5 26.5l-2 55l2 21q0 88 -6 88 q-1 0 -22 -6q-20 -6 -82 -33t-78 -37q-41 -23 -57.5 -41t-16.5 -39zM592 1208q0 50 36 85.5t85 35.5q34 0 63 -16.5t45.5 -44.5t16.5 -62q0 -51 -35.5 -87t-85.5 -36q-55 0 -90 35t-35 90z" />
<glyph unicode="&#xe5;" horiz-adv-x="931" d="M80 215q0 43 63 88.5t183 89.5q60 23 125 47l26 6l45 19q19 7 26.5 11t10.5 8.5t4 11.5q4 8 4 90q0 62 -8 89t-31 46q-15 12 -39 21.5t-52.5 14.5t-57.5 5q-22 0 -44.5 -6.5t-40 -16.5t-28 -23.5t-10.5 -27.5q0 -7 8 -26t8 -23q0 -9 -10.5 -16.5t-42.5 -20.5l-63 -35 q-11 -8 -21 -8q-12 0 -21.5 25.5t-9.5 56.5q0 34 26 71.5t69 63.5l53 37l149 86q54 32 76 29q88 -10 133 -20t73.5 -24t57.5 -42q33 -31 42.5 -97t9.5 -262q0 -5 -1.5 -25t-3.5 -38t-2 -19l2 -106q0 -7 -3 -38.5t-3 -37.5q0 -74 41 -74q18 0 33 15q2 2 8.5 7.5t10.5 9 t9.5 6.5t8.5 3q6 0 16.5 -9t10.5 -15q0 -1 -1 -2.5t-2 -4.5t-2 -5q-1 -1 -2 -4t-3.5 -9t-4.5 -12q-25 -68 -75 -110t-107 -42q-135 0 -156 131q-2 16 -8 25l-2 -2q0 -1 -4 -4t-9.5 -8t-8.5 -9q-46 -54 -125 -92.5t-144 -38.5q-24 0 -62.5 15t-56.5 30q-21 20 -44 87.5 t-23 107.5zM303 256q0 -22 21 -78q14 -37 28.5 -49t48.5 -12q19 0 41 7.5t42.5 20.5t35.5 29l21 23q17 17 20.5 24.5t3.5 26.5l-2 55l2 21q0 88 -6 88q-1 0 -22 -6q-20 -6 -82 -33t-78 -37q-41 -23 -57.5 -41t-16.5 -39zM307 1210q0 77 55 133t130 56q91 0 145 -66 q47 -63 47 -125q0 -78 -55 -135t-131 -57q-84 0 -137.5 54t-53.5 140zM375 1210q0 -37 15.5 -66t43.5 -45t64 -16q49 0 84.5 37t35.5 88t-36 87t-88 36q-49 0 -84 -35.5t-35 -85.5z" />
<glyph unicode="&#xe6;" horiz-adv-x="1286" d="M82 213q0 44 36 78t115 65q14 4 64 25q79 35 145 55q52 19 64 26t10 19q-2 29 -2 70q0 49 -7 91t-18 54q-21 22 -62 40t-73 18q-49 0 -76.5 -16.5t-27.5 -45.5q0 -3 8 -21t8 -24q0 -15 -33 -33q-53 -30 -73.5 -39.5t-32.5 -9.5q-11 0 -18.5 14t-6.5 31q6 71 10.5 86.5 t24.5 40.5q25 31 59.5 55t110.5 62q147 72 156 72q5 0 43.5 -9.5t48.5 -13.5q61 -20 89.5 -50.5t53.5 -102.5q6 -11 9 -11q1 0 30 43q17 24 49.5 53t59.5 44q59 30 141 30q119 0 184 -59q15 -15 29.5 -42.5t18.5 -51.5q3 -23 6 -41t4.5 -26t2 -13.5t1 -7.5t0.5 -4 q0 -30 -35 -41l-57 -21l-25 -8q-40 -13 -72 -26.5t-40 -16.5q-10 -5 -73 -28t-102 -36q-69 -23 -87.5 -33.5t-18.5 -25.5q0 -115 53 -186q33 -43 88 -71t111 -28q119 0 166 72q17 25 26 25q7 0 19.5 -6.5t13.5 -6.5q21 -6 21 -20q0 -17 -38 -67t-73 -79q-46 -38 -108.5 -62 t-116.5 -24q-146 0 -223 54q-29 20 -62 53t-45 53q-7 15 -10 15l-29 -25l-39 -35l-22 -18q-37 -36 -86.5 -66.5t-71.5 -30.5q-29 0 -85.5 20.5t-70.5 35.5q-20 21 -39.5 82t-19.5 100zM297 242q0 -30 14 -60t36 -49.5t44 -19.5q13 0 20.5 2.5t20.5 12t49 36.5q45 34 45 57 q0 11 -2 19q0 2 -3 27t-6 55.5t-3 42.5q0 25 -10 28q-7 0 -21 -7t-22 -9q-52 -20 -88 -41.5t-55 -45.5t-19 -48zM723 543q0 -9 3.5 -15t8.5 -6q8 0 31 13q1 0 5.5 1.5t14.5 5.5t21 7l27 12q34 17 65 27q73 29 94 41q17 9 27 26.5t10 38.5q0 53 -30.5 85t-81.5 32 q-40 0 -82 -28t-70 -74q-43 -68 -43 -166z" />
<glyph unicode="&#xe7;" horiz-adv-x="841" d="M55 393q0 66 5.5 110.5t19.5 84.5t41 94q56 111 164.5 174.5t244.5 63.5q101 0 167.5 -46.5t66.5 -117.5q0 -43 -26 -73t-64 -30q-43 0 -71 19t-54 65q-29 50 -53 70t-54 20q-40 0 -81.5 -27t-69.5 -71q-13 -21 -23.5 -53t-16 -68t-5.5 -71q0 -83 22.5 -148.5 t73.5 -124.5q40 -46 102.5 -77t114.5 -31q89 0 182 84q8 8 15 8q4 0 12 -5t16 -11.5t13.5 -13t5.5 -9.5q0 -7 -6 -16l-25 -39q-120 -178 -287 -181q-7 0 -10.5 -1t-5.5 -4t-4 -9q-1 -3 -5 -13.5t-11 -28l-13 -32.5q-4 -12 -4 -14q0 -4 5.5 -7t11.5 -3q12 0 40.5 3t38.5 3 q65 0 108.5 -35.5t43.5 -87.5q0 -34 -22.5 -70t-55.5 -55q-33 -20 -83.5 -33.5t-86.5 -13.5q-24 0 -54 4t-58 10t-52 13t-38.5 14.5t-14.5 13.5q0 3 12 27q8 24 19 24q6 0 18 -6q15 -9 36.5 -16t43.5 -10.5t41 -3.5q55 0 89 24t34 62q0 28 -24.5 49.5t-55.5 21.5l-49 -6 q-10 -2 -21 -2q-6 0 -10 4t-4 10q0 8 31 80l18 43l4.5 13.5l4 12t1.5 5.5q5 5 5 10q0 8 -19 8q-94 10 -170.5 68t-120 150t-43.5 198z" />
<glyph unicode="&#xe8;" horiz-adv-x="854" d="M55 403q6 117 10 144t21 71q56 140 159 221t226 81q157 0 254 -97q76 -73 76 -221q0 -40 -8 -47.5t-48 -7.5l-213 -2h-155q-15 0 -28 0.5t-21 1t-9 0.5h-26q-8 -2 -21 -2q-11 0 -14.5 -3.5t-3.5 -13.5q0 -140 78 -245q37 -49 101.5 -82t123.5 -33q44 0 91.5 17t80.5 46 q16 13 23 13q9 0 22.5 -12.5t13.5 -18.5q0 -8 -19 -39.5t-34 -48.5q-132 -152 -307 -152q-84 0 -160.5 38t-122.5 102q-31 41 -42 63.5t-25 69.5q-11 36 -17.5 83t-5.5 74zM119 1311q0 26 24.5 45.5t59.5 19.5q32 0 66.5 -26t105.5 -103l45 -47q39 -39 55 -59q3 -3 7 -7.5 t6.5 -7t3.5 -2.5l59 -63q8 -5 8 -10q-2 -8 -5 -10.5t-13 -2.5h-25q-18 0 -68.5 26t-105.5 64l-86 48q-76 43 -106.5 73t-30.5 62zM266 631q0 -15 25 -15h16q16 0 34 1t21 1l35 -2q15 0 31 2l33 3q72 5 95.5 18.5t23.5 52.5q0 66 -37 110t-94 44q-90 0 -144 -98 q-14 -25 -26.5 -62.5t-12.5 -54.5z" />
<glyph unicode="&#xe9;" horiz-adv-x="854" d="M55 403q6 117 10 144t21 71q56 140 159 221t226 81q157 0 254 -97q76 -73 76 -221q0 -40 -8 -47.5t-48 -7.5l-213 -2h-155q-15 0 -28 0.5t-21 1t-9 0.5h-26q-8 -2 -21 -2q-11 0 -14.5 -3.5t-3.5 -13.5q0 -140 78 -245q37 -49 101.5 -82t123.5 -33q44 0 91.5 17t80.5 46 q16 13 23 13q9 0 22.5 -12.5t13.5 -18.5q0 -8 -19 -39.5t-34 -48.5q-132 -152 -307 -152q-84 0 -160.5 38t-122.5 102q-31 41 -42 63.5t-25 69.5q-11 36 -17.5 83t-5.5 74zM266 631q0 -15 25 -15h16q16 0 34 1t21 1l35 -2q15 0 31 2l33 3q72 5 95.5 18.5t23.5 52.5 q0 66 -37 110t-94 44q-90 0 -144 -98q-14 -25 -26.5 -62.5t-12.5 -54.5zM383 1049q0 4 68 75q2 0 16 17q16 20 55 59l45 47q70 76 107 103.5t69 27.5q29 0 55.5 -21t26.5 -46q0 -31 -32.5 -62.5t-106.5 -72.5l-84 -48l-22 -14q-38 -20 -88 -49q-43 -25 -54 -25q-2 -2 -18 -2 q-9 0 -21 -2q-6 0 -11 4t-5 9z" />
<glyph unicode="&#xea;" horiz-adv-x="854" d="M55 403q6 117 10 144t21 71q56 140 159 221t226 81q157 0 254 -97q76 -73 76 -221q0 -40 -8 -47.5t-48 -7.5l-213 -2h-155q-15 0 -28 0.5t-21 1t-9 0.5h-26q-8 -2 -21 -2q-11 0 -14.5 -3.5t-3.5 -13.5q0 -140 78 -245q37 -49 101.5 -82t123.5 -33q44 0 91.5 17t80.5 46 q16 13 23 13q9 0 22.5 -12.5t13.5 -18.5q0 -8 -19 -39.5t-34 -48.5q-132 -152 -307 -152q-84 0 -160.5 38t-122.5 102q-31 41 -42 63.5t-25 69.5q-11 36 -17.5 83t-5.5 74zM207 1055q0 7 14 26q9 9 31 45q28 42 65.5 94.5t47.5 67.5l24 37q23 35 32.5 42t31.5 7 q16 0 26 -0.5t19.5 0t15.5 -1t11.5 -1.5t9.5 -3t6.5 -3.5t6 -6t4.5 -6.5t5 -8.5t6 -10.5q7 -10 22.5 -32.5t24.5 -35.5t20.5 -32.5t20.5 -36.5q50 -72 82 -129q8 -8 8 -16q0 -11 -26 -11q-28 0 -37 4t-35 29q-64 60 -96 96q-4 4 -15 13.5t-18 16.5l-8 7q-25 25 -31 25 q-11 0 -133 -119l-23 -20q-3 -3 -16.5 -19.5t-24 -24.5t-18.5 -6l-10 2q-43 -5 -43 11zM266 631q0 -15 25 -15h16q16 0 34 1t21 1l35 -2q15 0 31 2l33 3q72 5 95.5 18.5t23.5 52.5q0 66 -37 110t-94 44q-90 0 -144 -98q-14 -25 -26.5 -62.5t-12.5 -54.5z" />
<glyph unicode="&#xeb;" horiz-adv-x="854" d="M55 403q6 117 10 144t21 71q56 140 159 221t226 81q157 0 254 -97q76 -73 76 -221q0 -40 -8 -47.5t-48 -7.5l-213 -2h-155q-15 0 -28 0.5t-21 1t-9 0.5h-26q-8 -2 -21 -2q-11 0 -14.5 -3.5t-3.5 -13.5q0 -140 78 -245q37 -49 101.5 -82t123.5 -33q44 0 91.5 17t80.5 46 q16 13 23 13q9 0 22.5 -12.5t13.5 -18.5q0 -8 -19 -39.5t-34 -48.5q-132 -152 -307 -152q-84 0 -160.5 38t-122.5 102q-31 41 -42 63.5t-25 69.5q-11 36 -17.5 83t-5.5 74zM156 1208q0 50 35.5 85.5t84.5 35.5q52 0 88.5 -36t36.5 -87t-35 -87t-85 -36q-55 0 -90 34.5 t-35 90.5zM266 631q0 -15 25 -15h16q16 0 34 1t21 1l35 -2q15 0 31 2l33 3q72 5 95.5 18.5t23.5 52.5q0 66 -37 110t-94 44q-90 0 -144 -98q-14 -25 -26.5 -62.5t-12.5 -54.5zM563 1208q0 50 35.5 85.5t85.5 35.5q52 0 88.5 -36t36.5 -87t-35.5 -87t-85.5 -36 q-56 0 -90.5 34.5t-34.5 90.5z" />
<glyph unicode="&#xec;" horiz-adv-x="526" d="M-80 1311q0 28 24 46.5t58 18.5q33 0 66 -25t108 -104l45 -47q39 -39 55 -59q14 -17 17 -17q52 -56 57 -63q10 -7 10 -10q1 -6 -4.5 -9.5t-13.5 -3.5h-25q-18 0 -68.5 26t-105.5 64l-86 48q-76 43 -106.5 73t-30.5 62zM47 37q0 19 6 26.5t25 8.5q64 6 75 35t11 194 q0 12 2 50t2 40q0 7 -2 41.5t-2 40.5l2 64l-2 77l2 43q1 29 -14 43.5t-62 32.5q-27 8 -27 39q0 19 27 34.5t117 45.5l51 22q36 19 66 29q11 3 27 11t26 8q6 0 12 -7.5t6 -13.5q0 -1 -2 -7t-2 -9t1.5 -10t2 -13t0.5 -10q0 -6 -2 -28.5t-2 -24.5l2 -70l-2 -111q2 -25 2 -278 q0 -52 2 -72v-86q0 -69 13 -86.5t67 -25.5q27 -3 27 -39q0 -41 -43 -41q-10 0 -33.5 3t-50.5 3q-11 0 -43 3t-41 3q-18 -2 -53 -2q-93 -6 -146 -6q-6 -2 -12 -2q-33 0 -33 45z" />
<glyph unicode="&#xed;" horiz-adv-x="526" d="M45 37q0 17 7 25.5t24 9.5q31 3 43 7.5t24.5 12t15 38t4 63t1.5 108.5v27q0 14 1 35.5t1 27.5q0 29 -4 82l2 111q0 9 1 33t1 40q1 27 -15 42.5t-63 33.5q-27 9 -27 39q0 19 28 34t118 46l49 22q40 19 68 29q31 10 38 15q12 4 15 4q6 0 11 -6.5t5 -14.5l-1 -3.5l-2 -7 t-1 -5.5q0 -1 3 -15.5t3 -17.5q0 -6 -3 -28.5t-3 -24.5l4 -70v-328l2 -256q0 -39 16 -54t64 -21q25 -3 25 -39q0 -41 -43 -41q-9 0 -32.5 3t-49.5 3q-12 0 -44 3t-42 3q-27 -2 -51 -2q-93 -6 -148 -6l-10 -2q-35 0 -35 45zM184 1049q0 4 68 75q2 0 16 17q12 15 56 59l45 47 q70 76 107 103.5t69 27.5q29 0 55.5 -21t26.5 -46q0 -31 -32.5 -62.5t-107.5 -72.5l-84 -48l-22 -14q-38 -20 -88 -49q-43 -25 -53 -25q-2 -2 -19 -2q-8 0 -20 -2q-4 0 -8 2t-6.5 5t-2.5 6z" />
<glyph unicode="&#xee;" horiz-adv-x="526" d="M10 1055q0 6 15 26q7 7 30 45q22 32 45.5 65.5t41 58t26.5 38.5l25 37q23 35 32 42t31 7q19 0 31 -0.5t22.5 -0.5t17 -2.5t11 -2.5t9 -5.5t6 -7t7 -10.5t7.5 -12q7 -10 28 -41t34.5 -53t25.5 -43q50 -72 82 -129q8 -8 8 -16q0 -11 -27 -11q-28 0 -37 4t-35 29 q-64 60 -96 96q-2 2 -5.5 5t-7 6.5t-8 7t-8 6.5t-6.5 6l-4.5 4.5l-1.5 1.5q-25 25 -30 25q-12 0 -134 -119l-22 -20q-2 -2 -16.5 -19t-25 -25t-18.5 -6l-10 2q-43 -5 -43 11zM47 37q0 13 2.5 20t9 10.5t19.5 4.5q51 5 64 17q19 19 21 105l1 107q0 12 2 50t2 40q0 7 -2 41.5 t-2 40.5l2 64l-2 77l2 43q1 29 -14 43.5t-62 32.5q-10 3 -16 7.5t-8.5 12t-2.5 19.5q0 19 27 34.5t117 45.5l51 22q36 19 66 29q11 3 21 8t17 8t15 3q6 0 12 -7.5t6 -13.5q0 -1 -2 -7t-2 -9t1.5 -10t2 -13t0.5 -10q0 -6 -2 -28.5t-2 -24.5l2 -70l-2 -111q2 -25 2 -278 q0 -52 2 -72v-86q0 -37 2 -55t11.5 -31t23.5 -17.5t43 -8.5q27 -3 27 -39q0 -41 -43 -41q-10 0 -33.5 3t-50.5 3q-11 0 -43 3t-41 3q-27 -2 -53 -2q-93 -6 -146 -6q-6 -2 -12 -2q-17 0 -25 10.5t-8 34.5z" />
<glyph unicode="&#xef;" horiz-adv-x="526" d="M0 1208q0 50 36 85.5t85 35.5q52 0 88.5 -36t36.5 -87t-35.5 -87t-85.5 -36q-55 0 -90 34.5t-35 90.5zM47 37q0 19 7 26t24 9q16 2 24 2.5t18 4.5t13.5 5.5t8.5 11.5t6.5 15.5t4 24.5t3 32.5t2.5 43.5q1 13 1.5 20.5t1 20t1.5 24.5l2 24l2 27q2 31 2 63q0 10 -2 43.5 t-2 38.5v203q-4 21 -18 31t-56 26q-27 9 -27 39q0 19 27 34.5t117 45.5q16 4 60.5 25t58.5 26q32 11 36 15q16 4 17 4q5 0 10.5 -7.5t5.5 -13.5q0 -1 -2 -7.5t-2 -8.5q0 -4 3 -18t3 -15q0 -13 -4 -25l-2 -28l2 -195q1 -47 1 -84.5v-54.5v-30v-19.5t1 -14.5l-2 -100 q0 -19 1 -48.5t1 -70.5q0 -66 14.5 -87t65.5 -25q27 -3 27 -39q0 -41 -43 -41q-10 0 -33.5 3t-48.5 3q-12 0 -44 3t-42 3q-16 -2 -53 -2q-93 -6 -146 -6q-6 -2 -12 -2q-33 0 -33 45zM326 1208q0 50 35.5 85.5t84.5 35.5q34 0 63 -16.5t45.5 -44.5t16.5 -62q0 -51 -35 -87 t-85 -36q-55 0 -90 35t-35 90z" />
<glyph unicode="&#xf0;" horiz-adv-x="1050" d="M55 410q0 110 39 206.5t103.5 162.5t149 103.5t175.5 37.5q9 0 90 -9q4 0 8.5 4t4.5 7q0 4 -7 18q-8 8 -24 37q-46 76 -94 127q-70 70 -84.5 83t-22.5 13q-11 0 -51 -26l-111 -72q-62 -41 -71 -41q-10 0 -25.5 21.5t-15.5 35.5q0 12 28 29l132 84q36 19 36 29 q-1 15 -68.5 49.5t-135.5 56.5q-41 11 -41 25q0 13 14 31t25 18q4 0 20 -4l35 -11q153 -42 213 -77q36 -19 43 -19q6 0 81.5 46.5t112.5 72.5q34 25 45 25q9 0 25 -23.5t16 -34.5q0 -13 -79 -63q-45 -28 -74 -45q-31 -20 -31 -27q0 -6 8 -13.5t37 -25.5q44 -26 109 -86 t110 -115q39 -46 117 -180q40 -74 70 -187.5t30 -191.5q0 -223 -145 -368q-137 -140 -317 -140q-199 0 -332 121q-52 48 -68 70.5t-45 89.5q-35 75 -35 156zM303 537q0 -82 14 -162t42 -152t78.5 -116t115.5 -44q55 0 102.5 34.5t67.5 90.5q25 65 25 197q0 174 -50 295 q-12 30 -37.5 66.5t-42.5 48.5q-19 14 -53 24t-61 10q-105 0 -162 -100q-14 -27 -26.5 -87t-12.5 -105z" />
<glyph unicode="&#xf1;" horiz-adv-x="1159" d="M45 31q0 22 8 31t31 10q54 4 69.5 16.5t18.5 50.5q0 9 1.5 26.5t3 34t1.5 23.5l-2 53l4 121q-4 45 -2 119q0 40 -4 166q0 26 -80 61q-20 10 -20 27q0 9 2 16.5t6.5 12.5t9.5 9t13 7t14.5 5t16 5.5t16.5 5.5q33 14 55 21l24 8q5 2 76 33q8 2 34.5 13.5t35.5 17.5t14 6 q4 0 8.5 -4t7.5 -9.5t3 -9.5l-4 -53q0 -22 -3 -72q0 -6 1.5 -9.5t4.5 -6.5t9 -6l8 8q4 9 20 18l48 35q67 52 125.5 75.5t121.5 23.5q58 0 118.5 -26t94.5 -63q29 -34 46 -95.5t14 -139.5l-2 -61q0 -7 -1 -33t-1 -43v-33l-4 -90v-33q0 -146 4 -182q5 -23 27 -37.5t57 -15.5 q21 -1 30 -8t9 -21q0 -49 -29 -49q-13 0 -19 2l-59 2q-12 0 -47 4t-47 4q-36 -4 -72 -4l-82 -4q-47 -4 -82 -4q-39 0 -39 39q0 20 11 28.5t37 10.5q41 1 56 21t15 73q2 104 2 117v69l4 103q-1 4 -4 141q0 48 -8 72t-33 49q-22 22 -55 36t-53 11q-85 -12 -111 -21.5 t-78 -46.5q-12 -8 -14 -8q-16 -10 -18 -22v-103l-2 -24q-3 -12 -3 -82v-80l3 -109l-3 -55l9 -98q12 -36 67 -39q34 -3 41.5 -8.5t7.5 -28.5q0 -19 -9.5 -32t-24.5 -13q-12 0 -35.5 3t-48.5 3l-70 6q-18 2 -35 2l-67 -4q-34 -1 -91.5 -5.5t-70.5 -4.5q-17 0 -24 9.5t-7 31.5z M293 1116q0 20 12.5 56.5t32.5 72.5q49 90 133 90q33 0 58.5 -11.5t84.5 -53.5q30 -23 62 -37t53 -14q66 0 105 77q1 1 2 3q7 12 10.5 16t7.5 4q11 0 24 -11t13 -20q0 -11 -15.5 -44t-37.5 -68q-60 -97 -146 -97q-27 0 -54.5 13t-92.5 53q-75 49 -115 49q-33 0 -49.5 -16 t-38.5 -68q-9 -20 -20 -20q-5 0 -10.5 2.5t-9.5 6t-6.5 8.5t-2.5 9z" />
<glyph unicode="&#xf2;" horiz-adv-x="1050" d="M55 414q0 231 166 387q57 54 140 86.5t163 32.5q214 0 361 -156q20 -20 47.5 -68t38.5 -80q26 -85 26 -155t-18.5 -139t-50.5 -113q-49 -70 -82.5 -105t-87.5 -69q-44 -29 -107.5 -45.5t-126.5 -16.5q-88 0 -175 33t-144 88q-49 45 -69.5 73.5t-45.5 84.5q-35 83 -35 162 zM176 1311q0 28 24 46.5t58 18.5q33 0 68 -26t106 -103l45 -47q39 -39 55 -59q14 -17 17 -17l57 -63q12 -9 9.5 -16.5t-17.5 -6.5h-27q-17 0 -68.5 26.5t-105.5 63.5l-84 48q-76 43 -106.5 73t-30.5 62zM303 530q0 -146 51 -301q25 -75 78.5 -120.5t116.5 -45.5 q43 0 85.5 21.5t61.5 52.5q21 35 35 89.5t14 99.5q0 124 -9.5 195.5t-35.5 144.5q-10 30 -35.5 68.5t-46.5 56.5q-19 15 -51.5 25.5t-58.5 10.5q-57 0 -94.5 -23.5t-69.5 -80.5q-17 -29 -29 -85.5t-12 -107.5z" />
<glyph unicode="&#xf3;" horiz-adv-x="1050" d="M55 414q0 231 166 387q57 54 140 86.5t163 32.5q214 0 361 -156q20 -20 47.5 -68t38.5 -80q26 -85 26 -155t-18.5 -139t-50.5 -113q-49 -70 -82.5 -105t-87.5 -69q-44 -29 -107.5 -45.5t-126.5 -16.5q-88 0 -175 33t-144 88q-49 45 -69.5 73.5t-45.5 84.5q-35 83 -35 162 zM303 530q0 -146 51 -301q25 -75 78.5 -120.5t116.5 -45.5q43 0 85.5 21.5t61.5 52.5q21 35 35 89.5t14 99.5q0 124 -9.5 195.5t-35.5 144.5q-10 30 -35.5 68.5t-46.5 56.5q-19 15 -51.5 25.5t-58.5 10.5q-57 0 -94.5 -23.5t-69.5 -80.5q-17 -29 -29 -85.5t-12 -107.5z M449 1049q0 5 67 75q2 0 16 17q12 15 56 59l45 47q70 76 107 103.5t69 27.5q29 0 55.5 -21t26.5 -46q0 -31 -32.5 -62.5t-106.5 -72.5q-12 -7 -34 -19.5t-40 -22.5t-33 -20q-38 -20 -88 -49q-43 -25 -53 -25q-2 -2 -19 -2q-8 0 -20 -2q-6 0 -11 4t-5 9z" />
<glyph unicode="&#xf4;" horiz-adv-x="1050" d="M55 414q0 231 166 387q57 54 140 86.5t163 32.5q214 0 361 -156q20 -20 47.5 -68t38.5 -80q26 -85 26 -155t-18.5 -139t-50.5 -113q-49 -70 -82.5 -105t-87.5 -69q-44 -29 -107.5 -45.5t-126.5 -16.5q-88 0 -175 33t-144 88q-49 45 -69.5 73.5t-45.5 84.5q-35 83 -35 162 zM266 1055q0 6 15 26q7 7 30 45q17 26 35.5 52.5t31.5 44t25.5 36t20.5 29.5l25 37q23 35 32 42t31 7q19 0 31 -0.5t22.5 -0.5t17 -2.5t11 -2.5t9 -5.5t6 -7t7 -10.5t7.5 -12q7 -10 28 -41t34.5 -53t25.5 -43q50 -72 82 -129q8 -8 8 -16q0 -11 -27 -11q-28 0 -37 4t-35 29 q-64 60 -96 96q-4 4 -15 13.5t-18.5 16.5l-7.5 7q-25 25 -30 25q-12 0 -134 -119l-22 -20q-2 -2 -16.5 -19t-25 -25t-18.5 -6l-10 2q-43 -5 -43 11zM303 530q0 -146 51 -301q25 -75 78.5 -120.5t116.5 -45.5q43 0 85.5 21.5t61.5 52.5q21 35 35 89.5t14 99.5q0 84 -4 140.5 t-13.5 103t-27.5 96.5q-10 30 -35.5 68.5t-46.5 56.5q-9 7 -22.5 14t-28.5 11.5t-30.5 7.5t-28.5 3q-57 0 -94.5 -23.5t-69.5 -80.5q-11 -19 -20.5 -51.5t-15 -70t-5.5 -71.5z" />
<glyph unicode="&#xf5;" horiz-adv-x="1050" d="M55 414q0 231 166 387q57 54 140 86.5t163 32.5q214 0 361 -156q20 -20 47.5 -68t38.5 -80q26 -85 26 -155t-18.5 -139t-50.5 -113q-49 -70 -82.5 -105t-87.5 -69q-44 -29 -107.5 -45.5t-126.5 -16.5q-88 0 -175 33t-144 88q-49 45 -69.5 73.5t-45.5 84.5q-35 83 -35 162 zM227 1116q0 47 45 129q49 90 134 90q33 0 58.5 -11.5t84.5 -53.5q67 -51 115 -51q65 0 104 77q14 23 20 23q11 0 24 -11t13 -20q0 -26 -53 -112q-60 -97 -145 -97q-27 0 -55.5 13t-92.5 53q-75 49 -114 49q-33 0 -50.5 -16t-38.5 -68q-9 -20 -20 -20q-10 0 -19.5 8.5 t-9.5 17.5zM303 530q0 -146 51 -301q25 -75 78.5 -120.5t116.5 -45.5q43 0 85.5 21.5t61.5 52.5q21 35 35 89.5t14 99.5q0 124 -9.5 195.5t-35.5 144.5q-10 30 -35.5 68.5t-46.5 56.5q-19 15 -51.5 25.5t-58.5 10.5q-57 0 -94.5 -23.5t-69.5 -80.5q-17 -29 -29 -85.5 t-12 -107.5z" />
<glyph unicode="&#xf6;" horiz-adv-x="1048" d="M55 414q0 116 34 202t110 164q62 65 148.5 102.5t178.5 37.5q142 0 242 -64q68 -44 100.5 -77.5t71.5 -100.5q22 -38 37.5 -101t15.5 -110q0 -129 -39 -209q-69 -135 -181 -210t-245 -75q-126 0 -254 64q-38 20 -104 86q-51 51 -83 131.5t-32 159.5zM219 1208 q0 50 35.5 85.5t85.5 35.5q52 0 88.5 -36t36.5 -87t-35.5 -87t-85.5 -36q-56 0 -90.5 34.5t-34.5 90.5zM295 545q0 -153 70 -326q29 -70 81.5 -111.5t112.5 -41.5q46 0 91.5 23.5t62.5 57.5q39 73 39 177q0 60 -14 151.5t-29 138.5q-73 213 -217 213q-94 0 -145.5 -74 t-51.5 -208zM625 1208q0 50 35.5 85.5t84.5 35.5q52 0 88.5 -36t36.5 -87t-35 -87t-85 -36q-56 0 -90.5 34.5t-34.5 90.5z" />
<glyph unicode="&#xf7;" d="M109 522q0 42 9.5 55t41.5 13h6q6 1 16 1.5t21 0.5h47l209 -4l49 2l108 -2l230 2q42 0 55.5 -8t13.5 -33q0 -18 -3.5 -48t-6.5 -36q-5 -12 -15 -14t-69 -2h-141q-63 0 -175.5 -1.5t-162.5 -1.5h-29q-22 0 -71 2.5t-64 2.5l-22 -2q-26 -3 -36.5 13.5t-10.5 59.5zM391 244 q0 51 35 87t86 36q54 0 86.5 -33.5t32.5 -89.5q0 -55 -35 -93t-86 -38t-85 37.5t-34 93.5zM391 801q0 51 35 87t86 36q54 0 86.5 -33.5t32.5 -89.5q0 -55 -35 -93t-86 -38t-85 37.5t-34 93.5z" />
<glyph unicode="&#xf8;" horiz-adv-x="1048" d="M-20 10q0 12 32 41l35 35q4 5 19.5 18.5t27.5 25t22.5 24.5t10.5 20q0 6 -23 47q-21 40 -35 98t-14 103q0 204 138 350t331 146q165 0 269 -76q6 -6 12 -6q11 0 41 30l35 33q12 13 49 51q25 29 41 29q11 0 44.5 -33t33.5 -43t-7.5 -19.5t-46.5 -45.5q-34 -33 -61 -58 q-29 -29 -29 -39q0 -6 37 -67q23 -36 38 -98t15 -117q0 -180 -108 -307q-26 -32 -69.5 -68.5t-74.5 -54.5q-41 -23 -103 -39.5t-105 -16.5q-69 0 -149 23t-126 55q-31 23 -37 23q-17 0 -94 -80q-61 -66 -72 -66q-8 0 -42.5 36.5t-34.5 45.5zM305 537q0 -79 6 -131t15 -52 q5 0 82 74q13 12 81 79.5t105 102.5l29 29l28 28t16.5 17t10.5 14t2 9q0 9 -22 39t-40 45q-18 14 -50 25t-58 11q-97 0 -151 -76t-54 -214zM360 217q0 -10 16.5 -38t35.5 -52q15 -18 38 -33t48 -23t47 -8q42 0 85.5 21.5t63.5 52.5q25 38 35.5 82t13.5 111l2 41v24 q0 50 -8 105q-1 9 -2 19.5t-1.5 15.5t-0.5 8q-3 32 -14 32q-7 0 -37 -30l-150 -144q-11 -10 -22.5 -21.5t-18.5 -18t-10 -9.5q-12 -14 -26 -27.5t-32.5 -30.5t-27.5 -26q-35 -32 -35 -51z" />
<glyph unicode="&#xf9;" horiz-adv-x="1095" d="M33 836q0 9 2 15.5t6 11t10.5 7.5t15 4.5t19.5 2.5q20 2 242 26q18 6 24 6q9 0 16 -7t7 -13l-2 -37q0 -4 2 -17.5t2 -17.5q0 -3 -2 -24.5t-2 -24.5l4 -86l-4 -72q4 -44 4 -67q0 -15 -3 -68t-3 -61l6 -113q2 -50 11.5 -77t35.5 -48q50 -41 123 -41q28 0 51.5 6.5 t49.5 21.5t63 42q30 23 34.5 31t6.5 36l2 39q0 6 0.5 12.5t0.5 10t0.5 7l0.5 3.5q0 5 -2 32.5t-2 31.5q0 35 0.5 67.5t1 53.5t0.5 47.5t-1 61.5t-3 83q-2 45 -11.5 57t-58.5 25l-41 -4q-7 0 -14 11.5t-7 23.5q0 21 11.5 29.5t36.5 8.5l151 21q6 1 12.5 1.5t11 1t8.5 1t6 0.5 h3q69 7 72 8q16 4 18 4q15 0 21 -15.5t6 -59.5v-17q-2 -16 -2 -43v-47q0 -11 0.5 -22t1 -20.5t0.5 -16.5q0 -13 -2 -59.5t-2 -51.5q0 -9 2 -53.5t2 -54.5q0 -12 -2 -48.5t-2 -40.5l2 -55l-2 -86q-3 -69 28 -69q16 0 35 8q16 8 21 8q12 0 18 6q4 0 9 -12t5 -19 q-3 -26 -5.5 -31.5t-16.5 -11.5q-1 0 -37 -18q-5 -3 -45 -19.5t-45 -19.5q-14 -6 -66 -29t-81 -35q-17 -10 -23 -10q-11 0 -14 15t0 28q0 2 -2 20t-2 21t2 12t2 11q0 4 -2 18.5t-2 36.5q0 23 -9 23l-4 -2q-2 -2 -28 -27q-55 -55 -127 -100q-75 -48 -164 -48q-68 0 -128.5 25 t-92.5 66q-48 59 -45 221l4 245q0 53 -4 119q0 7 2 31.5t2 30.5q0 46 -18 65.5t-64 20.5q-22 2 -31.5 10t-9.5 27zM211 1311q0 17 11.5 32t31 24t41.5 9q32 0 66.5 -26t107.5 -103q37 -41 100 -106l15 -17q10 -12 21 -23.5t21.5 -22t16.5 -17.5q10 -10 10 -12q0 -4 -6 -7.5 t-14 -3.5h-25q-17 0 -68.5 26.5t-105.5 63.5l-84 48q-77 43 -108 73t-31 62z" />
<glyph unicode="&#xfa;" horiz-adv-x="1095" d="M33 836q0 9 2 15.5t6 11t10.5 7.5t15 4.5t19.5 2.5q20 2 242 26q18 6 24 6q9 0 16 -7t7 -13l-2 -37q0 -4 2 -17.5t2 -17.5q0 -3 -2 -24.5t-2 -24.5l4 -86l-4 -72q4 -44 4 -67q0 -15 -3 -68t-3 -61l6 -113q2 -50 11.5 -77t35.5 -48q50 -41 123 -41q28 0 51.5 6.5 t49.5 21.5t63 42q30 23 34.5 31t6.5 36l2 39q0 6 0.5 12.5t0.5 10t0.5 7l0.5 3.5q0 5 -2 32.5t-2 31.5q0 35 0.5 67.5t1 53.5t0.5 47.5t-1 61.5t-3 83q-2 45 -11.5 57t-58.5 25l-41 -4q-7 0 -14 11.5t-7 23.5q0 21 11.5 29.5t36.5 8.5l151 21q6 1 12.5 1.5t11 1t8.5 1t6 0.5 h3q69 7 72 8q16 4 18 4q15 0 21 -15.5t6 -59.5v-17q-2 -16 -2 -43v-47q0 -11 0.5 -22t1 -20.5t0.5 -16.5q0 -13 -2 -59.5t-2 -51.5q0 -9 2 -53.5t2 -54.5q0 -12 -2 -48.5t-2 -40.5l2 -55l-2 -86q-3 -69 28 -69q16 0 35 8q16 8 21 8q12 0 18 6q4 0 9 -12t5 -19 q-3 -26 -5.5 -31.5t-16.5 -11.5q-1 0 -37 -18q-5 -3 -45 -19.5t-45 -19.5q-14 -6 -66 -29t-81 -35q-17 -10 -23 -10q-11 0 -14 15t0 28q0 2 -2 20t-2 21t2 12t2 11q0 4 -2 18.5t-2 36.5q0 23 -9 23l-4 -2q-2 -2 -28 -27q-55 -55 -127 -100q-75 -48 -164 -48q-68 0 -128.5 25 t-92.5 66q-48 59 -45 221l4 245q0 53 -4 119q0 7 2 31.5t2 30.5q0 46 -18 65.5t-64 20.5q-22 2 -31.5 10t-9.5 27zM471 1049q0 4 68 75q2 0 16 17q16 20 55 59l45 47q70 76 107 103.5t69 27.5q29 0 55.5 -21t26.5 -46q0 -21 -14 -41.5t-44.5 -43t-80.5 -50.5l-84 -48 l-22 -14q-38 -20 -88 -49q-43 -25 -54 -25q-2 -2 -18 -2q-9 0 -21 -2q-6 0 -11 4t-5 9z" />
<glyph unicode="&#xfb;" horiz-adv-x="1095" d="M33 836q0 9 2 15.5t6 11t10.5 7.5t15 4.5t19.5 2.5q20 2 242 26q18 6 24 6q9 0 16 -7t7 -13l-2 -37q0 -4 2 -17.5t2 -17.5q0 -3 -2 -24.5t-2 -24.5l4 -86l-4 -72q4 -44 4 -67q0 -15 -3 -68t-3 -61l6 -113q2 -50 11.5 -77t35.5 -48q50 -41 123 -41q28 0 51.5 6.5 t49.5 21.5t63 42q30 23 34.5 31t6.5 36l2 39q0 6 0.5 12.5t0.5 10t0.5 7l0.5 3.5q0 5 -2 32.5t-2 31.5q0 35 0.5 67.5t1 53.5t0.5 47.5t-1 61.5t-3 83q-2 45 -11.5 57t-58.5 25l-41 -4q-7 0 -14 11.5t-7 23.5q0 21 11.5 29.5t36.5 8.5l151 21q6 1 12.5 1.5t11 1t8.5 1t6 0.5 h3q69 7 72 8q16 4 18 4q15 0 21 -15.5t6 -59.5v-17q-2 -16 -2 -43v-47q0 -11 0.5 -22t1 -20.5t0.5 -16.5q0 -13 -2 -59.5t-2 -51.5q0 -9 2 -53.5t2 -54.5q0 -12 -2 -48.5t-2 -40.5l2 -55l-2 -86q-3 -69 28 -69q16 0 35 8q16 8 21 8q12 0 18 6q4 0 9 -12t5 -19 q-3 -26 -5.5 -31.5t-16.5 -11.5q-1 0 -37 -18q-5 -3 -45 -19.5t-45 -19.5q-14 -6 -66 -29t-81 -35q-17 -10 -23 -10q-11 0 -14 15t0 28q0 2 -2 20t-2 21t2 12t2 11q0 4 -2 18.5t-2 36.5q0 23 -9 23l-4 -2q-2 -2 -28 -27q-55 -55 -127 -100q-75 -48 -164 -48q-68 0 -128.5 25 t-92.5 66q-48 59 -45 221l4 245q0 53 -4 119q0 7 2 31.5t2 30.5q0 46 -18 65.5t-64 20.5q-22 2 -31.5 10t-9.5 27zM289 1055q0 7 14 26q9 9 31 45q28 41 65 94t47 68l25 37q23 35 32.5 42t31.5 7q16 0 26 -0.5t19.5 0t15.5 -1t11.5 -1.5t9.5 -3t6.5 -3.5t6 -6t4.5 -6.5 t5 -8.5t6 -10.5q7 -10 22.5 -32.5t24.5 -35.5t20.5 -32.5t20.5 -36.5q50 -72 82 -129q8 -8 8 -16q0 -11 -26 -11q-28 0 -37 4t-35 29q-64 60 -96 96q-41 35 -41 37q-25 25 -31 25q-11 0 -133 -119l-23 -20q-3 -3 -16.5 -19.5t-24 -24.5t-18.5 -6l-10 2q-12 -3 -27.5 -1.5 t-15.5 12.5z" />
<glyph unicode="&#xfc;" horiz-adv-x="1095" d="M33 836q0 9 2 15.5t6 11t10.5 7.5t15 4.5t19.5 2.5q20 2 242 26q18 6 24 6q9 0 16 -7t7 -13l-2 -37q0 -4 2 -17.5t2 -17.5q0 -3 -2 -24.5t-2 -24.5l4 -86l-4 -72q4 -44 4 -67q0 -15 -3 -68t-3 -61l6 -113q2 -50 11.5 -77t35.5 -48q50 -41 123 -41q28 0 51.5 6.5 t49.5 21.5t63 42q30 23 34.5 31t6.5 36l2 39q0 6 0.5 12.5t0.5 10t0.5 7l0.5 3.5q0 5 -2 32.5t-2 31.5q0 35 0.5 67.5t1 53.5t0.5 47.5t-1 61.5t-3 83q-2 45 -11.5 57t-58.5 25l-41 -4q-7 0 -14 11.5t-7 23.5q0 21 11.5 29.5t36.5 8.5l151 21q6 1 12.5 1.5t11 1t8.5 1t6 0.5 h3q69 7 72 8q16 4 18 4q15 0 21 -15.5t6 -59.5v-17q-2 -16 -2 -43v-47q0 -11 0.5 -22t1 -20.5t0.5 -16.5q0 -13 -2 -59.5t-2 -51.5q0 -9 2 -53.5t2 -54.5q0 -12 -2 -48.5t-2 -40.5l2 -55l-2 -86q-3 -69 28 -69q16 0 35 8q16 8 21 8q12 0 18 6q4 0 9 -12t5 -19 q-3 -26 -5.5 -31.5t-16.5 -11.5q-1 0 -37 -18q-5 -3 -45 -19.5t-45 -19.5q-14 -6 -66 -29t-81 -35q-17 -10 -23 -10q-11 0 -14 15t0 28q0 2 -2 20t-2 21t2 12t2 11q0 4 -2 18.5t-2 36.5q0 23 -9 23l-4 -2q-2 -2 -28 -27q-55 -55 -127 -100q-75 -48 -164 -48q-68 0 -128.5 25 t-92.5 66q-48 59 -45 221l4 245q0 53 -4 119q0 7 2 31.5t2 30.5q0 46 -18 65.5t-64 20.5q-22 2 -31.5 10t-9.5 27zM246 1208q0 50 36 85.5t85 35.5q34 0 63 -16.5t45.5 -44.5t16.5 -62q0 -51 -35.5 -87t-85.5 -36q-55 0 -90 34.5t-35 90.5zM653 1208q0 50 36 85.5t85 35.5 q34 0 63 -16.5t45.5 -44.5t16.5 -62q0 -51 -35.5 -87t-85.5 -36q-55 0 -90 34.5t-35 90.5z" />
<glyph unicode="&#xfd;" horiz-adv-x="931" d="M-49 854q0 7 5.5 23t8.5 18q12 4 98 4q6 0 56.5 -4t64.5 -4q9 0 70 3t80 3q76 0 95.5 -7t19.5 -34q0 -15 -6 -23t-19 -11.5t-37 -4.5q-26 0 -41.5 -11t-15.5 -26q0 -22 40.5 -119t94.5 -206l57 -121q2 -8 8 -12q4 0 9 10q15 31 64.5 149.5t66.5 155.5q47 106 47 139 q0 38 -55 47q-22 1 -29.5 6.5t-7.5 18.5q2 32 6.5 40.5t21.5 8.5q13 0 30 -3t73 -3h35l16 -2q23 2 47 2q5 1 13 1.5t21.5 1t24.5 1.5q37 0 37 -35q0 -19 -6.5 -27.5t-23.5 -11.5q-25 -4 -39 -7t-29.5 -12.5t-24.5 -19.5t-22 -34t-24 -50t-29 -73l-39 -101q-35 -75 -86 -207 l-43 -112q-1 -1 -58 -146q-23 -60 -61 -147l-53 -131q-59 -146 -132.5 -222.5t-156.5 -76.5q-58 0 -97.5 35t-39.5 88q0 49 36.5 81.5t92.5 32.5q29 0 94 -18q24 -4 33 -4q26 0 43.5 23.5t50.5 107.5q9 18 24 53t23 51l8 25l15 39l4 16q0 9 -11 31l-41 90q-30 79 -67 152 q-49 106 -53 116q-23 56 -54 123.5t-53 124.5q-38 99 -65.5 134t-73.5 42q-41 3 -41 29zM430 1049q0 4 68 75q2 0 16 17q16 20 55 59l45 47q36 39 61.5 63.5t46.5 40t36.5 21.5t32.5 6q29 0 55 -21t26 -46q0 -31 -32.5 -62.5t-106.5 -72.5l-84 -48l-22 -14q-38 -20 -88 -49 q-43 -25 -54 -25q-2 -2 -18 -2q-9 0 -21 -2q-6 0 -11 4t-5 9z" />
<glyph unicode="&#xfe;" horiz-adv-x="1064" d="M35 -485q0 23 8 32.5t31 10.5q15 1 23.5 2t18 5.5t13.5 9.5t9 17.5t6.5 26t2.5 38.5t1 52t-1 68l-4 172l7 309l-3 66l5 131l-2 34l2 138q0 23 -1 57t-1 80q0 16 -0.5 27t-1 36t-1.5 56q-1 1 3 125q4 74 4 155q0 71 -4.5 102.5t-17.5 49t-44 33.5q-12 6 -16 12.5t-4 19.5 q0 15 7.5 21t51.5 26l156 66q26 9 45 20l24 9q12 4 13 4q0 2 2 2q3 0 6.5 -7t3.5 -12l-2 -32l2 -138l-2 -41l2 -94l-2 -139q-1 -54 -1 -102v-73.5v-45.5v-29t-1 -12q-2 -8 -2 -15q0 -6 3.5 -11t6.5 -5q6 0 18 8l29 19q33 20 43 30l16 13l43 28q12 6 27.5 15.5t24 14t26 8 t43.5 3.5q74 0 146 -35.5t118 -95.5q51 -66 74 -138.5t23 -166.5q0 -240 -168 -377q-58 -47 -92.5 -66t-87.5 -32q-4 -1 -12 -4t-15 -4.5t-22 -3t-41.5 -2.5t-63.5 0l-104 2q-25 0 -29 -16.5t-4 -114.5v-27q-2 -23 -2 -49q0 -16 8 -148q1 -28 9 -40t30 -21q32 -16 65 -16 q18 0 27 -3t12.5 -10t3.5 -22q0 -23 -10 -32t-35 -9q-10 0 -90.5 3t-99.5 3q-110 0 -170 -6q-61 -4 -73.5 1t-12.5 34zM371 371q0 -11 1 -30t1 -32v-88q0 -47 64.5 -94t129.5 -47q38 0 67.5 11t53 34.5t45.5 62.5q20 39 32.5 98t12.5 120q0 93 -44.5 188.5t-104.5 128.5 q-15 7 -47.5 14.5t-51.5 7.5q-12 0 -29.5 -2t-33 -5.5t-23.5 -6.5q-23 -11 -35 -17.5t-20.5 -12.5t-11 -11.5t-2.5 -13.5v-45q-2 -20 -2 -51v-35q2 -20 2 -39q0 -12 -2 -65.5t-2 -69.5z" />
<glyph unicode="&#xff;" horiz-adv-x="931" d="M-49 854q0 7 5.5 23t8.5 18q12 4 98 4q6 0 56.5 -4t64.5 -4q9 0 70 3t80 3q76 0 95.5 -7t19.5 -34q0 -15 -6 -23t-19 -11.5t-37 -4.5q-26 0 -41.5 -11t-15.5 -26q0 -22 40.5 -119t94.5 -206l57 -121q2 -8 8 -12q4 0 9 10q15 31 64.5 149.5t66.5 155.5q47 106 47 139 q0 38 -55 47q-22 1 -29.5 6.5t-7.5 18.5q2 32 6.5 40.5t21.5 8.5q13 0 30 -3t73 -3h35l16 -2q23 2 47 2q5 1 13 1.5t21.5 1t24.5 1.5q37 0 37 -35q0 -19 -6.5 -27.5t-23.5 -11.5q-25 -4 -39 -7t-29.5 -12.5t-24.5 -19.5t-22 -34t-24 -50t-29 -73l-39 -101q-35 -75 -86 -207 l-43 -112q-1 -1 -58 -146q-23 -60 -61 -147l-53 -131q-59 -146 -132.5 -222.5t-156.5 -76.5q-58 0 -97.5 35t-39.5 88q0 49 36.5 81.5t92.5 32.5q29 0 94 -18q24 -4 33 -4q26 0 43.5 23.5t50.5 107.5q9 18 24 53t23 51l8 25l15 39l4 16q0 9 -11 31l-41 90q-30 79 -67 152 q-49 106 -53 116q-23 56 -54 123.5t-53 124.5q-38 99 -65.5 134t-73.5 42q-41 3 -41 29zM188 1208q0 49 36 85t85 36q34 0 63 -16.5t45.5 -44.5t16.5 -62q0 -51 -35.5 -87t-85.5 -36q-55 0 -90 34.5t-35 90.5zM596 1208q0 49 36 85t85 36q34 0 63 -16.5t45.5 -44.5t16.5 -62 q0 -51 -35.5 -87t-85.5 -36q-55 0 -90 34.5t-35 90.5z" />
<glyph unicode="&#x152;" horiz-adv-x="1873" d="M59 629q0 188 50 324t161 249q77 77 172 127q59 31 149.5 51.5t168.5 20.5q43 0 149 -11t156 -14q45 -4 129 -8q86 4 481 4q54 0 70 -4.5t16 -19.5l-4 -99q0 -12 2 -20l2 -25q2 -25 1 -51.5t-2.5 -47t-2.5 -22.5q-6 -6 -35 -6q-23 0 -28 4t-8 25q-10 98 -49 138t-121 42 q-61 0 -89 4l-59 2q-114 3 -135 -57q-4 -13 -9 -172.5t-5 -286.5q0 -20 16 -20l22 2q4 0 18 -2t19 -2q20 0 43 2h25q97 0 131 27t45 110q6 29 35 29q43 0 43 -33q0 -20 -3.5 -60t-4.5 -59q0 -15 -1 -34t-1 -21q-2 -16 -2 -35q0 -44 6 -158q-3 -37 -21 -37h-2l-8 2l-35 5 q-6 0 -10 28q-6 98 -43 127q-11 11 -46 19.5t-61 7.5l-43 -2l-75 2q-35 0 -41 -6q-9 -9 -4 -74l2 -31l-4 -135l2 -29l-2 -106q-1 -71 3 -107.5t7 -42.5t16 -24q24 -27 60 -33q70 -10 106 -10q8 1 22 1.5t39.5 1t45.5 1.5q79 3 129.5 41.5t109.5 138.5q15 25 22.5 33t14.5 8 q15 0 38 -11t23 -22q0 -5 -6 -14q0 -1 -8 -25q-42 -112 -63 -180q-12 -37 -18 -47t-17 -10q-4 0 -16 2t-21 2q-88 -2 -158 -2l-65 2q-39 2 -144 2q-51 0 -105.5 2t-74.5 2q-166 -8 -264 -22q-102 -15 -164 -15q-242 0 -387 105q-131 94 -208 245t-77 314zM336 719 q0 -62 9.5 -142t21.5 -120q28 -97 35 -117.5t22 -48.5q67 -124 144.5 -182t174.5 -58q78 0 127.5 21.5t81.5 68.5q16 24 19 70q2 68 4 139t3 108l1 38l-2 65l4 232q-2 27 -2 90q0 67 -2 117t-2 130q0 94 -51.5 144.5t-147.5 50.5q-74 0 -124 -14.5t-101 -50.5 q-66 -46 -107 -111t-75 -178q-33 -116 -33 -252z" />
<glyph unicode="&#x153;" horiz-adv-x="1546" d="M53 418q0 59 20 135.5t48 126.5q32 55 84 106.5t98 73.5q64 30 88 38.5t64 14.5q50 9 69 9q100 0 198 -41t136 -99q14 -14 16 -14l5 4q34 60 119.5 104t170.5 44q146 0 236 -85t90 -223q0 -40 -6 -53.5t-25 -13.5q-6 0 -14 2h-10l-213 -2l-84 2h-17q-14 -2 -26 -2h-29 q-20 2 -45 2q-19 0 -39 -2h-20q-24 0 -21 -19q7 -80 10.5 -99.5t16.5 -51.5q43 -104 123 -158q32 -21 77 -36t76 -15q40 0 92 18.5t82 44.5q15 15 23 15q7 0 22 -13.5t15 -19.5q0 -8 -8 -16l-19 -31q-17 -29 -51 -64.5t-62 -54.5q-66 -43 -112 -58.5t-109 -15.5 q-78 0 -157 36.5t-105 84.5q-11 19 -14 19q-4 0 -4 -5q-12 -22 -52.5 -51.5t-82.5 -46.5q-88 -37 -179 -37q-123 0 -233 60q-107 55 -168 147q-30 45 -52 116t-22 124zM303 528q0 -146 51 -301q25 -75 78.5 -120.5t116.5 -45.5q43 0 85.5 21.5t61.5 52.5q21 36 35 90t14 99 q0 125 -9.5 197t-35.5 145q-10 30 -35.5 68.5t-46.5 56.5q-19 15 -51.5 25.5t-58.5 10.5q-57 0 -94.5 -23.5t-69.5 -80.5q-17 -31 -29 -87t-12 -108zM958 631q0 -15 25 -15h16q16 2 56 2q135 0 177 14t42 60q0 66 -37.5 110t-93.5 44q-88 0 -146 -98q-14 -25 -26.5 -62.5 t-12.5 -54.5z" />
<glyph unicode="&#x178;" horiz-adv-x="1337" d="M-6 1321q0 46 10 49q6 4 86 4q13 0 114.5 -4t133.5 -4q10 0 110 5t113 5q34 0 43.5 -5.5t9.5 -27.5v-17.5t-3 -11t-5 -8t-13 -3.5t-19.5 -2t-30.5 -1q-84 0 -84 -34q0 -5 3.5 -11.5t15.5 -24.5t28.5 -42t50 -76.5t72.5 -116.5l16 -26q14 -25 57 -86l56 -78q17 -29 24 -29 q8 0 32 35.5t81 128.5l47 76q72 106 101.5 158.5t29.5 76.5q0 25 -22.5 34t-85.5 11q-25 0 -31 6.5t-6 32.5q0 24 5 30.5t23 6.5h15q14 0 88.5 -2t87.5 -2q4 0 25 1.5t57 3t76 1.5h10q19 0 25 -9.5t6 -37.5q0 -15 -6.5 -21.5t-24.5 -7.5q-51 -6 -79.5 -27.5t-72.5 -92.5 q-14 -23 -43 -64t-35 -49l-14 -21q-145 -210 -223 -346q-25 -44 -29 -56t-4 -40v-35q0 -13 1 -33.5t1 -37.5q0 -203 6 -318q3 -58 33.5 -79.5t120.5 -30.5q19 -1 25 -9t6 -30q0 -33 -33 -33q-27 0 -80.5 2t-89.5 2q-151 0 -295 -8q-74 -4 -94 -4t-26.5 7t-6.5 30 q0 25 5.5 30.5t29.5 7.5q30 1 47.5 2.5t36 7.5t27 11.5t17.5 22.5t12 32t5.5 48t3 63t0.5 84q0 8 -2 28t-2 48v69q0 163 -6 166q-15 18 -78 117l-4 5q-4 5 -16 22t-33 49q-69 108 -143 217q-93 134 -142 192q-17 22 -40 31.5t-74 15.5q-24 3 -28.5 6.5t-4.5 20.5zM432 1694 q0 50 36 85.5t85 35.5q52 0 88.5 -36t36.5 -87t-35.5 -87t-85.5 -36q-55 0 -90 34.5t-35 90.5zM840 1694q0 50 36 85.5t85 35.5q52 0 88 -36t36 -87t-35 -87t-85 -36q-55 0 -90 34.5t-35 90.5z" />
<glyph unicode="&#x2c6;" d="M246 1055q0 7 14 26q9 9 31 45q28 41 65 94t47 68l25 37q23 35 32.5 42t31.5 7q16 0 26 -0.5t19.5 0t15.5 -1t11.5 -1.5t9.5 -3t6.5 -3.5t6 -6t4.5 -6.5t5 -8.5t6 -10.5q7 -10 22.5 -32.5t24.5 -35.5t20.5 -32.5t20.5 -36.5q50 -72 82 -129q8 -8 8 -16q0 -11 -26 -11 q-28 0 -37 4t-35 29q-64 60 -96 96q-41 35 -41 37q-25 25 -31 25q-11 0 -133 -119l-23 -20q-3 -3 -16.5 -19.5t-24 -24.5t-18.5 -6l-10 2q-43 -5 -43 11z" />
<glyph unicode="&#x2dc;" d="M213 1116q0 47 45 129q49 90 133 90q33 0 59 -11.5t85 -53.5q67 -51 114 -51q66 0 105 77q14 23 20 23q11 0 24 -11t13 -20q0 -26 -53 -112q-60 -97 -146 -97q-27 0 -54.5 13t-92.5 53q-75 49 -115 49q-33 0 -49.5 -16t-38.5 -68q-9 -20 -20 -20q-10 0 -19.5 8.5 t-9.5 17.5z" />
<glyph unicode="&#x2000;" horiz-adv-x="942" />
<glyph unicode="&#x2001;" horiz-adv-x="1884" />
<glyph unicode="&#x2002;" horiz-adv-x="942" />
<glyph unicode="&#x2003;" horiz-adv-x="1884" />
<glyph unicode="&#x2004;" horiz-adv-x="628" />
<glyph unicode="&#x2005;" horiz-adv-x="471" />
<glyph unicode="&#x2006;" horiz-adv-x="314" />
<glyph unicode="&#x2007;" horiz-adv-x="314" />
<glyph unicode="&#x2008;" horiz-adv-x="235" />
<glyph unicode="&#x2009;" horiz-adv-x="376" />
<glyph unicode="&#x200a;" horiz-adv-x="104" />
<glyph unicode="&#x2010;" horiz-adv-x="532" d="M35 389v119q0 26 9.5 30.5t64.5 4.5q14 0 55 -4h20l105 2h82q20 0 38 1t21 1h8q14 -2 25 -2l22 2q10 1 12 -8q3 -13 3 -107q0 -48 -5.5 -58.5t-29.5 -9.5l-21 -2h-12q-17 0 -31 2h-127l-12 -2q-168 -2 -197.5 2t-29.5 29z" />
<glyph unicode="&#x2011;" horiz-adv-x="532" d="M35 389v119q0 26 9.5 30.5t64.5 4.5q14 0 55 -4h20l105 2h82q20 0 38 1t21 1h8q14 -2 25 -2l22 2q10 1 12 -8q3 -13 3 -107q0 -48 -5.5 -58.5t-29.5 -9.5l-21 -2h-12q-17 0 -31 2h-127l-12 -2q-168 -2 -197.5 2t-29.5 29z" />
<glyph unicode="&#x2012;" horiz-adv-x="532" d="M35 389v119q0 26 9.5 30.5t64.5 4.5q14 0 55 -4h20l105 2h82q20 0 38 1t21 1h8q14 -2 25 -2l22 2q10 1 12 -8q3 -13 3 -107q0 -48 -5.5 -58.5t-29.5 -9.5l-21 -2h-12q-17 0 -31 2h-127l-12 -2q-168 -2 -197.5 2t-29.5 29z" />
<glyph unicode="&#x2013;" horiz-adv-x="899" d="M35 444q0 71 6.5 85t38.5 14q54 0 100 -2t84 -2h41l529 6q20 0 26 -17t6 -71q0 -68 -6 -82.5t-35 -14.5h-26l-33 -2h-25q-26 0 -49 2h-250q-14 0 -35 -1t-30 -1l-90 2h-29q-1 0 -21 -1t-40 -1h-35q-112 0 -121 15q-6 12 -6 71z" />
<glyph unicode="&#x2014;" horiz-adv-x="1462" d="M35 444q0 53 4 70t18 23q9 3 43.5 3t119 -1t237.5 0l585 2l330 2q32 0 43.5 -11.5t11.5 -42.5q0 -5 1.5 -19.5t1.5 -29.5v-16q0 -38 -13.5 -52t-50.5 -14h-1171q-91 0 -118 3.5t-36 15.5q-6 8 -6 67z" />
<glyph unicode="&#x2018;" horiz-adv-x="481" d="M76 1176q0 63 32 132t76 103t105 62.5t86 27.5q10 0 20.5 -16t10.5 -31q0 -6 -19 -16q-168 -70 -168 -154q0 -30 15 -43t61 -24q111 -24 111 -134q0 -54 -39 -86t-105 -32q-82 0 -134 59.5t-52 151.5z" />
<glyph unicode="&#x2019;" horiz-adv-x="481" d="M76 1012q0 7 18 16q168 70 168 154q0 30 -15 43t-61 24q-110 24 -110 133q0 54 38.5 86.5t104.5 32.5q83 0 136 -59.5t53 -151.5q0 -63 -32.5 -131.5t-78.5 -103.5q-42 -33 -102.5 -61.5t-88.5 -28.5q-10 0 -20 16t-10 31z" />
<glyph unicode="&#x201a;" horiz-adv-x="481" d="M76 154q0 54 38.5 86t104.5 32q83 0 136 -59.5t53 -151.5q0 -63 -32.5 -131.5t-78.5 -103.5q-42 -33 -102.5 -61.5t-88.5 -28.5q-10 0 -20 16t-10 31q0 7 18 16q168 70 168 154q0 30 -15 43t-61 24q-110 24 -110 134z" />
<glyph unicode="&#x201c;" horiz-adv-x="919" d="M76 1176q0 63 32 132t76 103t105 62.5t86 27.5q10 0 20.5 -16t10.5 -31q0 -6 -19 -16q-168 -70 -168 -154q0 -30 15 -43t61 -24q111 -24 111 -134q0 -54 -39 -86t-105 -32q-82 0 -134 59.5t-52 151.5zM514 1176q0 63 32.5 131.5t78.5 103.5q44 33 105 62t85 28 q10 0 20.5 -16t10.5 -31q0 -6 -19 -16q-168 -70 -168 -154q0 -30 15 -43t61 -24q111 -24 111 -134q0 -54 -39 -86t-105 -32q-83 0 -135.5 59t-52.5 152z" />
<glyph unicode="&#x201d;" horiz-adv-x="919" d="M76 1012q0 7 18 16q168 70 168 154q0 30 -15 43t-61 24q-110 24 -110 133q0 54 38.5 86.5t104.5 32.5q83 0 136 -59.5t53 -151.5q0 -63 -32.5 -131.5t-78.5 -103.5q-42 -33 -102.5 -61.5t-88.5 -28.5q-10 0 -20 16t-10 31zM516 1012q0 6 19 16q167 69 167 154 q0 31 -14.5 43.5t-60.5 23.5q-111 24 -111 133q0 54 38.5 86.5t104.5 32.5q82 0 134.5 -59.5t52.5 -151.5q0 -63 -32.5 -132t-76.5 -103q-47 -34 -105 -62t-85 -28q-10 0 -20.5 16t-10.5 31z" />
<glyph unicode="&#x201e;" horiz-adv-x="919" d="M76 154q0 55 38.5 87.5t104.5 32.5q83 0 136 -59.5t53 -153.5q0 -62 -32.5 -131t-78.5 -104q-44 -34 -103.5 -62t-87.5 -28q-10 0 -20 16t-10 31q0 7 18 16q168 70 168 154q0 31 -15 44.5t-61 22.5q-110 24 -110 134zM516 154q0 55 38.5 87.5t104.5 32.5 q82 0 134.5 -59.5t52.5 -153.5q0 -62 -32.5 -131.5t-76.5 -103.5q-45 -35 -103.5 -62.5t-86.5 -27.5q-10 0 -20.5 16t-10.5 31q0 7 19 16q167 69 167 154q0 31 -15 44.5t-60 22.5q-111 24 -111 134z" />
<glyph unicode="&#x2022;" horiz-adv-x="1366" d="M401 692q0 120 83.5 202.5t205.5 82.5q114 0 196.5 -83.5t82.5 -199.5q0 -118 -83 -201t-200 -83t-201 82.5t-84 199.5z" />
<glyph unicode="&#x2026;" horiz-adv-x="1306" d="M61 133q0 69 44.5 116.5t109.5 47.5q72 0 118 -43.5t46 -112.5q0 -38 -16.5 -73t-43.5 -56q-26 -20 -47 -26t-59 -6q-68 0 -110 42t-42 111zM496 133q0 69 44.5 116.5t108.5 47.5q72 0 118 -43.5t46 -112.5q0 -38 -16.5 -73.5t-42.5 -55.5q-25 -20 -47 -26t-60 -6 q-68 0 -109.5 42t-41.5 111zM932 133q0 69 44.5 116.5t108.5 47.5q72 0 118 -43.5t46 -112.5q0 -38 -16.5 -73.5t-42.5 -55.5q-25 -20 -47 -26t-60 -6q-68 0 -109.5 42t-41.5 111z" />
<glyph unicode="&#x202f;" horiz-adv-x="376" />
<glyph unicode="&#x2039;" horiz-adv-x="442" d="M0 453q0 15 33 39l15 12t32 28q36 36 117.5 101.5t101.5 83.5q83 71 94 71q6 0 13.5 -7t7.5 -13q0 -18 -60 -94l-32 -58q-27 -44 -39 -61q-56 -87 -56 -100q0 -20 72 -127l27 -39q19 -28 26 -41q8 -8 31 -47l25 -41q8 -11 8 -23q0 -9 -7.5 -16.5t-15.5 -7.5q-9 0 -60 41 t-112 98l-16 14q-9 8 -38.5 32t-54.5 45t-52.5 44.5t-43.5 41t-16 24.5z" />
<glyph unicode="&#x203a;" horiz-adv-x="442" d="M27 764q0 9 6.5 15.5t15.5 8.5q5 1 30.5 -18t63.5 -51t78 -70l17 -14q92 -78 100 -84q58 -46 81 -69t23 -33q0 -16 -32 -39q-3 -2 -42.5 -37.5t-58.5 -50.5l-213 -179q-35 -30 -47 -30q-6 0 -13 7t-7 13q0 19 59 94l33 58q27 44 39 61q55 85 55 100q0 20 -72 127l-26 39 q-23 33 -27 41l-12 19q-26 40 -43 69q-8 11 -8 23z" />
<glyph unicode="&#x205f;" horiz-adv-x="471" />
<glyph unicode="&#x20ac;" horiz-adv-x="1642" d="M61 543l35 82h123q-4 33 -4 55q0 8 2 18v9h-156l35 81h127q7 70 40.5 151.5t82.5 152.5q47 66 128 131t175 110q136 68 375 68q86 0 181 -14t169 -37q72 -23 105 -43q22 -12 28 -21t9 -35q0 -3 10 -86l6 -43q10 -68 10 -102q0 -29 -47 -29q-12 0 -20 9t-19 34 q-60 137 -170.5 208t-263.5 71q-45 0 -103 -14t-100 -35q-118 -60 -196.5 -183.5t-106.5 -292.5h780l-34 -81h-752q3 -53 6 -82h711l-35 -82h-666q14 -84 57.5 -171.5t106.5 -156.5q74 -83 217 -133q77 -25 183 -25q62 0 118 15.5t131 54.5q34 17 58 49.5t98 159.5 q11 18 23 18q13 0 28 -5t25 -12t10 -13q0 -5 -4 -17q-13 -41 -21 -67q0 -3 -36 -125l-9 -39q-5 -22 -17.5 -31t-61.5 -22q-194 -58 -410 -58q-77 0 -172 14.5t-152 34.5q-76 26 -121 50t-90 61q-110 92 -170 189.5t-86 228.5h-170z" />
<glyph unicode="&#x2122;" horiz-adv-x="1853" d="M4 1223l2 6l12 76q1 3 3 14l4 22t2 13q1 4 1.5 15.5t1.5 19.5t3 18.5t5 17.5t7.5 12t11.5 5q31 0 47 -23q24 -38 82 -35l45 2l99 -4q1 0 28.5 2t32.5 2l113 -4h22l54 2q111 3 131 41q7 13 12 17t14 4q18 0 29.5 -6t11.5 -15q0 -4 -2 -10q-14 -79 -24 -174q-3 -37 -29 -37 q-10 0 -29 8q-6 3 -8 8.5t-2 20.5v19q0 27 -12 35.5t-47 13.5q-23 4 -41 4h-49q-19 0 -37 -2q-2 0 -7.5 2t-7.5 2q-1 0 -3.5 -2t-2.5 -4l2 -6l2 -68l-2 -12v-45l-2 -70l2 -29l-2 -161q-2 -12 -2 -23q0 -8 2 -34t2 -34q0 -16 -2 -34v-19q0 -51 1.5 -78t2.5 -31t6 -18 q12 -44 78 -47q15 -2 22 -8t7 -21q0 -17 -8 -24.5t-27 -7.5q-2 0 -14 2t-21 2l-106 6q-12 0 -63 -5t-56 -5l-49 -4q-9 -3 -14 -3q-22 0 -31.5 7t-9.5 24q0 23 7 27.5t46 9.5q33 3 46 18.5t13 51.5v43q0 12 1 23.5t2 16.5l1 5l-2 26l2 64l2 82l-2 67l2 70l-2 16l4 99 q0 3 -2 20t-2 21q0 9 1.5 45t2.5 37q-4 8 -6 8h-2q-2 -2 -6 -2q-10 0 -18 2h-19l-6 -1q-7 0 -18 -0.5t-23 -0.5h-18q-47 0 -68.5 -15t-56.5 -73q-17 -27 -29 -27q-5 0 -20.5 5.5t-16.5 8.5q-2 0 -4 13zM780 563q3 25 4.5 30.5t6.5 8.5q6 4 47 8q28 2 38 20q17 34 25 233 q3 71 8 243q3 70 9 139q-4 33 -13 49t-28 24t-56 11q-17 1 -23.5 9t-6.5 26q0 14 9.5 22t24.5 7l52 -4l34 -3q7 0 19 3h61l25 2q8 2 14 2t33 -4q8 -3 10.5 -6.5t11.5 -20.5l17 -33l22 -55q24 -54 67.5 -152.5t55.5 -124.5q4 -7 25 -61q9 -26 31 -70q8 -16 8 -18q3 -10 6 -12 q5 13 86 202q0 2 1.5 5.5t3.5 8t4.5 10.5t5.5 12t6 13.5t6 14.5q21 43 40 92q0 2 27 61q24 54 41 105q11 29 33 26q55 -2 112 -4q2 0 20 2t21 2t35 -4l51 4q12 1 19.5 -9t7.5 -25q0 -13 -7 -19t-22 -8q-15 -1 -21 -1.5t-16 -3t-13.5 -3t-9.5 -6t-7.5 -8t-4.5 -12.5t-3 -16 t-1 -23t-1 -27.5v-35.5v-5q0 -10 2 -55t2 -46l-2 -135v-160q0 -14 -0.5 -26.5t-1 -19.5l-0.5 -7q3 -29 4 -41.5t4.5 -30t4 -23t7 -15t9 -10.5t14 -5t17.5 -4.5t24 -3.5q7 -1 11.5 -2t7.5 -3t4.5 -6t2 -8.5t0.5 -11.5q0 -18 -7 -25t-24.5 -7t-70.5 5t-68 5q-21 0 -93 -4 t-93 -4q-9 0 -16 3t-10.5 8.5t-2.5 12.5q4 26 8 30.5t23 4.5q58 2 74 25t16 106q0 4 -2 25t-2 24q0 17 2 37l-2 80v221q2 20 2 37l-4 39q0 33 -2 43q-5 -21 -15 -35q-186 -417 -254 -639q-3 -15 -11.5 -25t-16.5 -8q-23 4 -28.5 11.5t-16.5 44.5q0 1 -10 34.5t-16.5 51.5 t-28.5 68t-54 114q-8 17 -22.5 52t-26.5 64t-16 36q-45 88 -52 112q-6 17 -20 35l2 -10q-2 -37 -2 -53q0 -55 -7 -148.5t-7 -171.5v-16q-4 -25 -4 -45q2 -31 2.5 -43t5 -27.5t7.5 -19t15 -9t22 -6t34 -2.5q7 -1 11.5 -2.5t7.5 -5t4 -8.5t1 -13q0 -15 -7.5 -23.5t-21.5 -8.5 q-11 0 -32.5 3t-38.5 3h-41q-10 2 -19 2q-70 -4 -106 -8q-9 0 -18.5 7.5t-8.5 14.5z" />
<glyph unicode="&#xe000;" horiz-adv-x="901" d="M0 0v901h901v-901h-901z" />
</font>
</defs>
</svg>
